<?xml version="1.0" encoding="UTF-8"?>
<svg version="1.1" xmlns="http://www.w3.org/2000/svg" width="256" height="256">
<path d="M0 0 C0.86753906 0.66515625 1.73507813 1.3303125 2.62890625 2.015625 C30.64777816 24.17564318 47.44433287 54.5931042 52 90 C52.74682453 105.27029849 53.19037466 121.19825834 49 136 C48.81195801 136.68852051 48.62391602 137.37704102 48.43017578 138.08642578 C39.30323326 170.78222704 17.77207066 198.64176289 -11.54296875 215.6953125 C-40.30281552 231.78515245 -75.81539773 237.91772336 -108 229 C-108.80663086 228.77957031 -109.61326172 228.55914062 -110.44433594 228.33203125 C-145.40545188 218.44403886 -172.25612081 195.79495739 -190.08203125 164.3828125 C-193.37784763 158.16456198 -195.95792207 151.76589286 -198.25 145.125 C-198.48444824 144.4546875 -198.71889648 143.784375 -198.96044922 143.09375 C-203.23958952 129.97064348 -204.55434742 116.84219078 -204.4375 103.125 C-204.43512329 102.38497742 -204.43274658 101.64495483 -204.43029785 100.88250732 C-204.37314415 89.48525981 -203.45882743 78.90491425 -200 68 C-199.71125 66.95328125 -199.4225 65.9065625 -199.125 64.828125 C-194.09819829 47.86266923 -184.24642587 32.46338046 -173 19 C-172.48566406 18.36191406 -171.97132813 17.72382812 -171.44140625 17.06640625 C-155.59941696 -2.21016066 -131.61757414 -14.47629705 -108 -21 C-106.95585937 -21.29028076 -106.95585937 -21.29028076 -105.890625 -21.58642578 C-70.70742663 -30.79562795 -28.68630544 -22.3380881 0 0 Z M-114 45.94140625 C-124.04325482 56.65565439 -126.61563131 68.90946816 -126.30859375 83.1328125 C-125.50333163 100.27386919 -116.28411641 112.73034849 -105.82421875 125.484375 C-102.58221553 129.46363616 -99.69765771 133.63405397 -97 138 C-98.093125 138.0825 -99.18625 138.165 -100.3125 138.25 C-109.49401812 139.40788239 -118.54403638 142.99424426 -124.8125 149.9375 C-126.93539619 152.90955467 -127.90752203 154.39335931 -128 158 C-126.30165249 164.79339005 -120.69911676 168.51833318 -115 172 C-91.17568562 181.63620313 -61.7788743 181.75201025 -38 172 C-31.96277254 169.04221476 -26.61090138 166.25738223 -24.125 159.6875 C-23.91213845 155.11097663 -25.48251433 151.7225513 -28.4453125 148.359375 C-34.90491548 142.41053133 -44.13441943 138.24959917 -52.9375 137.875 C-53.618125 137.91625 -54.29875 137.9575 -55 138 C-52.10297975 133.51845928 -48.96371917 129.34680062 -45.625 125.1875 C-31.84987689 107.79646407 -23.88229392 91.6254919 -26 69 C-28.41848096 55.95747766 -36.51433435 45.78977718 -47 38 C-70.02392744 24.2854922 -94.79744876 27.30142975 -114 45.94140625 Z " fill="#FF8906" transform="translate(204,24)"/>
<path d="M0 0 C10.22207987 8.59817086 15.71568759 18.71602325 17.03125 32.11328125 C18.06880446 55.2459656 5.37884254 71.10901218 -8.3515625 88.21484375 C-9.08632812 89.13136719 -9.82109375 90.04789062 -10.578125 90.9921875 C-11.78400008 92.49311712 -12.99099688 93.99314636 -14.19921875 95.4921875 C-19.3403942 101.99563448 -24.3324926 108.61697302 -29.3515625 115.21484375 C-32.59507311 114.13367355 -33.01793122 113.68103666 -34.91796875 111.0390625 C-35.39814453 110.38228516 -35.87832031 109.72550781 -36.37304688 109.04882812 C-37.13584961 107.98631836 -37.13584961 107.98631836 -37.9140625 106.90234375 C-41.59487248 101.87739277 -45.31416907 96.95894462 -49.3515625 92.21484375 C-66.07285093 72.41899584 -79.42974364 54.11805975 -77.3515625 27.21484375 C-75.34455794 15.88869064 -68.51294462 6.04180025 -59.6953125 -1.21875 C-41.32862192 -13.49382154 -17.679324 -13.42101506 0 0 Z M-57.20703125 16.42578125 C-63.39635389 25.38119623 -66.31490777 33.8838417 -64.7265625 44.71484375 C-63.58876433 50.20395116 -61.42736622 54.56339825 -58.3515625 59.21484375 C-57.7740625 60.10171875 -57.1965625 60.98859375 -56.6015625 61.90234375 C-49.27564017 69.43176392 -40.35459441 73.19195045 -29.9140625 73.65234375 C-20.02385827 73.31755545 -11.25057016 69.28833993 -4.3515625 62.21484375 C2.20671452 53.33443001 5.65913937 43.82604697 4.0234375 32.77734375 C2.31311255 24.44528775 -2.08118698 16.52372168 -8.8671875 11.265625 C-24.66943557 1.21991015 -44.30410414 1.05092495 -57.20703125 16.42578125 Z " fill="#FF8906" transform="translate(158.3515625,66.78515625)"/>
<path d="M0 0 C3.65732115 2.57846535 5.94378535 5.01316406 8.1875 8.875 C8.92033203 10.10863281 8.92033203 10.10863281 9.66796875 11.3671875 C13.41620042 18.77571579 13.98360176 25.80912162 13 34 C10.24457189 42.36434228 5.53002469 49.89709458 -2.26953125 54.2734375 C-11.54163279 58.60964419 -19.97363257 59.11923165 -29.68359375 55.90234375 C-37.60297071 52.81739252 -43.47906435 46.35082472 -47.4375 38.9375 C-50.36050493 31.53425606 -50.3478805 23.12937243 -47.89453125 15.61328125 C-43.22680356 5.63961109 -37.5298206 -0.23212827 -27.17578125 -4.11328125 C-17.27599864 -6.8774272 -8.88641348 -4.90106984 0 0 Z M-19 9 C-19.47730962 12.72301503 -19.1387261 13.79191085 -17 17 C-17.763125 17.28875 -18.52625 17.5775 -19.3125 17.875 C-22.15029308 18.96269013 -22.15029308 18.96269013 -25 21 C-26.875 20.6875 -26.875 20.6875 -29 20 C-31.51176074 19.18068911 -31.51176074 19.18068911 -34 19 C-36 20 -36 20 -37 22 C-37.14768913 24.51749828 -37.14768913 24.51749828 -36 27 C-33.5609294 29.20142332 -33.5609294 29.20142332 -31 31 C-30.67 31.66 -30.34 32.32 -30 33 C-29.34 33 -28.68 33 -28 33 C-28.48210937 33.53109375 -28.96421875 34.0621875 -29.4609375 34.609375 C-30.09257813 35.31578125 -30.72421875 36.0221875 -31.375 36.75 C-32.00148438 37.44609375 -32.62796875 38.1421875 -33.2734375 38.859375 C-34.87505183 40.84508688 -35.96520068 42.67954093 -37 45 C-33.98279873 45.34058374 -33.98279873 45.34058374 -32.31640625 43.43359375 C-31.14697623 42.10268342 -29.98030531 40.76934368 -28.81640625 39.43359375 C-27 38 -27 38 -24.9609375 38.08984375 C-22.71852806 39.13064335 -21.64443974 40.24069505 -20.0625 42.125 C-18.59496857 43.76923012 -18.59496857 43.76923012 -17 45 C-14.18583884 45.04097782 -14.18583884 45.04097782 -12 44 C-10.99782936 40.41672247 -10.99782936 40.41672247 -12 37 C-12.66 37 -13.32 37 -14 37 C-12.02 33.37 -10.04 29.74 -8 26 C-7.34 26.33 -6.68 26.66 -6 27 C-4.00039988 27.039992 -1.99952758 27.04346799 0 27 C1.0577755 24.3391804 1.0577755 24.3391804 1 21 C-0.68156879 18.3363031 -2.88606349 16.31881977 -5.1875 14.1875 C-5.77853516 13.60291016 -6.36957031 13.01832031 -6.97851562 12.41601562 C-12.35533161 6.97828082 -12.35533161 6.97828082 -19 9 Z " fill="#FF8906" transform="translate(146,79)"/>
<path d="M0 0 C1.67578125 1.87939453 1.67578125 1.87939453 3.3125 4.1328125 C3.91320312 4.93847656 4.51390625 5.74414062 5.1328125 6.57421875 C6.38133072 8.27983046 7.62610607 9.98818808 8.8671875 11.69921875 C9.46789062 12.50230469 10.06859375 13.30539063 10.6875 14.1328125 C11.22761719 14.87418457 11.76773438 15.61555664 12.32421875 16.37939453 C14.09069057 18.46344911 14.09069057 18.46344911 18 18 C19.57820624 16.7152485 19.57820624 16.7152485 20.875 14.89453125 C21.38546875 14.24033203 21.8959375 13.58613281 22.421875 12.91210938 C22.94265625 12.21923828 23.4634375 11.52636719 24 10.8125 C24.52078125 10.13896484 25.0415625 9.46542969 25.578125 8.77148438 C26.5933249 7.45762086 27.60390918 6.14017527 28.609375 4.81884766 C30.36980102 2.51632416 32.17879007 0.25462287 34 -2 C44.0342661 -0.30783086 55.07949541 1.70356551 62.30078125 9.4765625 C64.6212224 12.92255096 64.65469335 14.92635246 64 19 C57.38261991 28.26433212 44.48054923 30.60826991 33.9765625 32.5625 C14.58676061 35.17995105 -8.49645532 34.59328891 -26 25 C-28.02359719 23.4386901 -29.38557031 22.00411962 -31 20 C-31.33 19.67 -31.66 19.34 -32 19 C-32.90350029 12.33668536 -32.90350029 12.33668536 -30.859375 9.3125 C-24.24426102 3.14695687 -8.62953097 -5.22276506 0 0 Z " fill="#FF8906" transform="translate(112,166)"/>
<path d="M0 0 C1.828125 0.90234375 1.828125 0.90234375 3.828125 4.90234375 C0.858125 9.35734375 0.858125 9.35734375 -2.171875 13.90234375 C-6.09788463 11.93933894 -8.26837059 10.12845976 -11.171875 6.90234375 C-11.171875 6.24234375 -11.171875 5.58234375 -11.171875 4.90234375 C-9.76436279 4.03317488 -8.3454229 3.18249226 -6.921875 2.33984375 C-6.13296875 1.86417969 -5.3440625 1.38851562 -4.53125 0.8984375 C-2.171875 -0.09765625 -2.171875 -0.09765625 0 0 Z " fill="#FF8906" transform="translate(132.171875,98.09765625)"/>
<path d="M0 0 C4.71380794 3.85675195 9.10825067 7.9718936 13.4375 12.25 C13.98180664 12.78141602 14.52611328 13.31283203 15.08691406 13.86035156 C16.43127793 15.20129248 17.72074448 16.59681004 19 18 C19 18.66 19 19.32 19 20 C15.7413364 18.5735422 13.5975146 16.83295838 11.109375 14.3046875 C10.40039062 13.58925781 9.69140625 12.87382813 8.9609375 12.13671875 C8.23132813 11.39035156 7.50171875 10.64398438 6.75 9.875 C5.63238281 8.74384766 5.63238281 8.74384766 4.4921875 7.58984375 C2.6568658 5.73099228 0.8263809 3.86762995 -1 2 C-0.67 1.34 -0.34 0.68 0 0 Z " fill="#FF8907" transform="translate(113,101)"/>
<path d="M0 0 C1.32 0.33 2.64 0.66 4 1 C4 1.66 4 2.32 4 3 C4.66 3 5.32 3 6 3 C6 3.66 6 4.32 6 5 C6.5775 5.2475 7.155 5.495 7.75 5.75 C10.32939979 7.18299988 12.06121592 8.78424676 14 11 C14 11.66 14 12.32 14 13 C9.72538761 12.51061681 7.67448934 10.04257174 4.75 7.0625 C3.85796875 6.16660156 2.9659375 5.27070312 2.046875 4.34765625 C0 2 0 2 0 0 Z " fill="#FF8904" transform="translate(130,90)"/>
</svg>
