<?xml version="1.0" encoding="UTF-8"?>
<svg version="1.1" xmlns="http://www.w3.org/2000/svg" width="2000" height="459">
<path d="M0 0 C10.32867059 9.23225507 18.81620603 19.15516885 26 31 C26.5580835 31.91966553 26.5580835 31.91966553 27.12744141 32.85791016 C36.65111751 48.89438512 42.28691148 66.80412301 46 85 C46.16516113 85.79067871 46.33032227 86.58135742 46.50048828 87.39599609 C51.95828802 115.10265475 51.74999596 148.36722082 46 176 C45.79600586 177.00289062 45.59201172 178.00578125 45.38183594 179.0390625 C41.16467222 199.22251857 34.79298677 217.86185048 25 236 C24.51877686 236.90226318 24.51877686 236.90226318 24.02783203 237.82275391 C17.40309331 250.16044659 9.64281006 261.51926562 0.078125 271.76953125 C-1.83026891 273.81782622 -3.63624726 275.92035597 -5.4375 278.0625 C-11.82957274 285.34276508 -19.23658506 291.31872226 -27 297.0625 C-27.65935547 297.55210205 -28.31871094 298.0417041 -28.99804688 298.54614258 C-33.75073273 302 -33.75073273 302 -36 302 C-25.92554972 314.69948309 -12.54922616 323.42087634 1 332 C1.61101562 332.38961914 2.22203125 332.77923828 2.8515625 333.18066406 C29.41836708 349.90622653 64.1898825 359.22987012 95.3671875 352.8828125 C98.89186315 352.05780567 102.36369483 351.10150637 105.83984375 350.09375 C109.34417863 349.11382396 112.34153567 348.44617134 116 349 C121.11540663 352.87183364 122.06192691 357.90589929 123 364 C124.18925385 377.78858406 123.34379889 389.94420939 114.09765625 400.9375 C100.44497854 414.36136188 79.85493401 418.23805918 61.375 418.3125 C19.16997735 417.80328999 -17.50771593 397.15714448 -47 368 C-47.81855469 367.1951416 -48.63710938 366.3902832 -49.48046875 365.56103516 C-73.32008572 342.07425132 -73.32008572 342.07425132 -77.24609375 335.26953125 C-79.56778072 331.42242506 -81.91840748 328.08486409 -86 326 C-91.74026439 325.29993862 -97.43566925 326.80754675 -103.05859375 327.86328125 C-110.63638072 329.25310805 -118.13545578 329.4246082 -125.8125 329.375 C-126.80898056 329.37001495 -126.80898056 329.37001495 -127.82559204 329.3649292 C-160.38497446 329.10755849 -190.76804917 319.14186343 -215 297 C-216.12535156 295.99839844 -216.12535156 295.99839844 -217.2734375 294.9765625 C-235.88081349 277.54593756 -246.35997424 250.22158685 -247.3359375 225.0625 C-247.79027957 194.65385705 -240.19438675 168.26074157 -218.890625 145.7734375 C-216.9491682 143.82468199 -214.98123269 141.90817204 -213 140 C-212.175 139.154375 -211.35 138.30875 -210.5 137.4375 C-209.675 136.633125 -208.85 135.82875 -208 135 C-207.47535156 134.47921875 -206.95070313 133.9584375 -206.41015625 133.421875 C-196.23932824 123.87462841 -183.49317791 117.21213217 -169.4375 116.5625 C-162.90269452 116.8048751 -157.0953592 118.22261271 -152.13671875 122.671875 C-144.58823271 131.6259412 -139.70740146 143.24858134 -134.82495117 153.80224609 C-123.11624426 179.10241361 -108.41426052 203.49422148 -92.27050781 226.21191406 C-91.0238247 227.96646961 -89.78838554 229.72848563 -88.5546875 231.4921875 C-81.96657868 240.86126638 -75.00427791 249.93972357 -68 259 C-55.64774716 254.37455968 -45.32331568 248.22095504 -35 240 C-34.2678125 239.42378906 -33.535625 238.84757812 -32.78125 238.25390625 C-10.08998884 219.47958898 3.22922458 189.49279115 6.24609375 160.64697266 C9.23277083 127.49878693 3.94317198 94.67064197 -17.22265625 68.22265625 C-19.40555322 65.72406695 -21.65414611 63.34585389 -24 61 C-24.76957031 60.23042969 -25.53914062 59.46085937 -26.33203125 58.66796875 C-48.05488892 38.06810211 -77.12556822 31.23806597 -106.234375 31.75 C-131.41906377 32.58448273 -153.98850432 42.05133279 -174 57 C-174.81339844 57.58910156 -175.62679687 58.17820312 -176.46484375 58.78515625 C-190.32669148 69.27956676 -202.43516852 82.61649459 -212.30761719 96.890625 C-216.09051646 102.34700016 -218.98429244 104.2871964 -225.4375 105.8125 C-230.37443994 106.07233894 -234.26093854 105.4799834 -238.09765625 102.21484375 C-244.2294948 95.07572166 -243.67584946 83.93904446 -243.16845703 75.00341797 C-240.78683786 46.6794079 -221.63359071 22.27702959 -200.67382812 4.4362793 C-146.75567106 -39.67923319 -54.23856481 -47.27895427 0 0 Z M-193.859375 173.8515625 C-202.36274573 183.84484007 -204.14763602 195.24938417 -203.22314453 207.95751953 C-201.50248366 223.70702593 -191.78827972 236.12758382 -180 246 C-163.55201323 258.13919426 -143.38049213 265.31263096 -123 266 C-126.06640086 261.28821331 -129.22658376 256.66536511 -132.54101562 252.1237793 C-145.02070944 234.95940779 -155.07803751 216.17249323 -163.703125 196.8046875 C-164.17036736 195.75677032 -164.17036736 195.75677032 -164.64704895 194.68768311 C-166.18276787 191.23203511 -167.69956222 187.76941826 -169.19213867 184.29492188 C-169.75164619 183.01686396 -170.3112915 181.73886635 -170.87109375 180.4609375 C-171.35505615 179.33478027 -171.83901855 178.20862305 -172.33764648 177.04833984 C-174.68812728 172.73814699 -177.21672086 169.65903794 -181.875 167.9375 C-187.1395253 168.04279051 -190.26290567 170.27020438 -193.859375 173.8515625 Z " fill="#FE851A" transform="translate(580,34)"/>
<path d="M0 0 C15.84 0 31.68 0 48 0 C48.02267317 16.11748771 48.04105222 32.23496157 48.05181217 48.35246086 C48.05694352 55.83800711 48.06392512 63.32354266 48.07543945 70.80908203 C48.08548378 77.34213968 48.09187634 83.87518958 48.09408849 90.40825474 C48.09537924 93.85957051 48.09835919 97.31086412 48.10573006 100.7621727 C48.1331421 115.20931924 48.06763642 129.5872488 47 144 C47.36287613 143.5044096 47.72575226 143.0088192 48.09962463 142.49821091 C48.57665329 141.84691837 49.05368195 141.19562584 49.54516602 140.52459717 C50.01761246 139.87947552 50.4900589 139.23435387 50.9768219 138.56968307 C56.07700006 131.62137129 61.40181275 125.0957633 67.33203125 118.84375 C69.39712557 116.64259529 71.39354195 114.41854341 73.37109375 112.140625 C76.90148839 108.08347003 80.5556718 104.15764899 84.25 100.25 C88.77713996 95.44117134 93.29369747 90.62462559 97.75 85.75 C99.00671509 84.43032227 99.00671509 84.43032227 100.28881836 83.08398438 C102.17055505 81.04221656 103.46269381 79.24844915 104.94555664 76.83984375 C108.19182711 72.08478484 110.98707444 68.67870376 116.7913208 67.37121582 C125.07770427 66.48183916 133.37902794 66.90928247 141.6875 67.25 C144.23880687 67.31025561 146.79025027 67.36499744 149.34179688 67.4140625 C155.5641983 67.54566725 161.78146058 67.74588219 168 68 C166.15421302 71.97112592 163.55399526 74.85063724 160.5625 78 C159.471105 79.16513123 158.3799646 80.330501 157.2890625 81.49609375 C156.46196777 82.37563721 156.46196777 82.37563721 155.61816406 83.27294922 C153.20343437 85.85016676 150.81974484 88.45528696 148.4375 91.0625 C147.53265559 92.05087602 146.62770758 93.0391572 145.72265625 94.02734375 C145.2755127 94.5157373 144.82836914 95.00413086 144.36767578 95.50732422 C142.97420848 97.02814876 141.57912249 98.54747324 140.18359375 100.06640625 C135.95476524 104.67073948 131.73596914 109.28276595 127.5625 113.9375 C123.59522811 118.35817439 119.57262878 122.72512954 115.53833008 127.08447266 C110.65911524 132.35976586 105.82409771 137.67428151 101 143 C105.28730282 149.63928091 109.91771633 155.93694569 114.75 162.1875 C119.66602011 168.58903254 124.4992883 175.01582136 129.13842773 181.62084961 C132.89654748 186.93266596 136.85325845 192.0871453 140.8125 197.25 C146.99513101 205.31619191 153.02150478 213.47509814 158.9375 221.73828125 C162.48832479 226.69691702 166.10994776 231.60308907 169.7512207 236.49560547 C173 240.89119226 173 240.89119226 173 242 C165.26512705 242.45959371 157.53380227 242.77280432 149.78833008 242.98876953 C147.15971423 243.07883816 144.53198917 243.20135523 141.90649414 243.35791016 C120.71917468 244.58884233 120.71917468 244.58884233 114.57662964 240.31314087 C110.52331669 236.19334187 107.79987616 231.50600891 105.2431488 226.35945129 C103.18555963 222.45422176 100.54946238 218.98443832 97.9375 215.4375 C96.9435051 214.03214207 95.95224265 212.62484382 94.96484375 211.21484375 C91.98178813 206.97286588 88.99144995 202.7360607 86 198.5 C85.01559299 197.10549135 84.03121811 195.71096001 83.046875 194.31640625 C82.55380859 193.61789551 82.06074219 192.91938477 81.55273438 192.19970703 C77.03515625 185.79980469 72.51757812 179.39990234 68 173 C66.1391217 174.35966753 64.31039439 175.73784175 62.50708008 177.17407227 C60 179 60 179 57.0612793 180.43334961 C53.50048875 182.48251399 50.87255583 184.32849313 49 188 C46.97482793 196.96167737 47.64599276 206.43965609 47.8125 215.5625 C47.81946282 218.12303815 47.82146783 220.68359489 47.81835938 223.24414062 C47.81228002 229.49980044 47.90856452 235.74198568 48 242 C32.16 242 16.32 242 0 242 C0 162.14 0 82.28 0 0 Z " fill="#1E1054" transform="translate(1139,115)"/>
<path d="M0 0 C9.93882694 9.74915467 15.43252662 23.01800154 16.06054783 36.90919304 C16.05962604 37.84020395 16.05870424 38.77121487 16.05775452 39.73043823 C16.05981651 41.34570656 16.05981651 41.34570656 16.06192017 42.99360657 C16.05832489 44.1595787 16.05472961 45.32555084 16.05102539 46.52685547 C16.05117142 47.76643509 16.05131744 49.00601471 16.0514679 50.28315735 C16.05089199 53.66908182 16.04588825 57.05494477 16.03889394 60.44085836 C16.03262847 63.9842622 16.03205408 67.52766692 16.03086853 71.07107544 C16.02776462 77.77512609 16.01956392 84.47916037 16.00951904 91.18320382 C15.99832868 98.81802009 15.99284009 106.45283716 15.98782361 114.0876596 C15.97738051 129.78761748 15.95904674 145.48755283 15.9375 161.1875 C4.7175 161.1875 -6.5025 161.1875 -18.0625 161.1875 C-19.3825 157.949375 -20.7025 154.71125 -22.0625 151.375 C-22.48015625 150.35817139 -22.8978125 149.34134277 -23.328125 148.29370117 C-23.65296875 147.48908447 -23.9778125 146.68446777 -24.3125 145.85546875 C-24.81523438 144.62219849 -24.81523438 144.62219849 -25.328125 143.36401367 C-26.0625 141.1875 -26.0625 141.1875 -26.0625 138.1875 C-29.33217289 140.92950234 -32.54334043 143.66834043 -35.5625 146.6875 C-49.80803145 160.93303145 -66.55189525 164.48583499 -86.20117188 164.50219727 C-100.50610339 164.28145827 -113.73409219 160.62720575 -124.625 150.8984375 C-136.48892249 138.60522834 -139.55207139 123.08708672 -139.41601562 106.50683594 C-139.07477811 93.72017882 -135.60829941 82.48522466 -126.91015625 72.875 C-102.01480616 50.13759781 -63.35577226 52.83304675 -32.0625 52.1875 C-32.18557016 49.79356867 -32.31848364 47.40085703 -32.45703125 45.0078125 C-32.50736511 43.99908081 -32.50736511 43.99908081 -32.55871582 42.9699707 C-32.9968134 35.68020495 -34.80265034 30.78632711 -39.5625 25.3125 C-48.89078581 18.64613198 -61.2884204 19.66090745 -72.0625 21.1875 C-83.93536251 23.17534174 -94.98157141 27.62174702 -106.0625 32.1875 C-110.5912651 28.30079637 -112.70972558 22.41238877 -115.32519531 17.16308594 C-116.31196639 15.18856776 -117.31551584 13.22320655 -118.3203125 11.2578125 C-118.94895609 10.00572966 -119.57659538 8.75314198 -120.203125 7.5 C-121.06212402 5.79263672 -121.06212402 5.79263672 -121.93847656 4.05078125 C-123.0625 1.1875 -123.0625 1.1875 -122.0625 -1.8125 C-108.47177519 -9.63812703 -90.53354234 -14.15488832 -75.0625 -15.8125 C-73.9796875 -15.93367187 -72.896875 -16.05484375 -71.78125 -16.1796875 C-46.96379456 -18.39167809 -19.9910535 -16.4731693 0 0 Z M-83.59375 91.50390625 C-88.8313944 97.50769544 -90.30891902 104.32449321 -90.0625 112.1875 C-89.30898633 117.77752001 -87.58403515 121.18516083 -83.125 124.6875 C-75.94357132 129.66883781 -66.4730582 129.06179837 -58.0625 128.1875 C-49.28010132 126.0041389 -41.32446928 121.47189023 -36.5 113.65625 C-33.62571377 108.1036516 -31.92654378 103.48431962 -31.96484375 97.203125 C-31.96806641 96.26855469 -31.97128906 95.33398438 -31.97460938 94.37109375 C-31.98298828 93.40300781 -31.99136719 92.43492187 -32 91.4375 C-32.00451172 90.45394531 -32.00902344 89.47039062 -32.01367188 88.45703125 C-32.02543517 86.03379209 -32.04187316 83.61067727 -32.0625 81.1875 C-59.65871665 79.85705962 -59.65871665 79.85705962 -83.59375 91.50390625 Z " fill="#1E1054" transform="translate(1665.0625,195.8125)"/>
<path d="M0 0 C15.84 0 31.68 0 48 0 C48.04898438 7.41726562 48.09796875 14.83453125 48.1484375 22.4765625 C48.18385615 27.19792965 48.21983465 31.91927943 48.2578125 36.640625 C48.31793398 44.12139291 48.37607199 51.60213674 48.421875 59.08300781 C48.45896565 65.11962504 48.50538778 71.15610725 48.55806351 77.19260788 C48.57648188 79.48645007 48.59163524 81.78032106 48.60334396 84.07420731 C48.0133984 108.68853231 48.0133984 108.68853231 57 131 C64.5831538 137.68005609 73.28492 137.59168375 82.88964844 137.17480469 C90.34012643 136.55766653 96.56820595 133.62480952 101.5078125 128.0234375 C113.64485257 111.56535699 112.14703309 88.7216713 112.31640625 69.23828125 C112.33701206 67.23617662 112.35800939 65.23407599 112.37937927 63.23197937 C112.43422582 57.99605573 112.48379802 52.7600953 112.53222656 47.52410889 C112.59161488 41.22379845 112.65763426 34.92355434 112.72252655 28.62329865 C112.82006433 19.08224006 112.90924238 9.54113633 113 0 C128.84 0 144.68 0 161 0 C161 57.42 161 114.84 161 174 C148.79 174 136.58 174 124 174 C120.53448276 164.75862069 120.53448276 164.75862069 119.3125 160.75 C119.06113281 159.94046875 118.80976562 159.1309375 118.55078125 158.296875 C118 156 118 156 118 152 C117.01 152 116.02 152 115 152 C114.72027344 152.59167969 114.44054687 153.18335938 114.15234375 153.79296875 C108.52200793 164.57649329 97.25287118 170.07173466 86.23046875 174 C66.89406427 179.98563428 44.56495687 178.60918712 26.57763672 169.31738281 C14.75883628 162.78031914 6.92729214 152.26135248 3.14575195 139.29931641 C0.31772317 128.84900095 -0.14918407 118.62163923 -0.11352539 107.84912109 C-0.11367142 106.67723236 -0.11381744 105.50534363 -0.1139679 104.29794312 C-0.11327584 100.45642187 -0.10551676 96.61495019 -0.09765625 92.7734375 C-0.09578956 90.09729938 -0.09431759 87.42116394 -0.09336853 84.74502563 C-0.09027315 78.44130807 -0.08208417 72.13760806 -0.07201904 65.83389819 C-0.06080191 58.65121773 -0.0553334 51.46853638 -0.05032361 44.28584933 C-0.03989987 29.52388939 -0.02157694 14.76194824 0 0 Z " fill="#1D1054" transform="translate(670,183)"/>
<path d="M0 0 C-0.62858633 4.86386972 -2.03686494 9.22012277 -3.80078125 13.76953125 C-4.07842819 14.49113937 -4.35607513 15.2127475 -4.64213562 15.95622253 C-5.22816807 17.47100924 -5.8174842 18.98452926 -6.40991211 20.49682617 C-7.31427943 22.8170653 -8.19531771 25.14535933 -9.07617188 27.47460938 C-9.64962845 28.94846731 -10.22445077 30.42179474 -10.80078125 31.89453125 C-11.06135818 32.59238235 -11.32193512 33.29023346 -11.59040833 34.00923157 C-13.47652594 38.72006805 -13.47652594 38.72006805 -15.94213867 40.03857422 C-18.36988711 39.99306654 -19.91080015 39.48635634 -22.125 38.48828125 C-23.29929565 37.97225342 -23.29929565 37.97225342 -24.49731445 37.44580078 C-25.32320068 37.07181152 -26.14908691 36.69782227 -27 36.3125 C-28.72139551 35.56350205 -30.44405221 34.81739586 -32.16796875 34.07421875 C-33.00118652 33.71376465 -33.8344043 33.35331055 -34.69287109 32.98193359 C-51.39768147 25.87222488 -69.84387953 23.23816147 -87.21875 29.70703125 C-91.94576171 31.90456057 -95.96928473 34.71493188 -100 38 C-100.62519531 38.48855469 -101.25039062 38.97710937 -101.89453125 39.48046875 C-116.61019787 52.40235208 -120.52125529 75.35660224 -121.75 93.8125 C-122.98065622 117.33989109 -120.3800455 143.23329085 -104.91015625 162.03515625 C-95.08704575 172.139501 -81.75706943 175.93605324 -68.07836914 176.28588867 C-49.58864983 176.47672092 -33.05902021 172.17404355 -15.48510742 166.70849609 C-13.02396906 166.0068335 -10.50950739 165.50190148 -8 165 C-8 178.86 -8 192.72 -8 207 C-28.80410448 213.93470149 -28.80410448 213.93470149 -36.4375 215.3125 C-37.21802734 215.46783203 -37.99855469 215.62316406 -38.80273438 215.78320312 C-70.48614917 221.83917987 -105.28202331 219.45372125 -132.58203125 201.28125 C-134.82750235 199.6138599 -136.91728842 197.86632596 -139 196 C-140.21236328 194.92685547 -140.21236328 194.92685547 -141.44921875 193.83203125 C-163.876491 172.77855822 -171.7712726 141.01057147 -173.12597656 111.23071289 C-174.17465282 73.42195163 -166.2579236 38.62814244 -139.875 10.4375 C-103.9030967 -24.66461635 -41.91453592 -22.01961795 0 0 Z " fill="#1E1054" transform="translate(1502,142)"/>
<path d="M0 0 C1.29349365 0.00523682 2.5869873 0.01047363 3.91967773 0.01586914 C5.17594971 0.0183667 6.43222168 0.02086426 7.7265625 0.0234375 C9.33587646 0.0325415 10.94519043 0.04164551 12.60327148 0.05102539 C17.69764648 0.07165039 22.79202148 0.09227539 28.04077148 0.11352539 C28.04077148 12.32352539 28.04077148 24.53352539 28.04077148 37.11352539 C43.88077148 37.11352539 59.72077148 37.11352539 76.04077148 37.11352539 C76.04077148 48.99352539 76.04077148 60.87352539 76.04077148 73.11352539 C60.20077148 73.11352539 44.36077148 73.11352539 28.04077148 73.11352539 C28.10251873 88.73675073 28.10251873 88.73675073 28.20092773 104.35961914 C28.24921618 110.73478446 28.29327842 117.10977696 28.31176758 123.48510742 C28.3269497 128.62705962 28.36142326 133.76855869 28.40908051 138.91030884 C28.42387819 140.86858168 28.43181157 142.82691923 28.43265533 144.7852478 C28.43503159 147.53578581 28.46216393 150.28507824 28.49487305 153.03540039 C28.48984268 153.83885391 28.48481232 154.64230743 28.47962952 155.47010803 C28.58082202 160.99680113 29.7400826 165.58629972 33.04077148 170.11352539 C38.15115454 173.95897581 43.27789034 174.76869466 49.54077148 174.61352539 C50.31106689 174.60579102 51.0813623 174.59805664 51.875 174.59008789 C58.82030474 174.3856263 65.23604382 172.92940332 71.88061523 170.98852539 C75.04077148 170.11352539 75.04077148 170.11352539 78.04077148 170.11352539 C78.04077148 181.99352539 78.04077148 193.87352539 78.04077148 206.11352539 C71.28283594 209.49249316 71.28283594 209.49249316 68.05249023 210.24633789 C67.34543945 210.41262695 66.63838867 210.57891602 65.90991211 210.75024414 C64.83 210.99194336 64.83 210.99194336 63.72827148 211.23852539 C63.01993164 211.40739258 62.3115918 211.57625977 61.58178711 211.75024414 C45.25049826 215.51103051 27.1506429 215.93182243 11.04077148 211.11352539 C10.14229492 210.85829102 9.24381836 210.60305664 8.31811523 210.34008789 C-1.91426428 206.89239279 -10.12006736 198.65531965 -14.95922852 189.11352539 C-18.83749947 179.57372706 -20.1144322 170.63746541 -20.07275391 160.41455078 C-20.07289993 159.46743225 -20.07304596 158.52031372 -20.07319641 157.54449463 C-20.07250321 154.4333665 -20.06473866 151.32229924 -20.05688477 148.21118164 C-20.05501848 146.04642266 -20.05359557 143.88166325 -20.05259705 141.71690369 C-20.04878846 136.03370995 -20.03897237 130.35054199 -20.02789307 124.6673584 C-20.01764325 118.86230823 -20.01309178 113.05725388 -20.00805664 107.25219727 C-19.99734857 95.87262686 -19.97976524 84.49308231 -19.95922852 73.11352539 C-27.54922852 73.11352539 -35.13922852 73.11352539 -42.95922852 73.11352539 C-44.93362507 57.71323227 -44.93362507 57.71323227 -42.95922852 52.11352539 C-38.35019151 46.90755659 -31.76604486 44.05101325 -25.47631836 41.3359375 C-19.70287851 38.53209528 -16.53893862 36.37065586 -14.32304382 30.34968567 C-14.07278946 29.60788559 -13.8225351 28.86608551 -13.56469727 28.10180664 C-13.28701004 27.33297653 -13.00932281 26.56414642 -12.72322083 25.77201843 C-11.8453392 23.32965643 -10.99541422 20.87866689 -10.14672852 18.42602539 C-9.27426378 15.96512279 -8.39626532 13.50626198 -7.51667786 11.04789734 C-6.97255558 9.52070652 -6.43373643 7.9916141 -5.90068054 6.46052551 C-3.68792054 0.14148033 -3.68792054 0.14148033 0 0 Z " fill="#1E1054" transform="translate(1897.959228515625,145.886474609375)"/>
<path d="M0 0 C-0.62631756 4.79635933 -1.99482261 9.09390137 -3.72265625 13.5859375 C-3.98759384 14.28772125 -4.25253143 14.989505 -4.52549744 15.71255493 C-5.3660027 17.93536724 -6.21411539 20.15518469 -7.0625 22.375 C-7.63657425 23.88913096 -8.21014719 25.40345209 -8.78320312 26.91796875 C-10.18301221 30.61420442 -11.5896475 34.30777517 -13 38 C-16.4163889 37.37634931 -19.62222838 36.53183231 -22.90625 35.40625 C-23.81503906 35.09816406 -24.72382812 34.79007813 -25.66015625 34.47265625 C-27.55338542 33.82421875 -29.44661458 33.17578125 -31.33984375 32.52734375 C-32.24863281 32.21925781 -33.15742187 31.91117188 -34.09375 31.59375 C-34.91552734 31.31208984 -35.73730469 31.03042969 -36.58398438 30.74023438 C-47.23182555 27.47788045 -60.56405029 27.3028616 -70.8046875 31.8125 C-80.55142289 37.08475544 -83.85878843 45.89256501 -87.203125 56.0078125 C-92.02909673 74.12886323 -91.3367563 98.05785573 -82.125 114.6875 C-77.11719747 122.14300651 -70.2878765 126.47323126 -61.5546875 128.59375 C-43.26682404 131.50191177 -24.75369179 125.20968615 -9.14453125 116.13671875 C-7 115 -7 115 -5 115 C-4.80196264 120.74727273 -4.65694854 126.49255423 -4.56054688 132.24243164 C-4.5203591 134.19721063 -4.46579588 136.15174977 -4.39648438 138.10571289 C-4.2992124 140.91873249 -4.25403138 143.72857226 -4.21875 146.54296875 C-4.15681458 147.84949654 -4.15681458 147.84949654 -4.09362793 149.18241882 C-4.09177834 151.69387504 -4.17894521 153.62372908 -5 156 C-7.40015981 158.29494272 -9.98335334 159.65740989 -13 161 C-14.62035156 161.74830078 -14.62035156 161.74830078 -16.2734375 162.51171875 C-43.36291444 172.78115522 -74.10639665 171.51104599 -100.81640625 160.87890625 C-107.62939537 157.79760131 -112.73639277 153.24579469 -118 148 C-118.62777344 147.39542969 -119.25554688 146.79085937 -119.90234375 146.16796875 C-136.67220588 128.71362245 -139.43456268 103.48133808 -139.375 80.4375 C-139.37445618 79.64485748 -139.37391235 78.85221497 -139.37335205 78.03555298 C-139.33440909 65.67770401 -138.71702742 53.87739795 -135 42 C-134.79101074 41.32291992 -134.58202148 40.64583984 -134.36669922 39.94824219 C-128.20798877 20.8769995 -115.90970232 6.99924416 -98.37890625 -2.40625 C-69.59417758 -16.43506279 -28.25768098 -15.18214737 0 0 Z " fill="#1E1054" transform="translate(1105,191)"/>
<path d="M0 0 C0.93814236 -0.0060911 1.87628472 -0.01218221 2.84285563 -0.01845789 C5.97639053 -0.03506431 9.10951802 -0.03031536 12.24308777 -0.0255127 C14.49388042 -0.03285442 16.74466931 -0.04144095 18.99545288 -0.05117798 C25.10298639 -0.07339277 31.21038498 -0.07632462 37.31795335 -0.07443047 C42.41975307 -0.07431075 47.52152422 -0.08287534 52.62331599 -0.09120798 C65.35011082 -0.11154179 78.07680591 -0.11259226 90.8036051 -0.10540086 C101.84132713 -0.09982777 112.87881688 -0.12064349 123.91648463 -0.15376133 C135.26436606 -0.18754422 146.61210315 -0.20218691 157.9600479 -0.1980443 C164.32526108 -0.19597793 170.69024296 -0.20143909 177.0554142 -0.22593689 C183.04325797 -0.24822111 189.03061894 -0.24631163 195.01846504 -0.22600937 C197.21219 -0.22260225 199.40594757 -0.22767547 201.59962845 -0.24199295 C223.49461622 -0.3749989 223.49461622 -0.3749989 230.49382019 5.39440918 C235.88470038 10.90223104 239.32044575 17.33765464 239.58757019 25.12878418 C239.0622685 34.63674484 235.9929962 40.53112631 228.98210144 46.85144043 C222.39072511 50.93871461 215.576928 51.83603876 207.9614563 51.77536011 C206.58631476 51.78238007 206.58631476 51.78238007 205.18339258 51.78954184 C202.13429289 51.8014368 199.08564724 51.79205617 196.0365448 51.78259277 C193.84132629 51.78666088 191.64610982 51.79200411 189.45089722 51.79852295 C183.50475037 51.81217296 177.55876008 51.80690759 171.61261058 51.79738569 C165.3836836 51.78977811 159.15476981 51.79683767 152.92584229 51.80154419 C141.79819765 51.80734721 130.67061448 51.79803892 119.54298199 51.78276618 C109.46397817 51.76936077 99.38507801 51.77169529 89.30607605 51.78552246 C77.58532616 51.80159451 65.86463671 51.80754399 54.14387709 51.79868567 C47.94537942 51.79401259 41.74695308 51.79337444 35.54846001 51.80329514 C29.72155599 51.81197016 23.89484749 51.80593286 18.06796455 51.78861237 C15.931457 51.78465061 13.79493296 51.78577623 11.65843201 51.79240036 C8.73846709 51.80061796 5.8191258 51.79029144 2.89920044 51.77536011 C2.05706983 51.78205227 1.21493922 51.78874444 0.3472895 51.7956394 C-8.61091577 51.70700165 -15.99075367 48.60645627 -22.50617981 42.39440918 C-27.79812934 35.34864352 -28.25958058 27.94012644 -27.50617981 19.39440918 C-25.81828252 12.78517279 -22.02155215 7.40370056 -16.50617981 3.39440918 C-10.83960672 0.46435603 -6.32511775 -0.03883771 0 0 Z " fill="#FE841A" transform="translate(47.50617980957031,134.6055908203125)"/>
<path d="M0 0 C0.76900786 -0.00297112 1.53801572 -0.00594224 2.33032686 -0.0090034 C4.90335989 -0.01766469 7.47634625 -0.01919648 10.0493927 -0.02069092 C11.89595132 -0.02532094 13.74250899 -0.03034585 15.58906555 -0.03573608 C20.60374343 -0.04884508 25.61840794 -0.05530222 30.63310027 -0.05974674 C33.76815136 -0.06268014 36.90319881 -0.06678548 40.03824806 -0.07125092 C49.85306251 -0.08492246 59.66786863 -0.09459056 69.48269194 -0.09845281 C80.80118588 -0.10293158 92.11955893 -0.12047255 103.43801612 -0.1494534 C112.19404191 -0.17109257 120.95003374 -0.1811583 129.70608598 -0.18249393 C134.93221932 -0.18354043 140.15823898 -0.18941533 145.3843441 -0.20731354 C150.30341134 -0.22383264 155.2222799 -0.22593109 160.14136505 -0.21717453 C161.94162593 -0.21640619 163.74189767 -0.22072001 165.54213142 -0.23063278 C188.76386281 -0.35094861 188.76386281 -0.35094861 197.59944153 8.19903564 C202.95815913 14.34980389 204.55042713 21.04833774 204.29084778 29.14044189 C203.23390191 36.67257193 200.04496939 42.18709267 194.29084778 47.14044189 C187.6694582 51.47512767 181.36749123 52.28962232 173.55046082 52.28761292 C172.77807497 52.2912896 172.00568912 52.29496629 171.20989764 52.29875439 C168.62538334 52.30975495 166.04090929 52.3136289 163.45637512 52.31744385 C161.60158664 52.32371127 159.74679941 52.33035832 157.89201355 52.33735657 C151.80361297 52.35836729 145.71521223 52.3687566 139.62678528 52.37872314 C137.52792472 52.3827719 135.4290643 52.38688886 133.33020401 52.39107323 C123.46786948 52.41011882 113.60554241 52.42435083 103.74319303 52.4326852 C92.37260336 52.44245371 81.00220855 52.46876589 69.63168752 52.50918609 C60.83403371 52.53938305 52.03643564 52.5541575 43.23873103 52.55746621 C37.9884918 52.5598127 32.7384609 52.56872102 27.48827744 52.59392738 C22.54536364 52.61727557 17.60279436 52.62141423 12.65983963 52.611166 C10.85192974 52.61067216 9.0440025 52.61694752 7.23614502 52.63072205 C-4.0033102 52.71152393 -14.66262979 52.77944137 -23.64665222 45.01544189 C-29.00550935 38.97384576 -31.47948061 31.69525428 -31.08805847 23.65216064 C-29.85543222 15.4812464 -26.32781043 9.12178004 -19.70915222 4.14044189 C-13.45210299 0.52496142 -7.08068467 -0.00859279 0 0 Z " fill="#FE851A" transform="translate(84.70915222167969,255.85955810546875)"/>
<path d="M0 0 C1.92612024 -0.00678353 3.852234 -0.01569077 5.77833557 -0.02655029 C10.98708949 -0.04926268 16.1953459 -0.04054057 21.40410805 -0.02465487 C26.86735961 -0.01195406 32.33056992 -0.02374757 37.79382324 -0.03158569 C46.96663015 -0.04067008 56.13923545 -0.02872607 65.31201172 -0.00488281 C75.90153584 0.02232602 86.49057854 0.01351101 97.080091 -0.01401484 C106.18869556 -0.03673936 115.2971556 -0.03988963 124.40577936 -0.02682149 C129.83866925 -0.01904539 135.2713332 -0.01793473 140.70420837 -0.03450394 C145.81310891 -0.04899805 150.92139163 -0.03883669 156.03022575 -0.01003265 C157.899815 -0.00344822 159.76945667 -0.00527402 161.63902473 -0.01634598 C172.70710353 -0.07582644 181.73746474 0.02145114 190.37695312 7.85791016 C195.34626998 14.740414 197.93889522 20.97439445 196.93945312 29.64697266 C195.43870079 37.42359838 191.50281549 43.35068168 185.06835938 47.99853516 C179.3989388 51.3879952 174.67472383 51.79577367 168.19869995 51.79414368 C167.02196848 51.79965871 167.02196848 51.79965871 165.82146466 51.80528516 C163.19005184 51.81630716 160.55867853 51.82016333 157.92724609 51.82397461 C156.04142634 51.83024043 154.15560782 51.83688734 152.26979065 51.84388733 C146.07374937 51.86491781 139.87770787 51.87528949 133.68164062 51.88525391 C131.54716097 51.88930199 129.41268145 51.89341892 127.27820206 51.89760399 C117.24874417 51.91665425 107.21929363 51.93088505 97.18982112 51.93921596 C85.62055114 51.94898501 74.05147265 51.97529664 62.48227012 52.01571685 C53.53518414 52.04590089 44.58815298 52.06068705 35.64101708 52.06399697 C30.29969353 52.06634503 24.95857459 52.07527382 19.61730576 52.10045815 C14.58904932 52.1237835 9.56113158 52.12795409 4.53283501 52.11769676 C2.69225499 52.11720236 0.85165804 52.12349443 -0.98887062 52.13725281 C-12.17669868 52.21617211 -22.05596658 52.18312822 -30.93554688 44.52197266 C-35.62173003 39.33725938 -38.20532642 33.07317341 -38.49804688 26.08447266 C-38.1098292 18.98384606 -36.01451947 12.45400001 -30.94458771 7.32559776 C-21.82628636 -0.79854122 -11.48205202 -0.06799903 0 0 Z " fill="#FE841A" transform="translate(113.060546875,19.35302734375)"/>
<path d="M0 0 C0.22889618 9.44196741 -0.65186309 18.73287989 -1.5 28.125 C-1.64492958 29.76558986 -1.78946403 31.40621468 -1.93359375 33.046875 C-2.28450836 37.03166762 -2.64076663 41.01594907 -3 45 C-3.68400879 44.97905273 -4.36801758 44.95810547 -5.07275391 44.93652344 C-22.83041004 44.46473772 -38.52245987 44.18110664 -53 56 C-61.8699301 64.9069653 -64.12711744 76.39163901 -64.20532227 88.47192383 C-64.21522186 89.41875031 -64.22512146 90.36557678 -64.23532104 91.34109497 C-64.26684667 94.46304851 -64.29165813 97.58501724 -64.31640625 100.70703125 C-64.33698349 102.87465302 -64.35798017 105.04227084 -64.37937927 107.20988464 C-64.43452036 112.9095032 -64.48396475 118.60915749 -64.53222656 124.30883789 C-64.59134185 131.15047863 -64.65752597 137.99205419 -64.72252655 144.83364105 C-64.82043587 155.22238749 -64.90936055 165.61117613 -65 176 C-80.84 176 -96.68 176 -113 176 C-113 118.58 -113 61.16 -113 2 C-100.79 2 -88.58 2 -76 2 C-75.01 6.0425 -74.02 10.085 -73 14.25 C-72.68675781 15.51875977 -72.37351562 16.78751953 -72.05078125 18.09472656 C-71.80714844 19.09987305 -71.56351563 20.10501953 -71.3125 21.140625 C-71.06113281 22.16704102 -70.80976562 23.19345703 -70.55078125 24.25097656 C-70 27 -70 27 -70 31 C-67.28772203 28.38226766 -64.93652164 25.70945509 -62.6875 22.6875 C-47.98788676 3.74820883 -23.96165462 -6.82410889 0 0 Z " fill="#1E0F54" transform="translate(1842,181)"/>
<path d="M0 0 C1.65173457 -0.00542744 3.30346429 -0.01255357 4.95518494 -0.02124023 C9.42011175 -0.03940273 13.88466692 -0.03243547 18.34959984 -0.01972389 C23.03389829 -0.00955942 27.71816605 -0.01899912 32.40246582 -0.02526855 C40.26722902 -0.03253495 48.13184171 -0.02298377 55.99658203 -0.00390625 C65.07451646 0.01786056 74.15209146 0.01080847 83.23001719 -0.01121187 C91.0400723 -0.02939465 98.85001956 -0.03191015 106.66008902 -0.0214572 C111.31772848 -0.01523807 115.97519929 -0.01434297 120.63282776 -0.02760315 C125.01280509 -0.03920302 129.39232141 -0.03106086 133.77224922 -0.00802612 C135.3745758 -0.00276104 136.97694152 -0.00421492 138.57925224 -0.01307678 C148.101768 -0.06086591 156.28145044 0.13944906 163.91210938 6.41210938 C169.7134518 13.4978286 172.2064724 19.24596541 171.96289062 28.51367188 C171.19970268 34.96302935 168.26772022 40.98323379 163.60742188 45.51757812 C156.93372128 49.85980107 151.9068806 51.63634254 143.92965698 51.66474915 C143.2595088 51.66842583 142.58936062 51.67210252 141.89890492 51.67589062 C139.65443792 51.68689917 137.41001727 51.6907665 135.16552734 51.69458008 C133.55556594 51.70084696 131.94560597 51.70749396 130.33564758 51.7144928 C125.04864505 51.73551202 119.7616423 51.7458944 114.47460938 51.75585938 C112.65216176 51.75990798 110.8297143 51.76402493 109.007267 51.76820946 C100.44292984 51.78725782 91.87860128 51.80148861 83.31424701 51.80982143 C73.44065737 51.81958756 63.56729228 51.84589225 53.69378173 51.88632232 C46.05454029 51.91652572 38.41536306 51.93129437 30.77606308 51.93460244 C26.21720353 51.93694844 21.65858396 51.94584991 17.09978867 51.97106361 C12.8069304 51.9944229 8.5144688 51.9985462 4.22156334 51.98830223 C2.65189097 51.98780864 1.08219854 51.99407677 -0.48741341 52.00785828 C-10.43002226 52.09022339 -19.16480904 51.69979339 -27.20507812 45.26757812 C-33.65190017 37.16300184 -36.15274968 30.95917981 -35.39257812 20.51757812 C-34.15881941 14.08845012 -30.46056465 8.60632658 -25.39257812 4.51757812 C-17.52670125 -0.53201572 -8.99477401 -0.0497472 0 0 Z " fill="#FE841A" transform="translate(227.392578125,377.482421875)"/>
<path d="M0 0 C16.17 0 32.34 0 49 0 C49 57.42 49 114.84 49 174 C32.83 174 16.66 174 0 174 C0 116.58 0 59.16 0 0 Z " fill="#1D0F55" transform="translate(879,183)"/>
<path d="M0 0 C4.93831802 3.97474377 6.56535275 7.82478998 7.5625 14.0625 C8.30512618 21.16866433 7.66816343 29.15166457 3.0859375 34.921875 C-4.66145215 42.06786911 -13.18833177 42.75154635 -23.29296875 42.40625 C-30.32757935 41.96051771 -35.96295984 39.98013668 -40.9375 34.875 C-46.02108499 28.06328414 -45.88257221 20.3332154 -45.0234375 12.15234375 C-44.15483953 7.57193714 -42.82624069 4.31292474 -39.4375 1.0625 C-27.22091978 -6.94146635 -12.67932822 -7.14653045 0 0 Z " fill="#1D0F54" transform="translate(922.4375,119.9375)"/>
</svg>
