<?xml version="1.0" encoding="UTF-8"?>
<svg version="1.1" xmlns="http://www.w3.org/2000/svg" width="1280" height="1230">
<path d="M0 0 C422.4 0 844.8 0 1280 0 C1280 405.9 1280 811.8 1280 1230 C857.6 1230 435.2 1230 0 1230 C0 824.1 0 418.2 0 0 Z " fill="#FEFEFE" transform="translate(0,0)"/>
<path d="M0 0 C8.54365526 7.11742709 16.03108433 14.69280864 21.875 24.1875 C22.82826172 25.71503906 22.82826172 25.71503906 23.80078125 27.2734375 C30.03805309 37.80854614 33.3584961 49.24532326 36.875 60.90576172 C38.47790357 66.16607171 40.18252046 71.39298571 41.875 76.625 C44.97446158 86.27981904 47.97409838 95.96331872 50.94311523 105.65893555 C53.90350984 115.31492435 56.95477988 124.94033112 60.03369141 134.55908203 C64.52418808 148.58830059 68.96263715 162.63354842 73.375 176.6875 C78.13890956 191.86028201 82.92644656 207.02506673 87.796875 222.1640625 C91.59243942 233.97176545 95.31138046 245.79897873 98.94287109 257.65820312 C101.89755837 267.29538638 104.94293747 276.90200405 108.01611328 286.50195312 C109.47452122 291.0620689 110.92426682 295.62493809 112.375 300.1875 C112.95829304 302.02084615 113.54162634 303.8541795 114.125 305.6875 C115.29166667 309.35416667 116.45833333 313.02083333 117.625 316.6875 C117.9139917 317.5957251 118.2029834 318.5039502 118.50073242 319.43969727 C119.08170503 321.26568071 119.66259748 323.09168966 120.2434082 324.91772461 C121.73719087 329.61372787 123.23253375 334.30922572 124.73046875 339.00390625 C125.03726563 339.96619141 125.3440625 340.92847656 125.66015625 341.91992188 C126.23644818 343.72738293 126.81322245 345.53469031 127.390625 347.34179688 C128.94731007 352.22617829 130.47403721 357.11892795 131.97973633 362.01928711 C132.33586502 363.17794785 132.69199371 364.33660858 133.05891418 365.53038025 C133.3282225 366.40722977 133.59753082 367.28407928 133.875 368.1875 C151.43011994 368.21121259 168.98523466 368.22866225 186.54036713 368.23931217 C194.69765267 368.24439588 202.85492798 368.25130889 211.01220703 368.26293945 C254.62108306 368.37505422 254.62108306 368.37505422 298.22265625 367.703125 C328.83562887 366.92489863 359.45843256 366.93008153 390.07963371 366.89823818 C400.38426604 366.88740243 410.68864871 366.86261357 420.99319547 366.81875581 C428.36422108 366.78849214 435.73518059 366.77378099 443.10626704 366.77047569 C447.46181562 366.76815147 451.81711054 366.75952823 456.17259026 366.73401451 C460.24198771 366.71052232 464.3109669 366.7065839 468.38041496 366.71677589 C469.85526945 366.71726503 471.33014651 366.71113273 472.80493546 366.69721985 C498.96344815 366.46450063 522.31376415 376.26763993 541.125 394.41015625 C558.98526585 412.44800997 568.28611733 435.55894924 568.25 460.75 C568.24868576 461.75102753 568.24868576 461.75102753 568.24734497 462.77227783 C568.20234822 473.15391666 567.54864205 482.4127946 563.875 492.1875 C563.62830566 492.8484668 563.38161133 493.50943359 563.12744141 494.19042969 C557.85719083 507.99208036 550.25548805 519.62648172 539.875 530.1875 C539.24722656 530.82816406 538.61945313 531.46882812 537.97265625 532.12890625 C532.27977035 537.52869307 525.78601946 541.76329016 519.29711914 546.13037109 C514.06386025 549.65903651 508.95609917 553.29786222 503.9375 557.125 C497.2282919 562.2319839 490.36712884 567.08911955 483.44433594 571.90161133 C477.81757285 575.81674799 472.23548126 579.78655804 466.6875 583.8125 C460.94513198 587.97901162 455.17881255 592.10698778 449.375 596.1875 C440.4841816 602.44175217 431.6766686 608.8086563 422.875 615.1875 C413.37817587 622.07014459 403.8634349 628.9217194 394.26928711 635.66821289 C389.10909805 639.30210686 383.98561851 642.98428074 378.875 646.6875 C373.0693344 650.89435924 367.23978281 655.06345272 361.375 659.1875 C355.53494755 663.29576347 349.7235867 667.44105061 343.9375 671.625 C343.19040771 672.16511719 342.44331543 672.70523438 341.67358398 673.26171875 C337.91354265 675.98245503 334.15783547 678.7090234 330.40625 681.44140625 C322.76432079 686.99719823 315.07206358 692.45018833 307.25 697.75 C300.70005942 702.18977247 294.31824261 706.78957934 288.02319336 711.58251953 C280.20339962 717.50870901 272.13019357 723.07508444 264.06201172 728.65576172 C261.98888276 730.10773885 259.94937763 731.59864689 257.91015625 733.09765625 C254.875 735.1875 254.875 735.1875 252.875 735.1875 C253.09115967 735.77015625 253.30731934 736.3528125 253.5300293 736.953125 C257.2091798 746.89709192 260.86399642 756.82307152 263.95556641 766.9675293 C267.96604919 780.09495978 272.45444059 793.0757598 276.91796875 806.0546875 C277.1822316 806.82344711 277.44649445 807.59220673 277.71876526 808.38426208 C279.02982924 812.19659114 280.3437573 816.00789655 281.66235352 819.81762695 C284.19240065 827.14628563 286.60380421 834.48743819 288.85107422 841.90893555 C290.6267016 847.59441481 292.60465604 853.21058184 294.5607605 858.83584595 C299.30903639 872.50547549 303.87351969 886.22705687 308.3125 900 C312.55864651 913.17123269 316.92398999 926.29296815 321.4375 939.375 C325.6930989 951.71001407 329.82136062 964.07689238 333.8125 976.5 C338.11233108 989.88175921 342.56656659 1003.2041121 347.125 1016.5 C347.72365155 1018.24820322 348.3222846 1019.99641277 348.92089844 1021.74462891 C351.01715681 1027.86341151 353.11419488 1033.98192149 355.22216797 1040.09667969 C357.51841658 1046.76977621 359.7685544 1053.45185802 361.875 1060.1875 C362.25269531 1061.38761719 362.63039063 1062.58773438 363.01953125 1063.82421875 C367.49818742 1080.77767064 366.41515307 1100.60551406 360.875 1117.1875 C360.67132812 1117.82155762 360.46765625 1118.45561523 360.2578125 1119.10888672 C353.63783456 1139.17824886 340.14392862 1155.28039257 322.875 1167.1875 C322.21113281 1167.66832031 321.54726563 1168.14914062 320.86328125 1168.64453125 C314.48077012 1173.00568311 307.05303521 1175.44650335 299.875 1178.1875 C298.575625 1178.73470703 298.575625 1178.73470703 297.25 1179.29296875 C277.95203203 1186.56144682 251.66414734 1183.32787415 233.109375 1175.6796875 C221.67876227 1170.40614395 211.95987624 1163.482917 202.03613281 1155.83789062 C198.24887243 1152.94567641 194.40385941 1150.13222127 190.5625 1147.3125 C188.95569379 1146.13025641 187.34892319 1144.94796443 185.7421875 1143.765625 C184.11985558 1142.57282973 182.49745959 1141.3801216 180.875 1140.1875 C171.19503957 1133.07205013 161.52724136 1125.94345805 151.92626953 1118.72167969 C144.4229322 1113.08440914 136.85969459 1107.52878721 129.29833984 1101.96972656 C125.32177482 1099.04519254 121.34853729 1096.11614567 117.375 1093.1875 C115.79168304 1092.02081112 114.20834969 1090.85414447 112.625 1089.6875 C88.875 1072.1875 88.875 1072.1875 65.125 1054.6875 C64.3410083 1054.10983887 63.5570166 1053.53217773 62.74926758 1052.93701172 C61.16831017 1051.77206151 59.58741808 1050.60702266 58.0065918 1049.44189453 C54.01244172 1046.4982302 50.0171157 1043.55618654 46.01953125 1040.6171875 C37.86542837 1034.61992864 29.73430408 1028.59516089 21.64501953 1022.51074219 C16.07535125 1018.32618262 10.46299884 1014.20210436 4.83984375 1010.08984375 C0.42694983 1006.86233714 -3.97435686 1003.61918152 -8.375 1000.375 C-9.17397705 999.78605957 -9.9729541 999.19711914 -10.79614258 998.59033203 C-12.42598018 997.3888837 -14.05578142 996.18738605 -15.68554688 994.98583984 C-18.08700871 993.21550679 -20.48875199 991.4455564 -22.890625 989.67578125 C-23.67332764 989.09892578 -24.45603027 988.52207031 -25.26245117 987.92773438 C-26.82973258 986.77328755 -28.39759823 985.61963345 -29.96606445 984.46679688 C-34.12623369 981.40727696 -38.27261553 978.33098594 -42.40234375 975.23046875 C-43.26601563 974.58529297 -44.1296875 973.94011719 -45.01953125 973.27539062 C-46.67833744 972.03574514 -48.33347602 970.79117219 -49.984375 969.54101562 C-50.73074219 968.98478516 -51.47710938 968.42855469 -52.24609375 967.85546875 C-52.9002124 967.36328857 -53.55433105 966.8711084 -54.22827148 966.36401367 C-56.28976035 965.0853015 -57.70417005 964.40977889 -60.125 964.1875 C-62.11231624 965.07682708 -62.11231624 965.07682708 -63.99609375 966.58203125 C-64.72820068 967.12013428 -65.46030762 967.6582373 -66.21459961 968.21264648 C-66.98940674 968.80247314 -67.76421387 969.3922998 -68.5625 970 C-69.37017822 970.59949463 -70.17785645 971.19898926 -71.01000977 971.81665039 C-73.39324582 973.5921861 -75.761927 975.38524372 -78.125 977.1875 C-79.01832031 977.8686084 -79.01832031 977.8686084 -79.9296875 978.56347656 C-82.52017573 980.54583188 -85.09955914 982.54211369 -87.67578125 984.54296875 C-94.24135447 989.60973041 -100.966937 994.46777548 -107.65332031 999.37304688 C-111.64803737 1002.30555746 -115.63626088 1005.24686661 -119.625 1008.1875 C-121.20830059 1009.35421111 -122.79163396 1010.52087772 -124.375 1011.6875 C-125.15875 1012.265 -125.9425 1012.8425 -126.75 1013.4375 C-190.875 1060.6875 -190.875 1060.6875 -193.25073242 1062.43798828 C-194.83168983 1063.60293849 -196.41258192 1064.76797734 -197.9934082 1065.93310547 C-201.98755828 1068.8767698 -205.9828843 1071.81881346 -209.98046875 1074.7578125 C-217.38519463 1080.20386895 -224.77924366 1085.66207766 -232.125 1091.1875 C-240.2748895 1097.31778521 -248.4852261 1103.36460259 -256.70166016 1109.40527344 C-260.67822518 1112.32980746 -264.65146271 1115.25885433 -268.625 1118.1875 C-270.20831696 1119.35418888 -271.79165031 1120.52085553 -273.375 1121.6875 C-274.15875 1122.265 -274.9425 1122.8425 -275.75 1123.4375 C-284.45833333 1129.85416667 -293.16666667 1136.27083333 -301.875 1142.6875 C-303.0508667 1143.55435425 -303.0508667 1143.55435425 -304.25048828 1144.4387207 C-305.83109828 1145.60280763 -307.41280209 1146.76541084 -308.99560547 1147.92651367 C-313.00596762 1150.87132664 -316.99292048 1153.84100496 -320.9453125 1156.86328125 C-336.12557615 1168.4078579 -350.56094131 1176.56197258 -369.125 1181.1875 C-369.73843262 1181.36635742 -370.35186523 1181.54521484 -370.98388672 1181.72949219 C-384.53321047 1184.6278424 -401.92312051 1183.18300553 -415.125 1179.1875 C-415.75873535 1178.99945801 -416.3924707 1178.81141602 -417.04541016 1178.61767578 C-440.33423295 1171.48983301 -460.30906693 1154.3201899 -471.875 1133 C-479.40063328 1118.55870244 -483.16060393 1103.33529998 -483.5 1087.0625 C-483.52618408 1086.35375732 -483.55236816 1085.64501465 -483.5793457 1084.91479492 C-483.61916801 1071.41208172 -479.00755985 1057.91288785 -474.49609375 1045.33279419 C-473.15333944 1041.58436327 -471.84825 1037.82275811 -470.5390625 1034.0625 C-470.26185364 1033.26848282 -469.98464478 1032.47446564 -469.69903564 1031.65638733 C-466.3646192 1022.06781611 -463.24808092 1012.40899318 -460.125 1002.75 C-458.93962516 999.09087877 -457.7532209 995.43209198 -456.56640625 991.7734375 C-456.27603989 990.87813324 -455.98567352 989.98282898 -455.68650818 989.06039429 C-452.84875263 980.3196232 -449.96888021 971.59317578 -447.0625 962.875 C-446.81949158 962.14589417 -446.57648315 961.41678833 -446.32611084 960.66558838 C-442.79611434 950.08612659 -439.1911929 939.53342955 -435.56274414 928.98739624 C-435.16043579 927.8180101 -435.16043579 927.8180101 -434.75 926.625 C-434.48195557 925.84597321 -434.21391113 925.06694641 -433.93774414 924.26431274 C-428.8949257 909.59129026 -424.0714048 894.85127712 -419.29003906 880.09130859 C-415.5757981 868.62750651 -411.8198082 857.17907245 -408 845.75 C-407.75595428 845.01972595 -407.51190857 844.2894519 -407.26046753 843.53704834 C-406.03883628 839.88262182 -404.81606759 836.22857719 -403.59277344 832.57470703 C-401.34718516 825.86546442 -399.11191267 819.15278191 -396.87564087 812.44042969 C-395.63233737 808.70885114 -394.38840387 804.97748262 -393.14453125 801.24609375 C-392.64534199 799.74853618 -392.14615581 798.25097758 -391.64697266 796.75341797 C-384.8063151 776.23144531 -377.96565755 755.70947266 -371.125 735.1875 C-371.89457031 734.84138672 -371.89457031 734.84138672 -372.6796875 734.48828125 C-376.04147996 732.69997951 -379.12554859 730.54148462 -382.25 728.375 C-382.94939697 727.89216553 -383.64879395 727.40933105 -384.36938477 726.91186523 C-390.41651455 722.71817972 -396.38526434 718.41944449 -402.34033203 714.09643555 C-407.40734296 710.41957116 -412.50315632 706.78753311 -417.625 703.1875 C-427.28038826 696.39561891 -436.83706346 689.46929487 -446.39550781 682.54199219 C-455.13646795 676.20921736 -463.90120234 669.91559656 -472.73071289 663.70678711 C-478.65479108 659.53494926 -484.52740075 655.29436623 -490.39453125 651.04296875 C-495.44582386 647.38754284 -500.52460525 643.77403845 -505.625 640.1875 C-515.26430795 633.40659913 -524.810175 626.49802116 -534.34716797 619.57421875 C-543.72306307 612.76743069 -553.15193811 606.04800183 -562.65698242 599.42260742 C-569.00121028 594.99327009 -575.28422628 590.48511118 -581.546875 585.94140625 C-586.54598265 582.31771446 -591.574049 578.73852115 -596.625 575.1875 C-603.24994174 570.52922985 -609.82443029 565.80520364 -616.38134766 561.05175781 C-621.55807852 557.30421333 -626.76962171 553.60969325 -632 549.9375 C-638.80870092 545.14815709 -645.54005107 540.2828739 -652.125 535.1875 C-653.10146484 534.445 -653.10146484 534.445 -654.09765625 533.6875 C-671.51682298 519.72042326 -683.58255496 496.26439775 -686.125 474.1875 C-688.32946236 444.52084383 -680.68032748 419.3915851 -661.5 396.71484375 C-646.7482285 381.01682375 -624.23710845 368.08738617 -602.39301491 367.05886555 C-601.45327513 367.0571897 -600.51353535 367.05551386 -599.5453186 367.05378723 C-598.45188078 367.04951721 -597.35844296 367.04524719 -596.23187065 367.04084778 C-594.44381099 367.04153511 -594.44381099 367.04153511 -592.61962891 367.04223633 C-591.34319078 367.03892303 -590.06675266 367.03560974 -588.7516346 367.03219604 C-585.20429262 367.02340734 -581.65697374 367.02119306 -578.109622 367.02044511 C-575.04763352 367.01920589 -571.98565244 367.01474612 -568.92366695 367.0104658 C-559.64416319 366.99788799 -550.36467748 366.99680665 -541.08516693 366.99902344 C-536.65054311 367.0000637 -532.21592131 366.9994518 -527.78129756 366.99838054 C-435.55661503 366.97843271 -343.34155204 368.05618064 -251.125 369.1875 C-250.92928406 368.38931854 -250.73356812 367.59113708 -250.53192139 366.76876831 C-250.26969788 365.70796051 -250.00747437 364.64715271 -249.73730469 363.55419922 C-249.35091827 361.98567703 -249.35091827 361.98567703 -248.95672607 360.38546753 C-247.63274278 355.29478238 -246.00979196 350.3103382 -244.375 345.3125 C-243.65481784 343.08467746 -242.93476785 340.85681219 -242.21484375 338.62890625 C-241.85890137 337.5320752 -241.50295898 336.43524414 -241.13623047 335.30517578 C-239.72584342 330.95687963 -238.32696238 326.60502493 -236.9375 322.25 C-236.66623291 321.39994385 -236.39496582 320.5498877 -236.11547852 319.67407227 C-233.24506905 310.63555414 -230.45924076 301.57100047 -227.66372681 292.50912476 C-222.30181535 275.12928837 -216.81992554 257.79584926 -211.19775391 240.49853516 C-209.59326538 235.54631088 -208.01289671 230.58654309 -206.4375 225.625 C-206.16059326 224.75359375 -205.88368652 223.8821875 -205.59838867 222.984375 C-204.1799244 218.51782874 -202.76513644 214.05012727 -201.3515625 209.58203125 C-200.75544552 207.70044567 -200.15909231 205.81893492 -199.5625 203.9375 C-199.12623291 202.56078125 -199.12623291 202.56078125 -198.68115234 201.15625 C-196.86827432 195.45775987 -194.98502086 189.78726216 -193.0625 184.125 C-190.885451 177.69676805 -188.95563355 171.22242224 -187.125 164.6875 C-185.08512644 157.40564116 -182.87423897 150.21783076 -180.44311523 143.05761719 C-177.50455337 134.40238942 -174.76380767 125.68576947 -172.00732422 116.97119141 C-171.15605476 114.28547631 -170.29980742 111.601412 -169.44140625 108.91796875 C-166.51598927 99.7676648 -163.6262313 90.6073214 -160.78442383 81.43066406 C-160.01252145 78.93860106 -159.23892544 76.44706201 -158.46362305 73.95605469 C-156.70832605 68.31549614 -154.96576625 62.67268309 -153.27734375 57.01171875 C-148.49297413 41.15229471 -142.58752524 27.19612033 -132.125 14.1875 C-131.60808594 13.506875 -131.09117187 12.82625 -130.55859375 12.125 C-121.52067009 0.88988688 -108.95978892 -6.67854652 -96.125 -12.8125 C-95.26519531 -13.23273437 -94.40539062 -13.65296875 -93.51953125 -14.0859375 C-63.17654456 -27.60559321 -25.53573522 -19.7375745 0 0 Z " fill="#000000" transform="translate(699.125,33.8125)"/>
<path d="M0 0 C0.66 0 1.32 0 2 0 C2.55078125 1.71354167 3.1015625 3.42708333 3.65234375 5.140625 C4.01223389 6.26017578 4.37212402 7.37972656 4.74291992 8.53320312 C5.54932449 11.04223708 6.35551318 13.55133928 7.16137695 16.06054688 C9.23172912 22.50588285 11.30594694 28.94990324 13.390625 35.390625 C16.68727457 45.58817749 19.9754444 55.78049098 23 66.0625 C25.28073407 73.81203945 27.79613512 81.46982605 30.375 89.125 C33.75615552 99.16225226 36.96569568 109.23757304 40.05029297 119.36962891 C42.30455613 126.76723319 44.62794857 134.13935796 47 141.5 C49.75117666 150.043588 52.43488587 158.60510212 55.0625 167.1875 C58.34892911 177.92045567 61.71887557 188.62410873 65.14111328 199.31445312 C66.59952122 203.8745689 68.04926682 208.43743809 69.5 213 C70.08329304 214.83334615 70.66662634 216.6666795 71.25 218.5 C77.08333333 236.83333333 82.91666667 255.16666667 88.75 273.5 C89.03875 274.40741943 89.3275 275.31483887 89.625 276.24975586 C90.20852143 278.08384316 90.79185465 279.91799036 91.375 281.75219727 C92.8289212 286.32450358 94.28605558 290.89573598 95.75 295.46484375 C98.72002722 304.74711135 101.62922752 314.04244207 104.4375 323.375 C107.19945094 332.54311007 110.17038472 341.62973795 113.22363281 350.70458984 C115.23022271 356.67217638 117.17933971 362.6443671 118.9909668 368.67431641 C120.17644534 372.58154812 121.39279138 376.47859213 122.61328125 380.375 C122.84358032 381.11105469 123.07387939 381.84710938 123.31115723 382.60546875 C123.87384299 384.40372778 124.43688482 386.20187539 125 388 C153.30239324 388.15098946 181.59669561 387.94893623 209.89691162 387.62860107 C254.38888692 387.12512625 298.8812888 386.74443272 343.375 386.4375 C344.16698839 386.43201676 344.95897677 386.42653353 345.77496481 386.42088413 C408.18402646 385.98936233 470.58946027 385.87370288 533 386 C522.17149579 394.67459877 510.96277875 402.79315564 499.57275391 410.71191406 C493.94469018 414.62755679 488.36157753 418.59826252 482.8125 422.625 C477.07013198 426.79151162 471.30381255 430.91948778 465.5 435 C456.6091816 441.25425217 447.8016686 447.6211563 439 454 C429.50317587 460.88264459 419.9884349 467.7342194 410.39428711 474.48071289 C405.23409805 478.11460686 400.11061851 481.79678074 395 485.5 C388.49941517 490.21040657 381.9613612 494.86297608 375.39453125 499.48046875 C370.2343328 503.11454566 365.1107106 506.79671401 360 510.5 C353.49941517 515.21040657 346.9613612 519.86297608 340.39453125 524.48046875 C335.2343328 528.11454566 330.1107106 531.79671401 325 535.5 C318.49941517 540.21040657 311.9613612 544.86297608 305.39453125 549.48046875 C300.2343328 553.11454566 295.1107106 556.79671401 290 560.5 C283.49941517 565.21040657 276.9613612 569.86297608 270.39453125 574.48046875 C265.2343328 578.11454566 260.1107106 581.79671401 255 585.5 C248.50535311 590.20610386 241.97416928 594.85573464 235.41210938 599.46728516 C229.34144542 603.74075023 223.32365401 608.08541594 217.32617188 612.4609375 C212.30429214 616.1098288 207.18786345 619.5914827 202 623 C203.62578972 631.84708883 206.76131441 640.13239176 209.8125 648.5625 C213.35518344 658.3814795 216.75070883 668.20941552 219.81811523 678.18774414 C221.66194393 684.13514862 223.64336228 690.03487044 225.625 695.9375 C226.05697344 697.22829597 226.48877168 698.51915058 226.92041016 699.81005859 C227.82325685 702.50981637 228.7268126 705.20933527 229.63085938 707.90869141 C231.65852303 713.96517342 233.67648171 720.02488953 235.69512939 726.0843811 C236.84061543 729.52253601 237.9867497 732.96047482 239.1328125 736.3984375 C239.60319317 737.80956929 240.07357074 739.22070211 240.54394531 740.63183594 C240.78149536 741.34448608 241.01904541 742.05713623 241.26379395 742.79138184 C310.38671875 950.16015625 310.38671875 950.16015625 311.12182617 952.36572266 C311.62570005 953.87718095 312.12977042 955.38857375 312.6340332 956.89990234 C313.97940793 960.9330491 315.3208976 964.96742923 316.65625 969.00390625 C317.22905171 970.73180895 317.80196976 972.45967308 318.375 974.1875 C318.65907715 975.04666016 318.9431543 975.90582031 319.23583984 976.79101562 C320.85532936 981.66114809 322.52754953 986.50787527 324.2578125 991.33984375 C324.63115723 992.38825439 325.00450195 993.43666504 325.38916016 994.5168457 C326.11793518 996.55597425 326.85434152 998.59239486 327.59912109 1000.62573242 C327.92734863 1001.54588135 328.25557617 1002.46603027 328.59375 1003.4140625 C328.88958984 1004.2282666 329.18542969 1005.0424707 329.49023438 1005.88134766 C330 1008 330 1008 329 1011 C319.30125045 1004.08416394 309.70299936 997.06154799 300.25 989.8125 C293.98675723 985.0114907 287.69746119 980.27781205 281.24951172 975.72802734 C270.07276074 967.83409676 259.12463256 959.61324925 248.19140625 951.38671875 C241.65206036 946.4962165 235.06543452 941.66936482 228.48779297 936.83056641 C224.49031455 933.88914411 220.49524623 930.94445307 216.5 928 C214.91667895 926.83331667 213.3333456 925.66665002 211.75 924.5 C195.91666667 912.83333333 180.08333333 901.16666667 164.25 889.5 C163.07401245 888.6335083 163.07401245 888.6335083 161.87426758 887.74951172 C160.29331017 886.58456151 158.71241808 885.41952266 157.1315918 884.25439453 C153.13744172 881.3107302 149.1421157 878.36868654 145.14453125 875.4296875 C137.08482392 869.50190275 129.04675097 863.54832033 121.05126953 857.53417969 C113.5479322 851.89690914 105.98469459 846.34128721 98.42333984 840.78222656 C94.44677482 837.85769254 90.47353729 834.92864567 86.5 832 C84.91668304 830.83331112 83.33334969 829.66664447 81.75 828.5 C53.25 807.5 53.25 807.5 50.87475586 805.74975586 C49.29231815 804.58379194 47.70979869 803.41793896 46.12719727 802.25219727 C41.35551563 798.73712555 36.58681683 795.21806228 31.82080078 791.6953125 C29.46382373 789.95691517 27.1012118 788.22638615 24.73828125 786.49609375 C21.45574142 784.08826107 18.21092777 781.63736372 14.98046875 779.16015625 C13.36206471 777.93999069 11.74357805 776.71993471 10.125 775.5 C9.3817749 774.91726318 8.6385498 774.33452637 7.87280273 773.73413086 C5.95352902 772.30226361 4.16115092 771.03025381 2 770 C-2.27818784 770.62914527 -5.28996019 773.59252764 -8.625 776.25 C-9.77980429 777.15809151 -10.93614893 778.06422643 -12.09375 778.96875 C-12.71894531 779.45730469 -13.34414063 779.94585938 -13.98828125 780.44921875 C-17.65579901 783.27641205 -21.39196314 786.01025434 -25.125 788.75 C-25.9308252 789.34200195 -26.73665039 789.93400391 -27.56689453 790.54394531 C-29.2204157 791.758204 -30.87422626 792.9720687 -32.52832031 794.18554688 C-36.52303737 797.11805746 -40.51126088 800.05936661 -44.5 803 C-46.08330059 804.16671111 -47.66663396 805.33337772 -49.25 806.5 C-50.425625 807.36625 -50.425625 807.36625 -51.625 808.25 C-77.75 827.5 -77.75 827.5 -80.12670898 829.2512207 C-81.70439483 830.41375169 -83.28203183 831.57634897 -84.85961914 832.73901367 C-88.90395379 835.71951156 -92.94922297 838.69872758 -96.99609375 841.67578125 C-107.02445064 849.05232382 -107.02445064 849.05232382 -117 856.5 C-124.46139566 862.1142073 -131.99066349 867.63625994 -139.51220703 873.16943359 C-143.50968545 876.11085589 -147.50475377 879.05554693 -151.5 882 C-153.08332105 883.16668333 -154.6666544 884.33334998 -156.25 885.5 C-157.425625 886.36625 -157.425625 886.36625 -158.625 887.25 C-203.75 920.5 -203.75 920.5 -206.12573242 922.25048828 C-207.70668983 923.41543849 -209.28758192 924.58047734 -210.8684082 925.74560547 C-214.86255828 928.6892698 -218.8578843 931.63131346 -222.85546875 934.5703125 C-230.94041012 940.51687204 -239.0000463 946.49291415 -247.01464844 952.53393555 C-251.9417508 956.2353936 -256.92994758 959.8458836 -261.9375 963.4375 C-267.95519612 967.75441639 -273.88497407 972.16539123 -279.75 976.6875 C-285.26889016 980.94199851 -290.84167292 985.08677509 -296.53198242 989.10864258 C-301.75306478 992.80426347 -306.91211057 996.58160234 -312.0625 1000.375 C-312.87251465 1000.97046631 -313.6825293 1001.56593262 -314.51708984 1002.17944336 C-318.40641347 1005.04815567 -322.25611958 1007.94161882 -326 1011 C-326.66 1010.67 -327.32 1010.34 -328 1010 C-314.44726562 969.34179686 -314.44726562 969.34179686 -313.69560242 967.08682251 C-313.20113423 965.6034078 -312.70667823 964.11998902 -312.2122345 962.63656616 C-310.97535425 958.92574648 -309.73825427 955.2150003 -308.50073242 951.50439453 C-306.25538207 944.77121285 -304.01145647 938.03757651 -301.77563477 931.30122375 C-300.538989 927.57546142 -299.30107874 923.85012016 -298.0625 920.125 C-297.81594666 919.3833963 -297.56939331 918.6417926 -297.31536865 917.87771606 C-294.04042063 908.03486897 -290.71122739 898.21212791 -287.33384705 888.40397644 C-282.75595676 875.10138197 -278.2470022 861.78350309 -273.92841721 848.39428902 C-267.18938203 827.52470553 -260.27198097 806.71484758 -253.3359375 785.91015625 C-253.07574341 785.12966754 -252.81554933 784.34917882 -252.54747057 783.54503894 C-249.31578068 773.85174839 -246.08158704 764.15929415 -242.84639895 754.46717066 C-240.09875519 746.23546548 -237.35283243 738.00318657 -234.60706019 729.77085698 C-231.22908237 719.64309919 -227.85090499 709.5154081 -224.47128296 699.38819885 C-224.23521989 698.68082291 -223.99915682 697.97344698 -223.75594032 697.2446354 C-223.28369076 695.82951965 -222.81144089 694.41440399 -222.33919072 692.99928844 C-217.56924637 678.70588521 -212.80270469 664.41134992 -208.03812218 650.11615849 C-207.80007303 649.40216646 -207.56202389 648.68817444 -207.31676114 647.9525463 C-206.85513705 646.56699863 -206.39408925 645.1812588 -205.93366706 643.79531127 C-204.89161397 640.66055702 -203.83897227 637.53066941 -202.76688766 634.40597725 C-202.39960178 633.33119558 -202.0323159 632.25641392 -201.65390015 631.14906311 C-201.33261831 630.22004212 -201.01133648 629.29102114 -200.68031883 628.333848 C-199.86007333 625.92514252 -199.86007333 625.92514252 -200 623 C-201.92384285 621.39782863 -203.80420318 620.01519698 -205.875 618.625 C-207.16859175 617.73006652 -208.46152918 616.83418671 -209.75390625 615.9375 C-210.44500488 615.46183594 -211.13610352 614.98617187 -211.84814453 614.49609375 C-215.5426532 611.92745872 -219.17306657 609.2707853 -222.8125 606.625 C-229.37525869 601.87323394 -235.97692474 597.18047584 -242.60473633 592.52001953 C-248.52908815 588.3478637 -254.40207089 584.10710526 -260.26953125 579.85546875 C-265.32082208 576.20004412 -270.39952352 572.58642038 -275.5 569 C-282.12922712 564.33863251 -288.70728537 559.61055569 -295.26953125 554.85546875 C-300.32082208 551.20004412 -305.39952352 547.58642038 -310.5 544 C-317.12922712 539.33863251 -323.70728537 534.61055569 -330.26953125 529.85546875 C-335.32082208 526.20004412 -340.39952352 522.58642038 -345.5 519 C-352.12922712 514.33863251 -358.70728537 509.61055569 -365.26953125 504.85546875 C-370.32082276 501.20004363 -375.39955362 497.58646398 -380.5 494 C-387.19782638 489.28962914 -393.84807447 484.51683279 -400.48046875 479.71484375 C-405.53455125 476.05589861 -410.60358083 472.41905713 -415.68579102 468.79931641 C-418.85429528 466.54003511 -422.01374728 464.26896573 -425.1640625 461.984375 C-433.89678562 455.65160238 -442.68134515 449.40422494 -451.53100586 443.23583984 C-457.87550725 438.80618409 -464.15889661 434.29785036 -470.421875 429.75390625 C-475.42098447 426.13021314 -480.4491297 422.55113777 -485.5 419 C-492.84105801 413.83592781 -500.12771283 408.59995861 -507.39453125 403.33203125 C-510.63365418 400.98438436 -513.8822722 398.65057487 -517.13671875 396.32421875 C-517.97146729 395.72601318 -518.80621582 395.12780762 -519.66625977 394.51147461 C-521.2808091 393.35478972 -522.89713055 392.20057364 -524.51538086 391.04907227 C-525.2347583 390.53272217 -525.95413574 390.01637207 -526.6953125 389.484375 C-527.33484863 389.02772461 -527.97438477 388.57107422 -528.63330078 388.10058594 C-529.08431152 387.73739258 -529.53532227 387.37419922 -530 387 C-530 386.67 -530 386.34 -530 386 C-513.29171876 385.93222697 -496.5834042 385.89485416 -479.875 385.875 C-479.20052637 385.87419764 -478.52605274 385.87339528 -477.83114052 385.87256861 C-412.66167241 385.7990088 -347.49531094 386.30621833 -282.32852137 386.83565688 C-275.34132145 386.89241585 -268.35411895 386.94877315 -261.36690521 387.00380707 C-260.33205351 387.01195854 -260.33205351 387.01195854 -259.27629571 387.02027468 C-257.8857899 387.03122564 -256.49528409 387.0421765 -255.10477827 387.05312725 C-241.01199076 387.16419121 -226.91925391 387.28032132 -212.8265419 387.40063286 C-207.83288765 387.44319441 -202.83922478 387.48424519 -197.84554672 387.52391243 C-172.55170805 387.72615579 -147.27550928 387.9559831 -122 389 C-121.87067078 388.39762512 -121.74134155 387.79525024 -121.60809326 387.17462158 C-121.34720917 385.97685089 -121.34720917 385.97685089 -121.08105469 384.75488281 C-120.91047546 383.96688293 -120.73989624 383.17888306 -120.56414795 382.36700439 C-119.70007884 378.74161607 -118.48249751 375.26358582 -117.25 371.75 C-114.95523437 365.05222347 -112.90259829 358.31915784 -111 351.5 C-108.96033784 344.21568169 -106.74765485 337.02593681 -104.31591797 329.86352539 C-102.04116798 323.16320603 -99.88784796 316.4279157 -97.75292969 309.68188477 C-96.15360642 304.62891858 -94.54516146 299.57922797 -92.91796875 294.53515625 C-88.17742498 279.86675471 -88.17742498 279.86675471 -83.88671875 265.0625 C-82.95336447 261.83893278 -81.90358591 258.67050226 -80.83227539 255.49072266 C-79.29987333 250.9047544 -77.8437346 246.2941697 -76.375 241.6875 C-74.18985383 234.84216917 -72.00181007 227.99788416 -69.79296875 221.16015625 C-65.57221492 208.08880632 -61.43239199 194.99624698 -57.37963867 181.87182617 C-53.69204369 169.9535513 -49.86696339 158.08086118 -46.03466797 146.20849609 C-41.99662172 133.68655088 -38.03419005 121.1445801 -34.1875 108.5625 C-31.1230841 98.54336028 -27.93622576 88.56854467 -24.69625854 78.60491943 C-20.19981562 64.76189833 -15.90674531 50.85729254 -11.6418457 36.94140625 C-8.84289982 27.82864249 -5.96787637 18.75127678 -2.90313721 9.72392273 C-1.81257494 6.50213171 -0.79345353 3.30703307 0 0 Z " fill="#FEFEFE" transform="translate(639,110)"/>
</svg>
