<?xml version="1.0" encoding="UTF-8"?>
<svg version="1.1" xmlns="http://www.w3.org/2000/svg" width="1280" height="1280">
<path d="M0 0 C422.4 0 844.8 0 1280 0 C1280 422.4 1280 844.8 1280 1280 C857.6 1280 435.2 1280 0 1280 C0 857.6 0 435.2 0 0 Z " fill="#FDDB00" transform="translate(0,0)"/>
<path d="M0 0 C422.4 0 844.8 0 1280 0 C1280 422.4 1280 844.8 1280 1280 C857.6 1280 435.2 1280 0 1280 C0 857.6 0 435.2 0 0 Z M579.875 40.25 C572.13085498 49.36534172 567.84385468 57.92118434 564.625 69.3125 C562.38728652 77.11646057 560.49592069 82.25285223 553.33984375 86.76171875 C552.56769531 87.17035156 551.79554688 87.57898438 551 88 C545.09746111 91.81205637 540.10995903 96.19186547 535 101 C534.21882812 101.73017334 534.21882812 101.73017334 533.421875 102.47509766 C521.39193941 113.79970666 512.85354422 126.52418756 505 141 C504.4534375 141.99773437 503.906875 142.99546875 503.34375 144.0234375 C500.63616304 149.17614125 498.47234062 154.30689968 496.671875 159.84375 C496.23441263 161.17904742 495.79665811 162.51424916 495.35864258 163.84936523 C495.13487946 164.53481415 494.91111633 165.22026306 494.68057251 165.92648315 C493.57589491 169.2921313 492.44077782 172.64743449 491.30859375 176.00390625 C485.42001496 193.52483198 479.69541 211.08882317 474.18530273 228.73266602 C471.63539252 236.88859538 469.01689845 245.01560943 466.29847717 253.11700439 C464.43729508 258.66883512 462.61639845 264.23273016 460.81640625 269.8046875 C460.55132263 270.62481323 460.28623901 271.44493896 460.01312256 272.28991699 C459.47227355 273.96365246 458.93152319 275.63741981 458.39086914 277.31121826 C450.80889261 300.77724569 450.80889261 300.77724569 447 311.375 C445.00561707 316.9316622 443.25878727 322.48014701 441.75 328.1875 C439.42965705 336.95391055 436.57112358 345.53191561 433.6875 354.125 C433.44850983 354.83789185 433.20951965 355.55078369 432.96328735 356.28527832 C430.5198374 363.5675154 428.05453392 370.84218912 425.578125 378.11328125 C425.21372314 379.19013184 424.84932129 380.26698242 424.47387695 381.37646484 C423.80876243 383.34094208 423.13847427 385.3036796 422.46166992 387.26416016 C422.16365479 388.14507324 421.86563965 389.02598633 421.55859375 389.93359375 C421.30392334 390.67665771 421.04925293 391.41972168 420.78686523 392.18530273 C420.04438062 394.84124599 419.48390498 397.47126532 418.95082092 400.17591858 C418.77229615 401.07864533 418.59377138 401.98137209 418.40983677 402.9114542 C418.27459064 403.60067431 418.1393445 404.28989443 418 405 C417.4324854 404.99962028 416.86497079 404.99924056 416.28025877 404.99884933 C382.62732067 404.97645992 348.97438425 404.95930771 315.32144032 404.94893467 C311.2785839 404.947684 307.23572749 404.94638967 303.19287109 404.94506836 C302.38802821 404.94480605 301.58318533 404.94454374 300.75395326 404.94427348 C287.73065576 404.93992494 274.70736268 404.93204187 261.6840678 404.9228472 C248.31597309 404.91348798 234.9478807 404.90793958 221.57978284 404.90591151 C213.33431499 404.904541 205.08885964 404.90021595 196.84339564 404.89208353 C191.18531909 404.88678809 185.52724899 404.88520207 179.86917014 404.88649862 C176.60724234 404.88713763 173.3453409 404.88562331 170.08341599 404.88079453 C166.53985646 404.8758066 162.99635011 404.87702053 159.45278931 404.87974548 C158.43136168 404.87683264 157.40993406 404.8739198 156.35755408 404.87091869 C135.03778954 404.9151164 116.01041394 411.22132744 96.875 420.125 C95.82711304 420.61178223 95.82711304 420.61178223 94.75805664 421.10839844 C91.6258052 422.60301763 88.88976766 424.07934386 86.05859375 426.1171875 C82.18273386 428.50309359 78.61741327 429.18700236 74.1875 430 C67.67986654 431.31959254 61.89539271 432.86232737 56 436 C55.30777344 436.33 54.61554687 436.66 53.90234375 437 C47.3484115 440.13608721 42.09343489 443.77922923 37 449 C36.030625 449.7425 35.06125 450.485 34.0625 451.25 C21.9069618 461.3641501 15.20145275 480.90582509 13 496 C12.90635757 498.3441705 12.86208143 500.69059248 12.85473633 503.03662109 C12.85137772 503.71405365 12.8480191 504.39148621 12.84455872 505.08944702 C12.83510408 507.31746284 12.83310756 509.54540289 12.83203125 511.7734375 C12.82881198 513.34079009 12.82544742 514.9081424 12.82194519 516.47549438 C12.81596551 519.76215306 12.81410381 523.04878549 12.81469727 526.33544922 C12.81479816 530.50166016 12.8012169 534.66769786 12.78392506 538.83386803 C12.7726751 542.07541642 12.77078208 545.31692486 12.77130699 548.55849075 C12.77014359 550.09153457 12.76581671 551.62458001 12.75797462 553.15760422 C12.69606979 566.52297101 13.59751628 579.73332685 16.875 592.75 C17.04644531 593.45189453 17.21789062 594.15378906 17.39453125 594.87695312 C23.30028638 618.4784198 34.68038686 639.85683139 51 657.875 C51.46897705 658.39344482 51.9379541 658.91188965 52.42114258 659.44604492 C53.56941118 660.67405733 54.77984041 661.84339038 56 663 C56.66 663 57.32 663 58 663 C58.09152344 663.59039063 58.18304688 664.18078125 58.27734375 664.7890625 C59.17869043 667.54669612 60.34572213 668.52696209 62.5625 670.375 C63.2946875 670.98601563 64.026875 671.59703125 64.78125 672.2265625 C68.12990305 674.90312673 71.53672155 677.47364712 75 680 C76.05832031 680.77988281 77.11664063 681.55976562 78.20703125 682.36328125 C85.1710286 687.49174751 92.16956695 692.57064136 99.1875 697.625 C105.17501638 701.93865473 111.11296577 706.30524047 117.00390625 710.75 C124.50241586 716.38121452 132.03689257 721.97782465 139.75 727.3125 C145.50795517 731.30468225 151.1179626 735.49649226 156.75097656 739.66186523 C162.75562925 744.09687857 168.80623803 748.46053928 174.890625 752.78515625 C178.57547501 755.4099175 182.2333435 758.06996422 185.88671875 760.73828125 C188.36216826 762.53663165 190.84444002 764.32402553 193.33203125 766.10546875 C208.11829921 776.70889078 208.11829921 776.70889078 214.95703125 782.4140625 C216.97304135 784.04548605 216.97304135 784.04548605 219.23828125 785.3359375 C223.11273123 787.67047172 226.7199517 790.33871165 230.375 793 C231.16938477 793.57596924 231.96376953 794.15193848 232.78222656 794.74536133 C238.39765261 798.82120043 243.99413683 802.92265617 249.58203125 807.03613281 C253.81744559 810.14893464 258.08821209 813.20845502 262.375 816.25 C267.69607723 820.02708765 272.9016422 823.92670885 278 828 C277.33622898 834.33680063 275.57545414 840.17846614 273.6875 846.25 C273.24374023 847.70986328 273.24374023 847.70986328 272.79101562 849.19921875 C271.02443568 854.94537296 269.08889459 860.60144105 267.0065918 866.24023438 C265.26877493 871.00479461 263.66535876 875.81367305 262.0625 880.625 C261.7126001 881.67333008 261.3627002 882.72166016 261.00219727 883.80175781 C258.80967072 890.42036186 256.77066448 897.06265947 254.86352539 903.76806641 C253.02848859 910.11923501 250.81571544 916.32115091 248.59008789 922.54418945 C246.42041133 928.66013177 244.54188205 934.81884204 242.7734375 941.06079102 C241.5574778 945.2881509 240.14457884 949.35158984 238.5 953.4375 C236.54686035 958.3089073 235.08200166 963.16472748 233.74609375 968.2265625 C231.10930176 977.95081858 227.88929108 987.43141074 224.5625 996.9375 C223.4561615 1000.11208319 222.35340273 1003.28788445 221.25390625 1006.46484375 C220.98434113 1007.24330154 220.714776 1008.02175934 220.43704224 1008.82380676 C217.93288706 1016.10353625 215.61377839 1023.43750038 213.32592773 1030.78759766 C212.10736295 1034.69124944 210.81587206 1038.56558543 209.5 1042.4375 C206.69163955 1050.79937066 204.1726817 1059.24170299 201.68457031 1067.70361328 C201.08851975 1069.70306107 200.46462204 1071.69416582 199.8359375 1073.68359375 C189.02250312 1108.72407387 192.07916466 1150.84406482 209.328125 1183.515625 C211.49327127 1187.20351151 213.82553654 1190.7452955 216.2421875 1194.2734375 C220.77306389 1200.95818404 223.80243971 1206.76216318 225.92578125 1214.640625 C230.75715895 1229.7496607 241.81176308 1245.20784205 255 1254 C255.99 1254 256.98 1254 258 1254 C258 1254.66 258 1255.32 258 1256 C259.90989839 1256.95494919 261.82047832 1257.90855833 263.734375 1258.85546875 C265.13285977 1259.56194468 266.52112729 1260.2896348 267.890625 1261.05078125 C279.08611975 1267.14244751 290.92447503 1267.47529468 303.35546875 1267.46875 C305.02720891 1267.47587864 306.69894671 1267.4835814 308.37068176 1267.49182129 C311.86624948 1267.50520061 315.36159174 1267.50686827 318.85717773 1267.50097656 C322.38780033 1267.49629093 325.91751909 1267.50995294 329.44799805 1267.54199219 C349.90815657 1267.72575813 369.08930024 1267.31086508 389 1262 C390.333958 1261.66363705 391.66808438 1261.32794055 393.00244141 1260.99316406 C406.92761224 1257.32689122 419.67787224 1249.23925006 432 1242 C432 1241.34 432 1240.68 432 1240 C432.94875 1239.9175 433.8975 1239.835 434.875 1239.75 C436.421875 1239.37875 436.421875 1239.37875 438 1239 C438.2578125 1238.41734375 438.515625 1237.8346875 438.78125 1237.234375 C440.58203455 1233.93293666 443.51536951 1232.438251 446.625 1230.5 C453.17058096 1226.29721658 459.40125655 1221.79548974 465.54345703 1217.0234375 C469.20948176 1214.20907738 472.76425538 1211.92533846 477 1210 C477 1209.34 477 1208.68 477 1208 C477.58861816 1207.72075684 478.17723633 1207.44151367 478.78369141 1207.15380859 C480.84401059 1206.08120797 482.60303941 1204.92578123 484.4609375 1203.5390625 C485.09773438 1203.06726562 485.73453125 1202.59546875 486.390625 1202.109375 C487.04546875 1201.61953125 487.7003125 1201.1296875 488.375 1200.625 C489.67352542 1199.65757269 490.97299292 1198.69140848 492.2734375 1197.7265625 C492.89702148 1197.26282227 493.52060547 1196.79908203 494.16308594 1196.32128906 C495.89933636 1195.07240718 497.67040311 1193.91779803 499.4765625 1192.7734375 C500.30929687 1192.18820312 501.14203125 1191.60296875 502 1191 C502 1190.34 502 1189.68 502 1189 C502.69867188 1188.75378906 503.39734375 1188.50757813 504.1171875 1188.25390625 C507.42276067 1186.81611629 510.16003507 1184.98473769 513.125 1182.9375 C518.68144691 1179.10618436 518.68144691 1179.10618436 522 1178 C522.33 1177.01 522.66 1176.02 523 1175 C525.22126869 1173.38156225 527.42847717 1171.89778517 529.75 1170.4375 C535.54232805 1166.69613034 541.0618752 1162.75503767 546.47631836 1158.48803711 C550.33819748 1155.45962227 554.31445695 1152.73397991 558.48828125 1150.15625 C559.23658203 1149.58390625 559.23658203 1149.58390625 560 1149 C560 1148.34 560 1147.68 560 1147 C560.556875 1146.731875 561.11375 1146.46375 561.6875 1146.1875 C566.63389309 1143.64746031 571.22702968 1140.57116032 575.8125 1137.4375 C576.40998047 1137.03853516 577.00746094 1136.63957031 577.62304688 1136.22851562 C579.11903456 1135.2044052 580.56465592 1134.10750561 582 1133 C582 1132.34 582 1131.68 582 1131 C582.73476563 1130.73960938 583.46953125 1130.47921875 584.2265625 1130.2109375 C587.05384212 1128.97649147 589.00598536 1127.58349947 591.375 1125.625 C594.12144471 1123.41868941 596.78310128 1121.44006328 599.875 1119.75 C602.42319723 1118.32300955 604.23124065 1117.28898268 606 1115 C606 1114.34 606 1113.68 606 1113 C606.83015625 1112.78730469 607.6603125 1112.57460937 608.515625 1112.35546875 C612.88682133 1110.65501457 616.08147628 1108.18647688 619.75 1105.3125 C621.16740498 1104.23103154 622.58537302 1103.15030064 624.00390625 1102.0703125 C626.36853236 1100.2560014 628.72967099 1098.43729544 631.08984375 1096.6171875 C631.94707031 1095.98039062 632.80429687 1095.34359375 633.6875 1094.6875 C634.77611328 1093.85798828 634.77611328 1093.85798828 635.88671875 1093.01171875 C638 1092 638 1092 640.26171875 1091.984375 C644.36309057 1093.50556854 647.61499334 1095.98665198 651.125 1098.5625 C651.88345215 1099.10898193 652.6419043 1099.65546387 653.42333984 1100.21850586 C655.62126445 1101.80464907 657.81120191 1103.40129853 660 1105 C661.50046875 1106.0828125 661.50046875 1106.0828125 663.03125 1107.1875 C666.873344 1109.96491735 670.69228339 1112.77359274 674.51171875 1115.58203125 C675.7785727 1116.51312035 677.0455014 1117.44410775 678.3125 1118.375 C678.94728271 1118.84156006 679.58206543 1119.30812012 680.23608398 1119.78881836 C684.52790853 1122.93717085 688.84822787 1126.04246683 693.1875 1129.125 C698.48468852 1132.89049799 703.7009007 1136.75117513 708.890625 1140.6640625 C717.6365679 1147.23450704 726.48052032 1153.65801163 735.4375 1159.9375 C741.77822946 1164.38393653 748.00297519 1168.96122855 754.18017578 1173.6315918 C759.64329562 1177.75502075 765.19201053 1181.74594136 770.7734375 1185.70703125 C776.73305657 1189.94225691 782.63339655 1194.25855894 788.5234375 1198.58984375 C795.31898396 1203.58581408 802.13675664 1208.54533569 809.0065918 1213.4387207 C816.38907564 1218.69815099 823.71616601 1224.02077771 830.9375 1229.5 C836.80599926 1233.91274751 842.84704203 1237.99687072 849 1242 C850.30517578 1242.87785156 850.30517578 1242.87785156 851.63671875 1243.7734375 C879.13818528 1261.94331524 914.79331431 1272.02414146 947.77246094 1267.48022461 C952.18568092 1266.90641699 956.49244238 1266.95947955 960.93359375 1267.078125 C962.6529754 1267.10541727 964.37237797 1267.13141594 966.09179688 1267.15625 C968.75083978 1267.19907891 971.40874427 1267.24920976 974.06713867 1267.32226562 C993.35202765 1267.82724729 1008.78246645 1263.81168903 1025 1253 C1025 1252.34 1025 1251.68 1025 1251 C1025.57492187 1250.73574219 1026.14984375 1250.47148438 1026.7421875 1250.19921875 C1038.62342745 1243.88859476 1047.65310107 1229.46747934 1052 1217 C1052.21398438 1216.26523438 1052.42796875 1215.53046875 1052.6484375 1214.7734375 C1054.26977966 1209.22272492 1056.63458402 1205.46368467 1060.37890625 1201.04296875 C1062.82429357 1197.96119148 1064 1195.9713492 1064 1192 C1064.66 1192 1065.32 1192 1066 1192 C1067.5921395 1188.73338464 1069.17199896 1185.46096564 1070.75 1182.1875 C1071.1934375 1181.27806641 1071.636875 1180.36863281 1072.09375 1179.43164062 C1077.05070831 1169.11679356 1080.47306734 1159.04131128 1082.6875 1147.8125 C1082.89955078 1146.78447266 1083.11160156 1145.75644531 1083.33007812 1144.69726562 C1089.50607888 1114.24588021 1085.30865408 1086.03606416 1075.0625 1057.06640625 C1073.43416375 1052.41294447 1072.02121545 1047.71354073 1070.66015625 1042.9765625 C1067.91773513 1033.47202811 1064.69536452 1024.15046519 1061.4375 1014.8125 C1057.98801935 1004.92241505 1054.64542492 995.07086278 1051.84741211 984.97387695 C1050.75555811 981.14216459 1049.44981111 977.42006174 1048.0625 973.6875 C1045.72481969 967.24278401 1043.70573692 960.75562234 1041.82446289 954.16479492 C1040.53992373 949.7103197 1039.09770752 945.35512173 1037.5 941 C1035.40206262 935.27656458 1033.61047852 929.51580354 1031.96289062 923.65039062 C1030.48676274 918.45545636 1028.80124575 913.340887 1027.08207703 908.22157288 C1025.36773079 903.11463631 1023.68523517 897.99800278 1022.01953125 892.875 C1021.63306175 891.68652718 1021.63306175 891.68652718 1021.23878479 890.4740448 C1019.86029523 886.23164464 1018.48436222 881.98841624 1017.10864258 877.74511719 C1016.82408707 876.8674469 1016.53953156 875.98977661 1016.24635315 875.08551025 C1015.67156784 873.31255561 1015.09689098 871.53956581 1014.52232361 869.76654053 C1012.91296851 864.80337194 1011.29522373 859.843081 1009.66688538 854.8861084 C1008.72363145 852.01298423 1007.78471532 849.13845362 1006.8465271 846.26367188 C1006.41014862 844.93030779 1005.97171982 843.59761285 1005.53115845 842.265625 C1004.92560455 840.4340433 1004.32783274 838.59989415 1003.73046875 836.765625 C1003.39426514 835.74243164 1003.05806152 834.71923828 1002.71166992 833.66503906 C1002 831 1002 831 1002 827 C1003.58203125 825.578125 1003.58203125 825.578125 1005.8125 824.25 C1010.62424267 821.26366447 1015.16018372 817.99986434 1019.71484375 814.63671875 C1022 813 1022 813 1024 812 C1024 811.34 1024 810.68 1024 810 C1024.72960938 809.73703125 1025.45921875 809.4740625 1026.2109375 809.203125 C1029.04339369 807.98128115 1031.16017291 806.59661313 1033.625 804.75 C1034.58535156 804.03714844 1035.54570313 803.32429687 1036.53515625 802.58984375 C1037.0780127 802.18362793 1037.62086914 801.77741211 1038.18017578 801.35888672 C1041.79496048 798.65967936 1045.43079938 795.98887596 1049.0625 793.3125 C1050.2834436 792.41120361 1050.2834436 792.41120361 1051.52905273 791.49169922 C1057.79650128 786.87009235 1064.10575965 782.30913993 1070.42871094 777.76391602 C1075.43750479 774.15386035 1080.38747463 770.47332155 1085.3125 766.75 C1091.17109178 762.32161719 1097.13091122 758.08806074 1103.19140625 753.94140625 C1106.12267394 751.91520313 1108.96589736 749.80189572 1111.80078125 747.64453125 C1114.71059353 745.46863255 1117.66671123 743.35914659 1120.625 741.25 C1121.21547119 740.8279126 1121.80594238 740.4058252 1122.41430664 739.97094727 C1125.60175439 737.69590911 1128.80057415 735.4390042 1132.015625 733.203125 C1132.66192871 732.7503418 1133.30823242 732.29755859 1133.97412109 731.83105469 C1135.2232102 730.95640354 1136.47605202 730.08708279 1137.73291016 729.22363281 C1139.19142026 728.19868844 1140.60139023 727.10528431 1142 726 C1142 725.34 1142 724.68 1142 724 C1142.66 723.79375 1143.32 723.5875 1144 723.375 C1147.41868296 721.80810365 1150.07125743 719.79444259 1153.03515625 717.50390625 C1155.60602725 715.53614216 1158.29822471 713.78317169 1161 712 C1163.517013 710.23524452 1166.02783421 708.46208916 1168.53515625 706.68359375 C1171 705 1171 705 1173.80859375 703.41015625 C1174.53175781 702.94480469 1175.25492188 702.47945312 1176 702 C1176 701.34 1176 700.68 1176 700 C1176.763125 699.71125 1177.52625 699.4225 1178.3125 699.125 C1181.15029308 698.03730987 1181.15029308 698.03730987 1184 696 C1184 695.34 1184 694.68 1184 694 C1184.53625 693.7525 1185.0725 693.505 1185.625 693.25 C1187.92713938 692.03834769 1190.06075269 690.67857271 1192.20703125 689.2109375 C1193.58672543 688.2791179 1194.98334977 687.37232994 1196.38671875 686.4765625 C1197.20785156 685.94804688 1198.02898437 685.41953125 1198.875 684.875 C1199.65617187 684.37742187 1200.43734375 683.87984375 1201.2421875 683.3671875 C1201.82226562 682.91601562 1202.40234375 682.46484375 1203 682 C1203 681.34 1203 680.68 1203 680 C1203.72316406 679.75894531 1204.44632813 679.51789062 1205.19140625 679.26953125 C1208.38481058 677.82605919 1210.38872211 676.08327069 1212.9375 673.6875 C1215.77315567 671.05106079 1218.59163324 668.469019 1221.625 666.0625 C1222.40875 665.381875 1223.1925 664.70125 1224 664 C1224 663.34 1224 662.68 1224 662 C1224.84884766 661.66935547 1224.84884766 661.66935547 1225.71484375 661.33203125 C1228.71648331 659.58235759 1230.39646094 657.39596509 1232.5625 654.6875 C1233.32691406 653.74261719 1234.09132813 652.79773438 1234.87890625 651.82421875 C1236.78503004 649.28623072 1238.39355661 646.73183642 1240 644 C1241.05252866 642.53445376 1242.11551774 641.07637741 1243.1875 639.625 C1259.22636339 616.83828499 1267.11785772 589.71520754 1267.44921875 562.00390625 C1267.47095657 560.69453598 1267.4926944 559.38516571 1267.51509094 558.03611755 C1267.56013888 555.2771393 1267.59899008 552.51816837 1267.63305664 549.7590332 C1267.67621581 546.28986266 1267.73322633 542.82109231 1267.79445362 539.35219955 C1268.01042787 526.90359557 1268.17859483 514.46163606 1267.6171875 502.01953125 C1267.56367378 500.79805138 1267.56367378 500.79805138 1267.50907898 499.55189514 C1266.41208905 479.65777737 1256.91142592 462.04872865 1242.47998047 448.58154297 C1231.28270409 438.68537101 1218.72632068 433.52361452 1204.40698242 429.83374023 C1199.14197189 428.43708527 1194.78196417 426.53422328 1190.0859375 423.73828125 C1162.38643527 408.13539708 1135.35835991 404.54571279 1104.0144043 404.56762695 C1101.37093274 404.55858934 1098.72748913 404.54838526 1096.08403015 404.53674316 C1090.43840109 404.51415987 1084.79283286 404.50210761 1079.14716148 404.49761391 C1070.98491018 404.49110127 1062.82276795 404.4680756 1054.66056106 404.44127061 C1041.41166229 404.39819791 1028.16276816 404.36812038 1014.91381836 404.34643555 C1002.05865195 404.3253669 989.20352343 404.29804099 976.34838867 404.26245117 C975.55339105 404.26025235 974.75839343 404.25805352 973.93930497 404.25578807 C969.95025691 404.24471695 965.9612092 404.23352442 961.97216165 404.22227156 C928.98147266 404.12936341 895.99076978 404.05763788 863 404 C862.03305642 401.11186391 861.06713887 398.22339145 860.10180664 395.3347168 C859.82928322 394.52107414 859.5567598 393.70743149 859.27597809 392.869133 C857.66714348 388.05178457 856.1270943 383.22437627 854.69873047 378.35009766 C853.23778476 373.43637878 851.63670823 368.56584291 850.0625 363.6875 C849.67916504 362.49761475 849.29583008 361.30772949 848.90087891 360.08178711 C847.60263869 356.05386101 846.30142676 352.02689743 845 348 C844.75944885 347.25536499 844.51889771 346.51072998 844.27105713 345.74353027 C838.25967734 327.13582896 832.23422221 308.53449879 826 290 C824.93559725 286.83396798 823.87348928 283.66717731 822.8125 280.5 C822.473396 279.4951355 822.473396 279.4951355 822.12744141 278.4699707 C820.73915932 274.32585263 819.43462063 270.16225244 818.1640625 265.98046875 C816.00345452 258.92006554 813.64732136 251.93270776 811.28115845 244.93942261 C807.15203907 232.71898967 803.18403942 220.50746975 800 208 C799.34 208 798.68 208 798 208 C797.87753906 207.16082031 797.75507812 206.32164062 797.62890625 205.45703125 C796.96068123 201.78386889 796.00914688 198.2574887 794.9375 194.6875 C794.72416016 193.97182861 794.51082031 193.25615723 794.29101562 192.51879883 C792.2477212 185.72512945 790.13506136 178.95281493 788 172.1875 C787.68023193 171.16293701 787.36046387 170.13837402 787.03100586 169.08276367 C783.76157659 158.82118974 779.76410933 148.94122479 774.6875 139.4375 C774.30142578 138.71353027 773.91535156 137.98956055 773.51757812 137.24365234 C770.17112406 131.09433761 766.35785577 125.4832826 762 120 C761.32582031 119.1234375 760.65164063 118.246875 759.95703125 117.34375 C749.88665321 104.57693194 738.19733948 93.29253479 724.546875 84.40234375 C718.73845214 80.54081818 717.12047906 76.52248624 715 70 C707.90222042 50.86585634 698.40457898 34.43558602 680 24 C679.44070801 23.67757324 678.88141602 23.35514648 678.30517578 23.02294922 C644.50292194 3.83262067 606.01056258 12.42991874 579.875 40.25 Z " fill="#FEFEFE" transform="translate(0,0)"/>
<path d="M0 0 C1.11110339 -0.00085442 2.22220677 -0.00170885 3.36697996 -0.00258917 C7.06721031 -0.00422822 10.76739471 0.00125151 14.46762085 0.00672913 C17.1291616 0.00701136 19.79069958 0.00689651 22.45223999 0.00628662 C28.17063492 0.00576389 33.88901838 0.00888447 39.60741043 0.01452446 C47.87510536 0.02267346 56.14279479 0.02525816 64.4104933 0.02651245 C77.82634885 0.02869764 91.2421983 0.03534324 104.65805054 0.04481506 C117.68539398 0.05400299 130.71273576 0.06107707 143.74008179 0.06532288 C144.54394336 0.0655856 145.34780493 0.06584832 146.17602594 0.06611901 C150.20901883 0.06742411 154.24201172 0.0686878 158.27500463 0.06993091 C191.69907774 0.08028691 225.12314347 0.09789069 258.54721069 0.12025452 C258.54721069 0.78025452 258.54721069 1.44025452 258.54721069 2.12025452 C257.96200889 2.12161105 257.37680709 2.12296757 256.7738719 2.12436521 C222.08556677 2.20502551 187.3973043 2.29598431 152.70906219 2.40030613 C148.54345827 2.41282491 144.37785409 2.4252577 140.21224976 2.43763733 C139.38295733 2.44010332 138.55366491 2.44256932 137.69924241 2.44511004 C124.27368244 2.4848274 110.84811406 2.51757927 97.42252964 2.54775433 C83.64535457 2.57887477 69.86821516 2.61748672 56.09108019 2.66304457 C47.59072586 2.69091745 39.0903976 2.7129557 30.59000987 2.72751702 C24.75998364 2.73806389 18.93000792 2.7558914 13.10001975 2.77942155 C9.73705362 2.79278037 6.37422056 2.80187082 3.01121902 2.80446815 C-0.63821842 2.80779172 -4.28741063 2.82327237 -7.9367981 2.84178162 C-8.99517899 2.83984688 -10.05355989 2.83791215 -11.14401293 2.83591878 C-16.95013382 2.87995516 -21.87022858 3.54008543 -27.45278931 5.12025452 C-30.95278931 5.24525452 -30.95278931 5.24525452 -33.45278931 5.12025452 C-33.78278931 6.11025452 -34.11278931 7.10025452 -34.45278931 8.12025452 C-38.08278931 8.45025452 -41.71278931 8.78025452 -45.45278931 9.12025452 C-41.47094397 5.13840918 -34.78467009 4.5503285 -29.45278931 3.12025452 C-28.28876587 2.78960999 -28.28876587 2.78960999 -27.10122681 2.45228577 C-18.2351583 0.02597484 -9.12824069 -0.02603133 0 0 Z " fill="#F5D924" transform="translate(159.45278930664063,404.87974548339844)"/>
<path d="M0 0 C34.40468322 0.08176844 68.8093213 0.17393615 103.21393794 0.28005161 C107.27568171 0.29257049 111.33742573 0.30500326 115.39916992 0.31738281 C116.20779035 0.31984881 117.01641078 0.3223148 117.84953486 0.32485552 C130.942744 0.36457964 144.03596176 0.39732852 157.129196 0.42749982 C170.56397316 0.4586134 183.9987137 0.49722242 197.43344969 0.54279006 C205.72344703 0.57067163 214.01341758 0.59270611 222.30344921 0.60726251 C227.98816438 0.6178043 233.67282769 0.63562644 239.35750378 0.65916704 C242.63729683 0.67253407 245.91700333 0.68161816 249.19682503 0.68421364 C252.75465477 0.68753376 256.31223202 0.70300504 259.87001038 0.7215271 C260.90406747 0.71959237 261.93812457 0.71765763 263.00351673 0.71566427 C268.39448739 0.75767771 272.90212508 1.21380967 278 3 C278 3.33 278 3.66 278 4 C186.59 3.67 95.18 3.34 1 3 C0.67 2.01 0.34 1.02 0 0 Z " fill="#FFFBBB" transform="translate(862,402)"/>
<path d="M0 0 C0.33 0 0.66 0 1 0 C1.02505615 0.90355225 1.0501123 1.80710449 1.07592773 2.73803711 C1.17087317 6.0796428 1.27011621 9.42106252 1.37231445 12.76245117 C1.4157163 14.2106424 1.45738744 15.65888654 1.49731445 17.10717773 C1.55489062 19.18489559 1.61862028 21.26234573 1.68359375 23.33984375 C1.72025146 24.59144287 1.75690918 25.84304199 1.79467773 27.13256836 C1.67803906 29.89630504 1.67803906 29.89630504 3 31 C3.09942806 33.12308153 3.12969184 35.24959672 3.125 37.375 C3.12757812 38.53773438 3.13015625 39.70046875 3.1328125 40.8984375 C3 44 3 44 2 47 C1.90957701 48.3604737 1.87211486 49.7249044 1.87060547 51.08837891 C1.86745331 51.90577545 1.86430115 52.723172 1.86105347 53.56533813 C1.8630777 54.44354218 1.86510193 55.32174622 1.8671875 56.2265625 C1.86575241 57.58169449 1.86575241 57.58169449 1.86428833 58.96420288 C1.86360808 60.87229482 1.86545155 62.78038908 1.86962891 64.68847656 C1.87499176 67.62049505 1.86967229 70.55236121 1.86328125 73.484375 C1.86394181 75.33593784 1.86522253 77.18750058 1.8671875 79.0390625 C1.86516327 79.921315 1.86313904 80.8035675 1.86105347 81.71255493 C1.47864394 85.6724201 1.47864394 85.6724201 3 89 C3.07205511 90.68608966 3.08386068 92.37500659 3.0625 94.0625 C3.05347656 94.98160156 3.04445313 95.90070313 3.03515625 96.84765625 C3.02355469 97.55792969 3.01195312 98.26820313 3 99 C3.66 99 4.32 99 5 99 C5 101.31 5 103.62 5 106 C5.66 106 6.32 106 7 106 C7 108.31 7 110.62 7 113 C7.66 113 8.32 113 9 113 C9.66 116.96 10.32 120.92 11 125 C8.46746973 121.62329297 7.53264533 120.17607856 6.46484375 116.3671875 C6.21283203 115.47773437 5.96082031 114.58828125 5.70117188 113.671875 C5.44916016 112.74890625 5.19714844 111.8259375 4.9375 110.875 C4.68162109 109.97523438 4.42574219 109.07546875 4.16210938 108.1484375 C-0.20008717 92.53872649 -1.15734474 77.42963817 -1.1328125 61.2890625 C-1.1334879 59.70632919 -1.13445988 58.12359599 -1.13571167 56.54086304 C-1.13717497 53.24809771 -1.13507679 49.95535977 -1.13037109 46.66259766 C-1.12464629 42.45302491 -1.1279788 38.24351556 -1.13394356 34.03394508 C-1.13756226 30.77566045 -1.13640504 27.51739078 -1.13381577 24.25910568 C-1.13315158 22.70663826 -1.13395703 21.15416945 -1.13629532 19.60170364 C-1.13884654 17.43446506 -1.13494785 15.26732867 -1.12939453 13.10009766 C-1.12859894 11.87054352 -1.12780334 10.64098938 -1.12698364 9.37417603 C-1.00609203 6.16187569 -0.60678456 3.15317916 0 0 Z " fill="#F4DA2E" transform="translate(14,490)"/>
<path d="M0 0 C-1.87422152 0.48220263 -3.74941754 0.96061833 -5.625 1.4375 C-6.66914063 1.70433594 -7.71328125 1.97117187 -8.7890625 2.24609375 C-14.7380521 3.64287598 -20.35736479 4.13929903 -26.4609375 4.09765625 C-27.25150543 4.0962413 -28.04207336 4.09482635 -28.8565979 4.09336853 C-31.36277166 4.08780504 -33.86885358 4.07525944 -36.375 4.0625 C-38.08202995 4.05748028 -39.78906132 4.0529182 -41.49609375 4.04882812 C-45.66409748 4.03784759 -49.83203321 4.02060839 -54 4 C-54 3.34 -54 2.68 -54 2 C-54.55220215 2.0714624 -55.1044043 2.1429248 -55.67333984 2.21655273 C-63.33254084 3.10400316 -70.92228447 3.11406298 -78.625 3.0625 C-79.91535156 3.05798828 -81.20570313 3.05347656 -82.53515625 3.04882812 C-85.69015375 3.03714295 -88.84505137 3.02076044 -92 3 C-92 2.67 -92 2.34 -92 2 C-79.18055424 1.28639268 -66.40026191 0.95738098 -53.5625 1.00390625 C-51.91518387 1.00920853 -51.91518387 1.00920853 -50.23458862 1.01461792 C-44.66282791 1.0357202 -39.09156359 1.07185167 -33.52001953 1.125 C-19.74909291 1.31365553 -19.74909291 1.31365553 -6.16748047 -0.66235352 C-3.79968189 -1.03120522 -2.25950904 -0.7405413 0 0 Z " fill="#FEF9B2" transform="translate(380,1265)"/>
<path d="M0 0 C2.59965956 0.44565592 4.88480638 0.95018654 7.3125 2 C10.87608589 3.32598545 14.21926552 3.61551853 18 4 C18 4.66 18 5.32 18 6 C19.2154248 5.99476318 20.43084961 5.98952637 21.68310547 5.98413086 C47.14357703 5.88423203 72.5563011 6.02319473 98 7 C98 7.33 98 7.66 98 8 C88.03735709 8.06982273 78.07477337 8.12297403 68.11193466 8.15543652 C63.48469079 8.17102485 58.85761559 8.19213672 54.23046875 8.22631836 C49.75653702 8.25915752 45.2827665 8.27690425 40.80872345 8.28463173 C39.11047075 8.29013152 37.41222585 8.30086994 35.71404266 8.31719017 C22.75978872 8.43661959 11.55282239 7.44292018 0 1 C0 0.67 0 0.34 0 0 Z " fill="#F4DC3E" transform="translate(266,1259)"/>
<path d="M0 0 C1.670625 0.38091797 1.670625 0.38091797 3.375 0.76953125 C7.4388081 1.69096045 11.50894358 2.58140871 15.58105469 3.46533203 C17.69799939 3.93324775 19.80573157 4.42871263 21.9140625 4.93359375 C34.95220374 7.80198482 49.02963136 8.27374573 62.28125 6.48828125 C65.90620591 6.0123154 69.34776658 5.8994559 73 5.9375 C74.134375 5.94652344 75.26875 5.95554687 76.4375 5.96484375 C77.283125 5.97644531 78.12875 5.98804688 79 6 C79 6.33 79 6.66 79 7 C77.93458984 7.09087891 77.93458984 7.09087891 76.84765625 7.18359375 C75.92855469 7.26738281 75.00945312 7.35117188 74.0625 7.4375 C73.14597656 7.51871094 72.22945312 7.59992188 71.28515625 7.68359375 C69.03840268 7.76044976 69.03840268 7.76044976 68 9 C65.20654772 9.12632261 62.43932334 9.18874319 59.64453125 9.203125 C58.79130783 9.20882507 57.93808441 9.21452515 57.05900574 9.22039795 C55.24060308 9.22987424 53.42218305 9.2363923 51.60375977 9.24023438 C48.86897733 9.24980241 46.1349919 9.28073982 43.40039062 9.3125 C33.13673063 9.37393026 23.95871652 8.67859371 14 6 C13.20634033 5.8237207 12.41268066 5.64744141 11.5949707 5.46582031 C7.37661248 4.52786116 3.78330537 3.08081795 0 1 C0 0.67 0 0.34 0 0 Z " fill="#FEFED4" transform="translate(886,1260)"/>
<path d="M0 0 C0.33 0 0.66 0 1 0 C1.02505615 0.90355225 1.0501123 1.80710449 1.07592773 2.73803711 C1.17087317 6.0796428 1.27011621 9.42106252 1.37231445 12.76245117 C1.4157163 14.2106424 1.45738744 15.65888654 1.49731445 17.10717773 C1.55489062 19.18489559 1.61862028 21.26234573 1.68359375 23.33984375 C1.72025146 24.59144287 1.75690918 25.84304199 1.79467773 27.13256836 C1.67803906 29.89630504 1.67803906 29.89630504 3 31 C3.12635423 33.08043713 3.17581705 35.16576212 3.1875 37.25 C3.20167969 38.38953125 3.21585938 39.5290625 3.23046875 40.703125 C3.00592304 43.91527045 2.37296905 46.11296626 1 49 C0.67 49 0.34 49 0 49 C-1.13216751 44.47976221 -1.14472429 40.03883542 -1.1328125 35.41015625 C-1.13376923 34.58801132 -1.13472595 33.76586639 -1.13571167 32.91880798 C-1.13639031 31.18488488 -1.13455813 29.4509592 -1.13037109 27.71704102 C-1.12502524 25.07497395 -1.13032329 22.43307739 -1.13671875 19.79101562 C-1.13605778 18.10156213 -1.13477622 16.41210874 -1.1328125 14.72265625 C-1.13483673 13.93810562 -1.13686096 13.15355499 -1.13894653 12.3452301 C-1.12104922 8.11983437 -0.8337539 4.16255982 0 0 Z " fill="#EFD62C" transform="translate(14,490)"/>
<path d="M0 0 C2.51693738 3.77540608 2.2713062 6.76329111 2.23046875 11.1328125 C2.23001053 11.9252536 2.22955231 12.7176947 2.2290802 13.53414917 C2.22606175 15.20686341 2.21818761 16.87957493 2.20581055 18.55224609 C2.18752014 21.12217072 2.18530113 23.69173575 2.18554688 26.26171875 C2.18063288 27.8854198 2.17480507 29.5091184 2.16796875 31.1328125 C2.16685593 31.90569611 2.1657431 32.67857971 2.16459656 33.47488403 C2.11605994 38.88394006 2.11605994 38.88394006 1 40 C0.79224439 41.66204487 0.63281745 43.33029491 0.5 45 C0.11111111 49.88888889 0.11111111 49.88888889 -1 51 C-1.12375 52.27875 -1.2475 53.5575 -1.375 54.875 C-1.68024154 57.66720951 -1.79916406 58.74292999 -3.5625 61 C-4.2740625 61.495 -4.2740625 61.495 -5 62 C-4.40961413 56.8299422 -3.57574871 51.84212075 -2.48046875 46.75 C-0.57900795 37.20527879 -0.441237 27.70250919 -0.3125 18 C-0.27921995 16.24216388 -0.24472106 14.4843504 -0.20898438 12.7265625 C-0.12533073 8.4845034 -0.05796269 4.24248468 0 0 Z " fill="#FEFBBB" transform="translate(1267,538)"/>
<path d="M0 0 C0.33 0 0.66 0 1 0 C0.98952637 0.94617188 0.97905273 1.89234375 0.96826172 2.8671875 C0.93138673 6.46057171 0.90886077 10.05394022 0.89013672 13.64746094 C0.8802297 15.18720331 0.86670031 16.72692767 0.84912109 18.26660156 C0.69940441 31.74110321 1.53363175 44.82904578 4.73046875 57.984375 C5.03417172 60.25554506 4.68872334 61.83125417 4 64 C-3.32386857 53.01419715 -2.17651146 33.19848678 -2.1875 20.4375 C-2.18830566 19.52701904 -2.18911133 18.61653809 -2.18994141 17.6784668 C-2.13487851 11.26975701 -2.13487851 11.26975701 -1 9 C-0.77532169 7.46331135 -0.59203195 5.92031946 -0.4375 4.375 C-0.35371094 3.55773437 -0.26992187 2.74046875 -0.18359375 1.8984375 C-0.12300781 1.27195312 -0.06242188 0.64546875 0 0 Z " fill="#FDFABA" transform="translate(13,534)"/>
<path d="M0 0 C0 0.66 0 1.32 0 2 C-0.5775 2.226875 -1.155 2.45375 -1.75 2.6875 C-4.16661068 3.91336492 -4.16661068 3.91336492 -5.875 6.375 C-8.29690806 9.36676878 -10.73744803 10.97721778 -14 13 C-14.969375 13.66 -15.93875 14.32 -16.9375 15 C-26.125 21 -26.125 21 -30 21 C-30.3403125 22.1446875 -30.3403125 22.1446875 -30.6875 23.3125 C-32.30772999 26.6301138 -33.7523143 27.33839336 -37 29 C-37.886875 29.5775 -38.77375 30.155 -39.6875 30.75 C-40.450625 31.1625 -41.21375 31.575 -42 32 C-42.66 31.67 -43.32 31.34 -44 31 C-41.66284534 28.25040628 -38.89820129 26.82312088 -35.765625 25.10546875 C-33.13219828 23.45666397 -31.15995833 21.21679934 -29 19 C-28.31292969 18.58878906 -27.62585938 18.17757813 -26.91796875 17.75390625 C-22.74683919 15.24676144 -18.86995673 12.36285389 -14.9375 9.5 C-13.73383789 8.62794922 -13.73383789 8.62794922 -12.50585938 7.73828125 C-8.14022197 4.58467941 -8.14022197 4.58467941 -3.86547852 1.31054688 C-2 0 -2 0 0 0 Z " fill="#FEF8B7" transform="translate(637,1093)"/>
<path d="M0 0 C0.33 0 0.66 0 1 0 C2.41727233 6.08963845 2.37036969 12.27936595 2.55761719 18.49975586 C2.62426368 20.66359366 2.70233804 22.82681359 2.78125 24.99023438 C3.02746983 32.39441637 3.05698494 39.6444974 2 47 C0 45 0 45 -0.24050903 43.05111694 C-0.23606781 42.256138 -0.23162659 41.46115906 -0.22705078 40.64208984 C-0.22689972 39.74130707 -0.22674866 38.84052429 -0.22659302 37.91244507 C-0.21627045 36.93844757 -0.20594788 35.96445007 -0.1953125 34.9609375 C-0.1924826 33.96494537 -0.18965271 32.96895325 -0.18673706 31.94277954 C-0.1755184 28.75339882 -0.15041081 25.56429622 -0.125 22.375 C-0.11497238 20.21614988 -0.10584615 18.05729537 -0.09765625 15.8984375 C-0.07557361 10.59886301 -0.04207958 5.29945137 0 0 Z " fill="#9C891E" transform="translate(1265,488)"/>
<path d="M0 0 C5.34358792 0.9429861 10.18177809 2.51788568 15 5 C19.02248841 6.97180804 22.15432942 8.13550273 26.625 8.5 C30.4217908 8.81802179 32.95897944 9.54756406 36 12 C36 12.66 36 13.32 36 14 C35.45214844 13.82984375 34.90429688 13.6596875 34.33984375 13.484375 C30.37030224 12.27092166 26.41792 11.10154644 22.3828125 10.12109375 C14.14143471 8.10709652 7.20784823 5.49553944 0 1 C0 0.67 0 0.34 0 0 Z " fill="#FEF9C3" transform="translate(1187,422)"/>
<path d="M0 0 C0.33 0 0.66 0 1 0 C1.30899531 5.2529203 0.64802423 7.58662629 -2 12 C-2.63520612 14.0833715 -3.19774363 16.19022238 -3.6875 18.3125 C-3.93886719 19.38113281 -4.19023437 20.44976563 -4.44921875 21.55078125 C-4.63097656 22.35902344 -4.81273437 23.16726563 -5 24 C-5.66 24 -6.32 24 -7 24 C-6.95875 25.216875 -6.9175 26.43375 -6.875 27.6875 C-6.88292898 32.17530149 -7.55917229 35.39292294 -10.625 38.8125 C-11.305625 39.4003125 -11.305625 39.4003125 -12 40 C-9.90194102 26.21863217 -4.68899717 13.06672482 0 0 Z " fill="#F5E047" transform="translate(214,1030)"/>
<path d="M0 0 C1.07575275 3.75848638 0.75698272 6.35649593 0.0703125 10.2265625 C-1.17777105 18.31708054 -1.2269185 26.20613601 -1.125 34.375 C-1.11493182 35.8046811 -1.10581288 37.23436921 -1.09765625 38.6640625 C-1.0759886 42.10952479 -1.04167943 45.5547146 -1 49 C-1.66 49 -2.32 49 -3 49 C-3.07462464 43.46820973 -3.12882498 37.93671795 -3.16479492 32.40454102 C-3.17980333 30.5259083 -3.20021652 28.64731016 -3.22631836 26.76879883 C-3.26305386 24.05541407 -3.27980607 21.3424959 -3.29296875 18.62890625 C-3.30845261 17.80040665 -3.32393646 16.97190704 -3.33988953 16.11830139 C-3.34154967 10.25595073 -2.15639029 5.44224559 0 0 Z " fill="#FFFECF" transform="translate(196,1086)"/>
<path d="M0 0 C1.44161272 2.88322544 0.29683517 4.71465691 -0.66499329 7.63841248 C-0.92636581 8.4061348 -1.18773834 9.17385712 -1.45703125 9.96484375 C-1.72005539 10.75395645 -1.98307953 11.54306915 -2.2540741 12.35609436 C-2.81302474 14.02757704 -3.37565703 15.69783231 -3.94165039 17.36694336 C-4.80680979 19.92070374 -5.65918351 22.47846175 -6.50976562 25.03710938 C-7.05393075 26.65910825 -7.59882868 28.28086149 -8.14453125 29.90234375 C-8.39983109 30.66804184 -8.65513092 31.43373993 -8.91816711 32.22264099 C-10.02338667 35.46602571 -11.08841401 38.13262102 -13 41 C-12.48424788 36.15193008 -11.37854483 31.94912767 -9.765625 27.35546875 C-8.55604942 23.63417244 -7.7701646 19.83270148 -7 16 C-6.34 16 -5.68 16 -5 16 C-4.34 12.04 -3.68 8.08 -3 4 C-2.34 4 -1.68 4 -1 4 C-0.67 2.68 -0.34 1.36 0 0 Z " fill="#FEFABA" transform="translate(494,166)"/>
<path d="M0 0 C0.66 0 1.32 0 2 0 C3.13764351 4.26616316 4 7.56486311 4 12 C4.66 12 5.32 12 6 12 C6 13.98 6 15.96 6 18 C6.66 18 7.32 18 8 18 C8 19.98 8 21.96 8 24 C8.66 24 9.32 24 10 24 C10.33 27.3 10.66 30.6 11 34 C8.07452244 31.07452244 7.3058244 27.41820701 6.0625 23.5625 C5.79743652 22.75224365 5.53237305 21.9419873 5.25927734 21.10717773 C0 4.88164447 0 4.88164447 0 0 Z " fill="#FEFBC5" transform="translate(1031,920)"/>
<path d="M0 0 C2 1 2 1 3.11279297 3.17651367 C4.10532312 6.33518488 4.22789326 8.86883427 4.1953125 12.17578125 C4.18886719 13.33271484 4.18242188 14.48964844 4.17578125 15.68164062 C4.15902344 16.87982422 4.14226562 18.07800781 4.125 19.3125 C4.11597656 20.53001953 4.10695313 21.74753906 4.09765625 23.00195312 C4.07413037 26.00150274 4.04125653 29.00065044 4 32 C2.27242296 28.98505622 1.72759851 26.72295236 1.62109375 23.26171875 C1.58693359 22.35873047 1.55277344 21.45574219 1.51757812 20.52539062 C1.47793945 19.12063477 1.47793945 19.12063477 1.4375 17.6875 C1.24197095 11.71762371 0.98418018 5.89694735 0 0 Z " fill="#FEFAB9" transform="translate(1265,486)"/>
<path d="M0 0 C0.86496094 0.27714844 1.72992188 0.55429688 2.62109375 0.83984375 C15.31806839 4.49168599 27.84456176 4.81746043 41 5 C41 5.33 41 5.66 41 6 C36.52084672 6.02886338 32.04171709 6.04675187 27.5625 6.0625 C26.28310547 6.07087891 25.00371094 6.07925781 23.68554688 6.08789062 C21.86313477 6.09272461 21.86313477 6.09272461 20.00390625 6.09765625 C18.87799072 6.10289307 17.7520752 6.10812988 16.59204102 6.11352539 C14 6 14 6 13 5 C11.48530552 4.76807135 9.96245438 4.58784762 8.4375 4.4375 C7.61121094 4.35371094 6.78492188 4.26992187 5.93359375 4.18359375 C5.29550781 4.12300781 4.65742188 4.06242187 4 4 C4 3.34 4 2.68 4 2 C2.68 2 1.36 2 0 2 C0 1.34 0 0.68 0 0 Z " fill="#FEFEDA" transform="translate(272,1263)"/>
<path d="M0 0 C0.86931152 0.01047363 1.73862305 0.02094727 2.63427734 0.03173828 C3.57529297 0.03818359 4.51630859 0.04462891 5.48583984 0.05126953 C6.47068359 0.06802734 7.45552734 0.08478516 8.47021484 0.10205078 C9.46279297 0.11107422 10.45537109 0.12009766 11.47802734 0.12939453 C13.93399618 0.15300962 16.38948653 0.18594279 18.84521484 0.22705078 C18.84521484 0.88705078 18.84521484 1.54705078 18.84521484 2.22705078 C20.16521484 2.55705078 21.48521484 2.88705078 22.84521484 3.22705078 C13.93521484 2.89705078 5.02521484 2.56705078 -4.15478516 2.22705078 C-2.15478516 0.22705078 -2.15478516 0.22705078 0 0 Z " fill="#FEFCC3" transform="translate(633.15478515625,10.77294921875)"/>
<path d="M0 0 C1 2 1 2 0.28735352 4.61376953 C-0.09493408 5.69255371 -0.47722168 6.77133789 -0.87109375 7.8828125 C-1.28037109 9.04941406 -1.68964844 10.21601562 -2.11132812 11.41796875 C-2.7677832 13.25294922 -2.7677832 13.25294922 -3.4375 15.125 C-3.87126953 16.35605469 -4.30503906 17.58710937 -4.75195312 18.85546875 C-5.82794523 21.90608374 -6.91089634 24.95404643 -8 28 C-9.07174763 24.34811918 -8.76411467 21.73567172 -8 18 C-7.34 18 -6.68 18 -6 18 C-6 16.02 -6 14.04 -6 12 C-5.34 12 -4.68 12 -4 12 C-4 10.02 -4 8.04 -4 6 C-3.34 6 -2.68 6 -2 6 C-1.855625 5.195625 -1.71125 4.39125 -1.5625 3.5625 C-1 1 -1 1 0 0 Z " fill="#FEFBC4" transform="translate(231,976)"/>
<path d="M0 0 C2.22827259 3.34240889 3.24193699 6.63548357 4.375 10.4375 C6.241391 16.59393002 8.23522372 22.68188631 10.3984375 28.7421875 C11 31 11 31 10 33 C7.65547166 30.65547166 7.3073746 29.10275052 6.4375 25.9375 C5.7288742 22.6878857 5.7288742 22.6878857 4 20 C3.95907063 17.66702567 3.95758277 15.33294775 4 13 C3.34 13 2.68 13 2 13 C1.66127487 11.58461283 1.32925376 10.16762037 1 8.75 C0.814375 7.96109375 0.62875 7.1721875 0.4375 6.359375 C0 4 0 4 0 0 Z " fill="#F4DD3D" transform="translate(1029,917)"/>
<path d="M0 0 C0 0.99 0 1.98 0 3 C-0.7425 3.28875 -1.485 3.5775 -2.25 3.875 C-3.1575 4.24625 -4.065 4.6175 -5 5 C-5.721875 5.28875 -6.44375 5.5775 -7.1875 5.875 C-9.14800302 6.85337844 -9.14800302 6.85337844 -9.8125 8.875 C-11.72687956 12.30073185 -14.50071781 13.31284609 -18 15 C-18.66 14.67 -19.32 14.34 -20 14 C-4.96954315 0 -4.96954315 0 0 0 Z " fill="#F5E042" transform="translate(558,84)"/>
<path d="M0 0 C-5.52660506 3.22385295 -11.66491954 4.31675402 -18 4 C-18.33 4.99 -18.66 5.98 -19 7 C-22.63 7.33 -26.26 7.66 -30 8 C-26.01863661 4.01863661 -19.33146882 3.42953669 -14 2 C-13.17757812 1.76796875 -12.35515625 1.5359375 -11.5078125 1.296875 C-7.58639968 0.22878591 -4.06125453 -0.20306273 0 0 Z " fill="#F7E14A" transform="translate(144,406)"/>
<path d="M0 0 C1.17175781 0.26554687 2.34351563 0.53109375 3.55078125 0.8046875 C12.00640105 2.70931721 20.44840858 4.56845606 29 6 C29 6.33 29 6.66 29 7 C18.71110002 7.40348627 8.96443208 6.27319534 0 1 C0 0.67 0 0.34 0 0 Z " fill="#FEFBBE" transform="translate(886,1260)"/>
<path d="M0 0 C-0.1875 1.8125 -0.1875 1.8125 -1 4 C-3.90696599 6.14197494 -5.35521088 7 -9 7 C-9.20625 7.639375 -9.4125 8.27875 -9.625 8.9375 C-11 11 -11 11 -14.125 11.75 C-15.548125 11.87375 -15.548125 11.87375 -17 12 C-14.02196083 8.8667076 -10.86843394 6.29239128 -7.375 3.75 C-6.41335938 3.04359375 -5.45171875 2.3371875 -4.4609375 1.609375 C-2 0 -2 0 0 0 Z " fill="#FEFBD1" transform="translate(1109,750)"/>
<path d="M0 0 C1.0621875 0.55429687 2.124375 1.10859375 3.21875 1.6796875 C4.64561071 2.41189234 6.07270673 3.14363873 7.5 3.875 C8.19609375 4.23980469 8.8921875 4.60460937 9.609375 4.98046875 C14.35020677 7.39478122 18.79501519 8.88632082 24 10 C23.67 10.66 23.34 11.32 23 12 C19.37 11.34 15.74 10.68 12 10 C12 9.34 12 8.68 12 8 C11.01 8 10.02 8 9 8 C9 7.34 9 6.68 9 6 C8.2575 6.0825 7.515 6.165 6.75 6.25 C4 6 4 6 1.6875 4.125 C0 2 0 2 0 0 Z " fill="#F4DA2D" transform="translate(1184,421)"/>
<path d="M0 0 C1.78270527 2.6740579 2.57220467 4.44696793 3.47265625 7.45703125 C3.73240234 8.32263672 3.99214844 9.18824219 4.25976562 10.08007812 C4.52466797 10.98177734 4.78957031 11.88347656 5.0625 12.8125 C5.33126953 13.70259766 5.60003906 14.59269531 5.87695312 15.50976562 C7.20819804 19.98819304 8.37827961 24.356286 9 29 C2.97029211 22.97029211 1.44543198 12.0812788 0 4 C0 2.68 0 1.36 0 0 Z " fill="#F4DB39" transform="translate(786,169)"/>
<path d="M0 0 C0.33 0.66 0.66 1.32 1 2 C0.34 2 -0.32 2 -1 2 C-1.061875 2.61875 -1.12375 3.2375 -1.1875 3.875 C-1.455625 4.57625 -1.72375 5.2775 -2 6 C-3.6476038 6.71247732 -5.31763529 7.37400383 -7 8 C-8.0209375 9.051875 -8.0209375 9.051875 -9.0625 10.125 C-11 12 -11 12 -15 12 C-15 11.34 -15 10.68 -15 10 C-13.2421875 8.6328125 -13.2421875 8.6328125 -10.875 7.125 C-10.05902344 6.5990625 -9.24304688 6.073125 -8.40234375 5.53125 C-7.60957031 5.0259375 -6.81679688 4.520625 -6 4 C-4.81028608 3.21166431 -3.62237064 2.42059659 -2.4375 1.625 C-1.633125 1.08875 -0.82875 0.5525 0 0 Z " fill="#FDF9BE" transform="translate(575,1137)"/>
<path d="M0 0 C0.33 0.66 0.66 1.32 1 2 C1.66 2 2.32 2 3 2 C3.19335938 2.71285156 3.38671875 3.42570313 3.5859375 4.16015625 C3.97652344 5.59681641 3.97652344 5.59681641 4.375 7.0625 C4.64570312 8.06539062 4.91640625 9.06828125 5.1953125 10.1015625 C5.83361418 12.40068799 6.52561999 14.66512982 7.25 16.9375 C8.00123836 20.00505664 7.87795002 21.09649385 7 24 C5.82599412 20.56496228 4.66206791 17.12659286 3.5 13.6875 C3.16613281 12.71103516 2.83226562 11.73457031 2.48828125 10.72851562 C2.17246094 9.79072266 1.85664062 8.85292969 1.53125 7.88671875 C1.23798828 7.02264404 0.94472656 6.15856934 0.64257812 5.26831055 C0 3 0 3 0 0 Z " fill="#FEFAC0" transform="translate(1058,1004)"/>
<path d="M0 0 C2.49326805 2.20238678 3.5446876 3.95199811 4.5 7.125 C4.74363281 7.91648437 4.98726562 8.70796875 5.23828125 9.5234375 C5.48964844 10.34070312 5.74101563 11.15796875 6 12 C6.56124228 13.58377959 7.12370134 15.16712863 7.6875 16.75 C8.76033971 19.9405806 9.32916094 22.59867033 9 26 C7.18752065 23.28128097 6.28924502 21.24172426 5.2734375 18.18359375 C4.9640625 17.25482422 4.6546875 16.32605469 4.3359375 15.36914062 C4.01882813 14.40169922 3.70171875 13.43425781 3.375 12.4375 C3.05015625 11.46619141 2.7253125 10.49488281 2.390625 9.49414062 C0 2.26702009 0 2.26702009 0 0 Z " fill="#FEFBC1" transform="translate(1066,1030)"/>
<path d="M0 0 C4.01734589 1.37737573 6.72741701 3.33026125 10 6 C10.99 6.33 11.98 6.66 13 7 C13 7.66 13 8.32 13 9 C14.65 9.33 16.3 9.66 18 10 C18.33 11.32 18.66 12.64 19 14 C14.73568324 12.56563891 11.80984447 10.44379516 8.375 7.5625 C7.43398438 6.78003906 6.49296875 5.99757813 5.5234375 5.19140625 C3.59615312 3.51771192 1.76400528 1.84095853 0 0 Z " fill="#F6E042" transform="translate(795,1202)"/>
<path d="M0 0 C0.66 0.33 1.32 0.66 2 1 C-1.8991706 6.21317682 -4.93014646 8.70948923 -11 11 C-12.88029239 12.53951047 -12.88029239 12.53951047 -14 14 C-14.99 13.67 -15.98 13.34 -17 13 C-16.52054932 12.64172119 -16.04109863 12.28344238 -15.54711914 11.91430664 C-13.38495777 10.29786735 -11.22371811 8.68020021 -9.0625 7.0625 C-7.93038086 6.21655273 -7.93038086 6.21655273 -6.77539062 5.35351562 C-6.05673828 4.81533203 -5.33808594 4.27714844 -4.59765625 3.72265625 C-3.60004272 2.97640991 -3.60004272 2.97640991 -2.58227539 2.21508789 C-1.04817319 1.09155506 -1.04817319 1.09155506 0 0 Z " fill="#FEF9C5" transform="translate(552,1153)"/>
<path d="M0 0 C1.77216678 6.15365383 -0.43264252 12.64697453 -3.09375 18.33984375 C-4.00343347 19.92854095 -4.99253827 21.47143738 -6 23 C-7.16514544 19.6092579 -6.84338928 17.76880023 -5.56640625 14.453125 C-5.24736328 13.60878906 -4.92832031 12.76445313 -4.59960938 11.89453125 C-4.08624023 10.58548828 -4.08624023 10.58548828 -3.5625 9.25 C-3.22412109 8.36183594 -2.88574219 7.47367188 -2.53710938 6.55859375 C-1.70109106 4.36846127 -0.85514209 2.18272086 0 0 Z " fill="#F6DD3A" transform="translate(243,941)"/>
<path d="M0 0 C2.75252532 7.64590366 -1.51965945 16.73614555 -4 24 C-4.96998805 20.92186992 -4.98169275 18.87526453 -4.2578125 15.7421875 C-4.07863281 14.95199219 -3.89945313 14.16179687 -3.71484375 13.34765625 C-3.52019531 12.53167969 -3.32554687 11.71570312 -3.125 10.875 C-2.84462891 9.63943359 -2.84462891 9.63943359 -2.55859375 8.37890625 C-1.16071429 2.32142857 -1.16071429 2.32142857 0 0 Z " fill="#F4DD3B" transform="translate(201,1070)"/>
<path d="M0 0 C2.92879371 0.62759865 5.36095629 1.58622659 8 3 C8 3.99 8 4.98 8 6 C8.66 6 9.32 6 10 6 C10 6.66 10 7.32 10 8 C10.598125 8.2475 11.19625 8.495 11.8125 8.75 C14.28647521 10.16370012 15.43370255 11.65055383 17 14 C13.5881759 12.46428335 10.85527045 10.45745601 7.9375 8.125 C7.08027344 7.44695313 6.22304687 6.76890625 5.33984375 6.0703125 C3.20064597 4.17753316 1.6062926 2.34887376 0 0 Z " fill="#F7DF44" transform="translate(58,665)"/>
<path d="M0 0 C0.66 0 1.32 0 2 0 C0.56605749 5.91882653 -0.90048636 11.82805394 -2.5625 17.6875 C-2.79066406 18.49574219 -3.01882813 19.30398438 -3.25390625 20.13671875 C-4 22 -4 22 -6 23 C-6.39622401 18.77361053 -5.27688086 15.77921271 -3.734375 11.9375 C-2.87110456 9.65993543 -2.37558749 7.40375992 -2 5 C-1.34 5 -0.68 5 0 5 C0 3.35 0 1.7 0 0 Z " fill="#FFFECD" transform="translate(423,380)"/>
<path d="M0 0 C0.66 0.33 1.32 0.66 2 1 C-0.73617381 4.85091128 -2.63605348 6.36352006 -7 8 C-7.680625 8.721875 -8.36125 9.44375 -9.0625 10.1875 C-10.0215625 11.0846875 -10.0215625 11.0846875 -11 12 C-12.32 11.67 -13.64 11.34 -15 11 C-10.05 7.37 -5.1 3.74 0 0 Z " fill="#FEFAC4" transform="translate(1081,769)"/>
<path d="M0 0 C4.37532426 1.36728883 7.50284597 3.77147455 11.06640625 6.546875 C13.10181378 8.13840177 13.10181378 8.13840177 15.9375 9.6875 C18 11 18 11 19 14 C14.73568324 12.56563891 11.80984447 10.44379516 8.375 7.5625 C7.43398437 6.78003906 6.49296875 5.99757813 5.5234375 5.19140625 C3.59615312 3.51771192 1.76400528 1.84095853 0 0 Z " fill="#F5E049" transform="translate(115,708)"/>
<path d="M0 0 C2.24412872 2.99217162 3.46505924 4.68841446 4.6875 8 C4.93886719 8.66 5.19023438 9.32 5.44921875 10 C6 12 6 12 6 16 C5.34 16 4.68 16 4 16 C4 14.35 4 12.7 4 11 C3.01 11 2.02 11 1 11 C0.67 7.37 0.34 3.74 0 0 Z " fill="#F6DD33" transform="translate(1259,472)"/>
<path d="M0 0 C1.08557892 3.25995807 0.91310151 5.10542427 -0.21484375 8.328125 C-0.48876953 9.12734375 -0.76269531 9.9265625 -1.04492188 10.75 C-1.48674805 11.9875 -1.48674805 11.9875 -1.9375 13.25 C-2.22818359 14.09046875 -2.51886719 14.9309375 -2.81835938 15.796875 C-3.53621233 17.86805731 -4.26366119 19.93533262 -5 22 C-5.33 22 -5.66 22 -6 22 C-5.67 18.7 -5.34 15.4 -5 12 C-4.34 12 -3.68 12 -3 12 C-2.87625 10.948125 -2.7525 9.89625 -2.625 8.8125 C-2.08859218 5.54041229 -1.36119965 2.99463924 0 0 Z " fill="#FEFABD" transform="translate(468,244)"/>
<path d="M0 0 C0.66 0 1.32 0 2 0 C9.00574895 15.01231917 9.00574895 15.01231917 7 22 C5.82828244 18.71010914 4.66348912 15.41780898 3.5 12.125 C3.16613281 11.18785156 2.83226562 10.25070312 2.48828125 9.28515625 C2.17246094 8.38925781 1.85664062 7.49335938 1.53125 6.5703125 C1.23798828 5.74289551 0.94472656 4.91547852 0.64257812 4.06298828 C0 2 0 2 0 0 Z " fill="#FEFCC7" transform="translate(834,316)"/>
<path d="M0 0 C1.20220203 3.53094302 0.79532349 6.12898982 0.0625 9.75 C-0.13214844 10.73484375 -0.32679688 11.7196875 -0.52734375 12.734375 C-0.68332031 13.48203125 -0.83929687 14.2296875 -1 15 C-1.66 15 -2.32 15 -3 15 C-3 15.99 -3 16.98 -3 18 C-4.65 18.66 -6.3 19.32 -8 20 C-7.56042969 19.51015625 -7.12085938 19.0203125 -6.66796875 18.515625 C-4.42020108 15.12554917 -3.44720599 11.63062591 -2.3125 7.75 C-2.08755859 7.00492187 -1.86261719 6.25984375 -1.63085938 5.4921875 C-1.07995041 3.6636386 -0.53897854 1.83210095 0 0 Z " fill="#F8E04C" transform="translate(566,64)"/>
<path d="M0 0 C0.99 0 1.98 0 3 0 C2.81824219 0.58265625 2.63648438 1.1653125 2.44921875 1.765625 C0.39764489 8.45691206 -1.35228894 15.19880965 -3 22 C-3.33 22 -3.66 22 -4 22 C-3.3622098 14.47407567 -1.80110167 7.32901118 0 0 Z " fill="#FEFCC4" transform="translate(201,1062)"/>
<path d="M0 0 C0.33 1.32 0.66 2.64 1 4 C0.34 4 -0.32 4 -1 4 C-1 4.99 -1 5.98 -1 7 C-1.66 7 -2.32 7 -3 7 C-2.938125 8.1446875 -2.938125 8.1446875 -2.875 9.3125 C-3 12 -3 12 -5 15 C-5.66 15 -6.32 15 -7 15 C-7.33 16.32 -7.66 17.64 -8 19 C-8.33 18.34 -8.66 17.68 -9 17 C-8.39501953 15.32006836 -8.39501953 15.32006836 -7.3828125 13.33984375 C-6.84333984 12.2734668 -6.84333984 12.2734668 -6.29296875 11.18554688 C-5.90753906 10.44369141 -5.52210938 9.70183594 -5.125 8.9375 C-4.74730469 8.19177734 -4.36960937 7.44605469 -3.98046875 6.67773438 C-1.16810645 1.16810645 -1.16810645 1.16810645 0 0 Z " fill="#F6DC39" transform="translate(508,136)"/>
<path d="M0 0 C0.609375 1.86328125 0.609375 1.86328125 1 4 C-1.21867135 6.77333918 -2.60620325 7.86873442 -6 9 C-6.33 9.99 -6.66 10.98 -7 12 C-7.99 12 -8.98 12 -10 12 C-8.52278578 8.54798361 -6.56205999 6.35038064 -3.875 3.75 C-3.15054688 3.04359375 -2.42609375 2.3371875 -1.6796875 1.609375 C-1.12539063 1.07828125 -0.57109375 0.5471875 0 0 Z " fill="#F6DF36" transform="translate(532,104)"/>
<path d="M0 0 C1.79244141 0.01740234 1.79244141 0.01740234 3.62109375 0.03515625 C5.41740234 0.04869141 5.41740234 0.04869141 7.25 0.0625 C8.17683594 0.07410156 9.10367188 0.08570313 10.05859375 0.09765625 C10.05859375 0.42765625 10.05859375 0.75765625 10.05859375 1.09765625 C9.48753906 1.13503906 8.91648438 1.17242187 8.328125 1.2109375 C1.97289132 1.72622672 -3.98695126 2.97123052 -10.15625 4.57421875 C-12.94140625 5.09765625 -12.94140625 5.09765625 -15.94140625 4.09765625 C-15.08675781 3.89269531 -14.23210937 3.68773437 -13.3515625 3.4765625 C-12.24683594 3.20714844 -11.14210938 2.93773437 -10.00390625 2.66015625 C-8.35068359 2.25990234 -8.35068359 2.25990234 -6.6640625 1.8515625 C-3.46141304 0.96474565 -3.37724155 0.11212621 0 0 Z " fill="#FFFDCD" transform="translate(137.94140625,404.90234375)"/>
<path d="M0 0 C0.556875 0.721875 1.11375 1.44375 1.6875 2.1875 C3.97909334 4.97457299 6.41459857 7.48641528 9 10 C6.36 10 3.72 10 1 10 C-0.04005702 6.61981469 -0.08004482 3.5219721 0 0 Z " fill="#EDD321" transform="translate(716,76)"/>
<path d="M0 0 C1.12706462 3.38119385 0.9031254 3.88804695 -0.3125 7.0625 C-2.0696465 11.96316546 -3.09183813 16.88224075 -4 22 C-4.33 22 -4.66 22 -5 22 C-5.22648069 14.86585832 -5.31042708 7.64336578 -1.375 1.4375 C-0.92125 0.963125 -0.4675 0.48875 0 0 Z " fill="#FEFABF" transform="translate(18,474)"/>
<path d="M0 0 C2.06326977 0.08760589 4.1256716 0.19579273 6.1875 0.3125 C7.91033203 0.39951172 7.91033203 0.39951172 9.66796875 0.48828125 C13.17035341 1.02616213 15.19576551 1.86117708 18 4 C18 4.66 18 5.32 18 6 C17.05640625 5.70996094 17.05640625 5.70996094 16.09375 5.4140625 C10.75783615 3.7907875 5.42240732 2.30539435 0 1 C0 0.67 0 0.34 0 0 Z " fill="#FDF8BB" transform="translate(1205,430)"/>
<path d="M0 0 C1.65 0 3.3 0 5 0 C1.98197997 2.48291009 -0.89683437 3.91340355 -4.5625 5.25 C-5.51253906 5.60578125 -6.46257812 5.9615625 -7.44140625 6.328125 C-10 7 -10 7 -13 6 C-9.91190305 4.23537317 -8.76687864 4 -5 4 C-5 3.34 -5 2.68 -5 2 C-3.35 2 -1.7 2 0 2 C0 1.34 0 0.68 0 0 Z " fill="#F5DC39" transform="translate(405,1253)"/>
<path d="M0 0 C0.66 0 1.32 0 2 0 C4.30844801 6.34823202 4.19818283 12.29481414 4 19 C3.67 19 3.34 19 3 19 C2.49666458 16.39643759 1.99720622 13.79223349 1.5 11.1875 C1.35691406 10.44951172 1.21382812 9.71152344 1.06640625 8.95117188 C0.49073719 5.92205609 0 3.090804 0 0 Z " fill="#FFFBC7" transform="translate(1081,1075)"/>
<path d="M0 0 C0.33 0 0.66 0 1 0 C1.19622241 4.21878192 0.80230168 7.17010894 -1 11 C-1.66 11 -2.32 11 -3 11 C-3.33 12.65 -3.66 14.3 -4 16 C-4.66 16 -5.32 16 -6 16 C-4.25192871 10.53262809 -2.34205919 5.24175152 0 0 Z " fill="#FEF9C2" transform="translate(1256,613)"/>
<path d="M0 0 C1.68550367 3.37100733 -0.31136964 6.72014632 -1.4375 10.125 C-1.68048828 10.87910156 -1.92347656 11.63320313 -2.17382812 12.41015625 C-2.77595819 14.27557879 -3.38713463 16.13807683 -4 18 C-4.33 18 -4.66 18 -5 18 C-5 15.69 -5 13.38 -5 11 C-4.34 11 -3.68 11 -3 11 C-3 8.69 -3 6.38 -3 4 C-2.34 4 -1.68 4 -1 4 C-0.67 2.68 -0.34 1.36 0 0 Z " fill="#FFFDCC" transform="translate(220,1008)"/>
<path d="M0 0 C0.33 0 0.66 0 1 0 C2.58444052 6.39014027 3.20287276 11.50448709 2 18 C-0.45391569 14.31912647 -0.22802759 11.55644412 -0.125 7.3125 C-0.11597656 6.61060547 -0.10695313 5.90871094 -0.09765625 5.18554688 C-0.07413704 3.45688475 -0.03826713 1.72839855 0 0 Z " fill="#352804" transform="translate(13,515)"/>
<path d="M0 0 C2.11434065 3.17151097 3.01955937 5.86432861 4.125 9.5 C4.47820313 10.6446875 4.83140625 11.789375 5.1953125 12.96875 C6 16 6 16 6 19 C5.34 19 4.68 19 4 19 C3.32713788 16.58490559 2.66153988 14.16819644 2 11.75 C1.71382812 10.72712891 1.71382812 10.72712891 1.421875 9.68359375 C0.50042956 6.29399088 0 3.54221024 0 0 Z " fill="#F6DD34" transform="translate(801,216)"/>
<path d="M0 0 C0.66 0.33 1.32 0.66 2 1 C-5.25 8.25 -5.25 8.25 -11 9 C-7.67149253 5.40521193 -4.01028669 2.77635232 0 0 Z " fill="#FEF7BA" transform="translate(533,1167)"/>
<path d="M0 0 C0.33 0 0.66 0 1 0 C1.35175879 10.37688442 1.35175879 10.37688442 -2.625 14.8125 C-3.07875 15.204375 -3.5325 15.59625 -4 16 C-3.27275406 10.47293087 -1.66554027 5.30039859 0 0 Z " fill="#F4DC26" transform="translate(206,1054)"/>
<path d="M0 0 C0.66 0 1.32 0 2 0 C0.74459653 3.24312562 -0.60712439 6.4390569 -2 9.625 C-2.33 10.38039063 -2.66 11.13578125 -3 11.9140625 C-4 14 -4 14 -6 17 C-6 15.02 -6 13.04 -6 11 C-5.34 11 -4.68 11 -4 11 C-4.0928125 9.8553125 -4.0928125 9.8553125 -4.1875 8.6875 C-3.96487909 5.49660032 -3.31697562 5.03893855 -1 3 C-0.67 2.01 -0.34 1.02 0 0 Z " fill="#FEFDCE" transform="translate(571,50)"/>
<path d="M0 0 C0.66 0 1.32 0 2 0 C3.76462683 3.08809695 4 4.23312136 4 8 C4.66 8 5.32 8 6 8 C8.125 12.625 8.125 12.625 7 16 C3.88535757 10.75741484 1.39331247 5.95324421 0 0 Z " fill="#F5DE3B" transform="translate(205,1171)"/>
<path d="M0 0 C0.33 0.66 0.66 1.32 1 2 C0.34 2 -0.32 2 -1 2 C-1.33 3.32 -1.66 4.64 -2 6 C-3.32 6 -4.64 6 -6 6 C-6 6.66 -6 7.32 -6 8 C-7.65 8.33 -9.3 8.66 -11 9 C-7.56638098 5.36440339 -4.2026393 2.63886654 0 0 Z " fill="#FEF8C0" transform="translate(1065,781)"/>
<path d="M0 0 C0 3.66184524 -0.919642 5.02806 -3 8 C-5.1875 9.8125 -5.1875 9.8125 -7 11 C-7.66 10.67 -8.32 10.34 -9 10 C-7.8758824 8.70756532 -6.75067408 7.41607925 -5.625 6.125 C-4.99851562 5.40570312 -4.37203125 4.68640625 -3.7265625 3.9453125 C-2.52573166 2.5923402 -1.2791655 1.2791655 0 0 Z " fill="#FEFAC8" transform="translate(1232,654)"/>
<path d="M0 0 C13.6332574 -0.3690205 13.6332574 -0.3690205 20 2 C20 2.33 20 2.66 20 3 C13.06697907 3.22731216 6.7831364 2.42002108 0 1 C0 0.67 0 0.34 0 0 Z " fill="#FEFDD5" transform="translate(1120,403)"/>
<path d="M0 0 C0.33 0.66 0.66 1.32 1 2 C0.14453125 4.09375 0.14453125 4.09375 -1.1875 6.5 C-1.61417969 7.2940625 -2.04085937 8.088125 -2.48046875 8.90625 C-4.13704667 11.18883551 -5.40664227 11.97820595 -8 13 C-6.40956621 7.91061189 -3.2553049 4.12543357 0 0 Z " fill="#F6DE3D" transform="translate(521,116)"/>
<path d="M0 0 C0 0.99 0 1.98 0 3 C-0.99 3 -1.98 3 -3 3 C-3.20625 3.639375 -3.4125 4.27875 -3.625 4.9375 C-5 7 -5 7 -8.125 7.75 C-9.548125 7.87375 -9.548125 7.87375 -11 8 C-9.71034824 6.62437146 -8.37310707 5.29233607 -7 4 C-6.34 4 -5.68 4 -5 4 C-5 3.34 -5 2.68 -5 2 C-2 0 -2 0 0 0 Z " fill="#FEFAC6" transform="translate(1208,678)"/>
<path d="M0 0 C0.33 0 0.66 0 1 0 C0.91304042 2.60578866 0.80618592 5.2081279 0.6875 7.8125 C0.66494141 8.55048828 0.64238281 9.28847656 0.61914062 10.04882812 C0.3453392 15.54974762 0.3453392 15.54974762 -1.54296875 18.01171875 C-2.26419922 18.50091797 -2.26419922 18.50091797 -3 19 C-2.27637073 12.60794144 -1.19656638 6.31972924 0 0 Z " fill="#FEFCBE" transform="translate(1265,581)"/>
<path d="M0 0 C0.33 0 0.66 0 1 0 C1.3690205 9.41002278 1.3690205 9.41002278 -1 14 C-1.33 14 -1.66 14 -2 14 C-2.33 11.03 -2.66 8.06 -3 5 C-2.34 4.67 -1.68 4.34 -1 4 C-0.34786708 1.97536745 -0.34786708 1.97536745 0 0 Z " fill="#D9C22C" transform="translate(16,525)"/>
<path d="M0 0 C2.57833439 2.57833439 3.3761471 5.10325781 4.6875 8.5 C5.14511719 9.6653125 5.60273437 10.830625 6.07421875 12.03125 C7 15 7 15 6 17 C2.40476401 11.26884891 0.37035409 6.78982507 0 0 Z " fill="#F6DE3F" transform="translate(778,148)"/>
<path d="M0 0 C0.33 0.66 0.66 1.32 1 2 C-1.10515339 5.72450216 -2.24267224 7.6795921 -6.25 9.375 C-7.61125 9.684375 -7.61125 9.684375 -9 10 C-8.06409496 8.8944811 -7.12620142 7.79064547 -6.1875 6.6875 C-5.66542969 6.07261719 -5.14335938 5.45773438 -4.60546875 4.82421875 C-3.12827531 3.14575321 -1.59960869 1.56117966 0 0 Z " fill="#F6DE33" transform="translate(591,29)"/>
<path d="M0 0 C0.33 1.32 0.66 2.64 1 4 C0.34 4 -0.32 4 -1 4 C-1.103125 4.639375 -1.20625 5.27875 -1.3125 5.9375 C-1.539375 6.618125 -1.76625 7.29875 -2 8 C-2.99 8.33 -3.98 8.66 -5 9 C-5 9.66 -5 10.32 -5 11 C-5.66 10.67 -6.32 10.34 -7 10 C-3.535 5.05 -3.535 5.05 0 0 Z " fill="#FEF7B6" transform="translate(1044,1231)"/>
<path d="M0 0 C3.29143365 2.97581672 4.02788258 5.66286075 5 10 C5.125 12.9375 5.125 12.9375 5 15 C2.26094663 11.84821256 1.44730607 9.35182386 0.8125 5.25 C0.65394531 4.26515625 0.49539062 3.2803125 0.33203125 2.265625 C0.22246094 1.51796875 0.11289063 0.7703125 0 0 Z " fill="#F5DC32" transform="translate(224,1205)"/>
<path d="M0 0 C2.125 0.375 2.125 0.375 4 1 C1.62949916 3.62002725 -0.87276017 5.35819909 -4 7 C-4.99 7 -5.98 7 -7 7 C-4.66666667 4.66666667 -2.33333333 2.33333333 0 0 Z " fill="#FEFAD1" transform="translate(621,1103)"/>
<path d="M0 0 C0.66 1.32 1.32 2.64 2 4 C-0.64 6.31 -3.28 8.62 -6 11 C-6 7.39426104 -5.18292538 6.58663434 -3 3.8125 C-2.443125 3.09707031 -1.88625 2.38164063 -1.3125 1.64453125 C-0.879375 1.10183594 -0.44625 0.55914063 0 0 Z " fill="#FCF6AD" transform="translate(1240,643)"/>
<path d="M0 0 C-0.33 0.66 -0.66 1.32 -1 2 C-2.32 2 -3.64 2 -5 2 C-5 2.66 -5 3.32 -5 4 C-8 6 -8 6 -10.1875 5.625 C-10.785625 5.41875 -11.38375 5.2125 -12 5 C-3.89473684 -1.94736842 -3.89473684 -1.94736842 0 0 Z " fill="#F8DC33" transform="translate(58,437)"/>
<path d="M0 0 C2.475 0.495 2.475 0.495 5 1 C5 1.66 5 2.32 5 3 C5.99 3 6.98 3 8 3 C9.6875 5.5 9.6875 5.5 11 8 C6.40378078 6.5129879 3.53027653 4.20187872 0 1 C0 0.67 0 0.34 0 0 Z " fill="#F7DD38" transform="translate(195,766)"/>
<path d="M0 0 C2.73961599 1.369808 3.27531568 3.3370115 4.40234375 6.078125 C5.23605798 8.7590884 5.20345414 11.21946008 5 14 C2.42924159 10.98552165 1.47792934 8.64020229 0.8125 4.75 C0.65394531 3.85796875 0.49539063 2.9659375 0.33203125 2.046875 C0.22246094 1.37140625 0.11289062 0.6959375 0 0 Z " fill="#FEFABF" transform="translate(850,364)"/>
<path d="M0 0 C1.0326802 2.78823655 1.04509293 3.8677274 0.0625 6.75 C-0.288125 7.4925 -0.63875 8.235 -1 9 C-1.66 9 -2.32 9 -3 9 C-3 9.99 -3 10.98 -3 12 C-3.66 12 -4.32 12 -5 12 C-3.85814266 7.52040582 -2.56984833 3.85477249 0 0 Z " fill="#F6DE3B" transform="translate(572,52)"/>
<path d="M0 0 C0.66 0.33 1.32 0.66 2 1 C0.68 1.33 -0.64 1.66 -2 2 C-2 2.66 -2 3.32 -2 4 C-5.44450737 6.29633824 -7.93812283 6.54016485 -12 7 C-10.54312306 4.08624612 -8.49246097 3.64222221 -5.5625 2.3125 C-4.57378906 1.85488281 -3.58507812 1.39726563 -2.56640625 0.92578125 C-1.29603516 0.46751953 -1.29603516 0.46751953 0 0 Z " fill="#FEF9B6" transform="translate(414,1251)"/>
<path d="M0 0 C2.57146057 2.57146057 2.80117997 4.6050417 3.625 8.125 C3.88539063 9.22070312 4.14578125 10.31640625 4.4140625 11.4453125 C4.70410156 12.70988281 4.70410156 12.70988281 5 14 C2.53303195 11.88827535 1.14881742 10.62961216 0.390625 7.421875 C0.34421875 6.54015625 0.2978125 5.6584375 0.25 4.75 C0.19328125 3.85796875 0.1365625 2.9659375 0.078125 2.046875 C0.05234375 1.37140625 0.0265625 0.6959375 0 0 Z " fill="#FEF8B5" transform="translate(198,1152)"/>
<path d="M0 0 C0.66 0 1.32 0 2 0 C4.66590937 4.55426184 5.31563182 7.73946963 5 13 C3.09610151 10.14415227 2.30537823 8.0688238 1.375 4.8125 C0.98441406 3.46091797 0.98441406 3.46091797 0.5859375 2.08203125 C0.39257812 1.39496094 0.19921875 0.70789063 0 0 Z " fill="#FDFBBE" transform="translate(806,230)"/>
<path d="M0 0 C0.66 0.33 1.32 0.66 2 1 C-2.75 5.875 -2.75 5.875 -5 7 C-5.66 6.34 -6.32 5.68 -7 5 C-4.69 3.35 -2.38 1.7 0 0 Z " fill="#FDF7B5" transform="translate(452,1226)"/>
<path d="M0 0 C1.72274487 2.58411731 2.68895522 4.54902656 3.6875 7.4375 C3.95949219 8.19933594 4.23148438 8.96117187 4.51171875 9.74609375 C5.04729142 12.21829721 4.80445309 13.62983284 4 16 C2.14353999 13.21530998 1.54842185 11.7318584 0.875 8.5625 C0.70742188 7.80066406 0.53984375 7.03882813 0.3671875 6.25390625 C0 4 0 4 0 0 Z " fill="#F7DA35" transform="translate(1007,850)"/>
<path d="M0 0 C0.66 0.33 1.32 0.66 2 1 C0.6875 3 0.6875 3 -1 5 C-1.99 5 -2.98 5 -4 5 C-4 5.66 -4 6.32 -4 7 C-5.32 6.67 -6.64 6.34 -8 6 C-5.36 4.02 -2.72 2.04 0 0 Z " fill="#FEFAC5" transform="translate(1132,732)"/>
<path d="M0 0 C2 3 2 3 1.625 5.1875 C1.41875 5.785625 1.2125 6.38375 1 7 C0.34 7 -0.32 7 -1 7 C-1.66 8.32 -2.32 9.64 -3 11 C-2.44894091 7.0507432 -1.61064629 3.65079826 0 0 Z " fill="#F6DA2D" transform="translate(498,157)"/>
<path d="M0 0 C-1.36983503 3.16115776 -1.9890638 3.9927092 -5 6 C-7.1875 5.625 -7.1875 5.625 -9 5 C-7.87926138 4.16094435 -6.75325453 3.32892169 -5.625 2.5 C-4.99851562 2.0359375 -4.37203125 1.571875 -3.7265625 1.09375 C-2 0 -2 0 0 0 Z " fill="#F7DD39" transform="translate(602,23)"/>
<path d="M0 0 C3.63 2.31 7.26 4.62 11 7 C8 8 8 8 5 7 C2.3125 4.5625 2.3125 4.5625 0 2 C0 1.34 0 0.68 0 0 Z " fill="#FFFBC9" transform="translate(678,1118)"/>
<path d="M0 0 C0.33 0 0.66 0 1 0 C1 3.63 1 7.26 1 11 C0.01 10.34 -0.98 9.68 -2 9 C-2.43132515 4.94554358 -2.30019361 3.45029042 0 0 Z " fill="#B4A541" transform="translate(1267,514)"/>
<path d="M0 0 C1.60156595 4.00391487 0.4087561 7.07031192 -1 11 C-1.99 11.495 -1.99 11.495 -3 12 C-2.49202991 7.6822542 -1.80317221 3.96697886 0 0 Z " fill="#F7DC3B" transform="translate(483,202)"/>
<path d="M0 0 C0 0.99 0 1.98 0 3 C-1.6796875 4.421875 -1.6796875 4.421875 -3.875 5.75 C-4.59429688 6.19859375 -5.31359375 6.6471875 -6.0546875 7.109375 C-6.69664062 7.40328125 -7.33859375 7.6971875 -8 8 C-8.66 7.67 -9.32 7.34 -10 7 C-7.21098485 3.90109428 -4.92211279 2.37803963 -1 1 C-0.67 0.67 -0.34 0.34 0 0 Z " fill="#F7DF32" transform="translate(548,91)"/>
<path d="M0 0 C1.61725534 3.00950123 2.67582623 5.97103608 3.625 9.25 C3.88539063 10.14203125 4.14578125 11.0340625 4.4140625 11.953125 C4.60742188 12.62859375 4.80078125 13.3040625 5 14 C1.86777869 12.43388934 1.29677335 10.18298914 0 7 C-0.1875 3.125 -0.1875 3.125 0 0 Z " fill="#F6E048" transform="translate(1017,880)"/>
<path d="M0 0 C-2.31 1.65 -4.62 3.3 -7 5 C-7.66 3.68 -8.32 2.36 -9 1 C-2.25 -1.125 -2.25 -1.125 0 0 Z " fill="#F6DC22" transform="translate(1081,770)"/>
<path d="M0 0 C0.66 0.33 1.32 0.66 2 1 C-0.77079887 4.80984844 -4.62868145 5.06840752 -9 6 C-6.45368965 3.02930459 -3.57769851 1.5224249 0 0 Z " fill="#F6DE39" transform="translate(92,423)"/>
<path d="M0 0 C1.61725534 3.00950123 2.67582623 5.97103608 3.625 9.25 C3.88539063 10.14203125 4.14578125 11.0340625 4.4140625 11.953125 C4.60742188 12.62859375 4.80078125 13.3040625 5 14 C1.86777869 12.43388934 1.29677335 10.18298914 0 7 C-0.1875 3.125 -0.1875 3.125 0 0 Z " fill="#F6DB35" transform="translate(825,290)"/>
<path d="M0 0 C0.33 1.32 0.66 2.64 1 4 C0.01 4.33 -0.98 4.66 -2 5 C-3.22520264 8.00847418 -3.22520264 8.00847418 -4 11 C-4.66 11 -5.32 11 -6 11 C-4.54955729 6.89041233 -2.48889248 3.56741255 0 0 Z " fill="#F8DD43" transform="translate(579,41)"/>
<path d="M0 0 C1.90318884 2.85478326 2.4619099 4.41941308 3.125 7.6875 C3.29257812 8.49574219 3.46015625 9.30398438 3.6328125 10.13671875 C3.75398437 10.75160156 3.87515625 11.36648438 4 12 C2 10.5 2 10.5 0 8 C-0.35800135 5.24128373 -0.18660165 2.79902476 0 0 Z " fill="#F7DD36" transform="translate(1003,837)"/>
<path d="M0 0 C3.73487777 0.4979837 5.81237635 0.87491756 9 3 C6.03 3 3.06 3 0 3 C0 2.01 0 1.02 0 0 Z " fill="#F9DE40" transform="translate(1148,408)"/>
<path d="M0 0 C0.66 0.33 1.32 0.66 2 1 C0.35 3.64 -1.3 6.28 -3 9 C-4 5 -4 5 -3 2 C-2.01 2 -1.02 2 0 2 C0 1.34 0 0.68 0 0 Z " fill="#FEFDD7" transform="translate(577,41)"/>
<path d="M0 0 C0.33 0 0.66 0 1 0 C1.36923077 6.4 1.36923077 6.4 -0.5 9.4375 C-0.995 9.953125 -1.49 10.46875 -2 11 C-1.85892253 9.54119891 -1.71197585 8.08296449 -1.5625 6.625 C-1.48128906 5.81289062 -1.40007812 5.00078125 -1.31640625 4.1640625 C-1 2 -1 2 0 0 Z " fill="#F7DB2F" transform="translate(214,1030)"/>
<path d="M0 0 C0.66 0.33 1.32 0.66 2 1 C0.29374499 3.78388975 -0.47626739 4.85384206 -3.6875 5.75 C-4.8321875 5.87375 -4.8321875 5.87375 -6 6 C-6 5.34 -6 4.68 -6 4 C-4.03852126 2.61061923 -2.03833424 1.2739589 0 0 Z " fill="#FEF9BD" transform="translate(1030,806)"/>
<path d="M0 0 C0.66 0.33 1.32 0.66 2 1 C0.875 2.9375 0.875 2.9375 -1 5 C-4.1875 5.75 -4.1875 5.75 -7 6 C-4.74259377 3.66475218 -2.7194239 1.81294927 0 0 Z " fill="#FDF9BB" transform="translate(1099,756)"/>
<path d="M0 0 C6.625 0.75 6.625 0.75 10 3 C2.25 3.125 2.25 3.125 0 2 C0 1.34 0 0.68 0 0 Z " fill="#FEFDD8" transform="translate(1198,427)"/>
<path d="M0 0 C-0.6875 1.9375 -0.6875 1.9375 -2 4 C-4.625 4.75 -4.625 4.75 -7 5 C-2.25 0 -2.25 0 0 0 Z " fill="#FEF8BD" transform="translate(593,1125)"/>
<path d="M0 0 C0 0.99 0 1.98 0 3 C-3 5 -3 5 -5.1875 4.625 C-5.785625 4.41875 -6.38375 4.2125 -7 4 C-2.25 0 -2.25 0 0 0 Z " fill="#FEFAC3" transform="translate(1054,790)"/>
<path d="M0 0 C0 0.99 0 1.98 0 3 C-1.96466413 4.06775224 -3.96855359 5.06553465 -6 6 C-6.66 5.67 -7.32 5.34 -8 5 C-2.25 0 -2.25 0 0 0 Z " fill="#FEFBC2" transform="translate(1167,708)"/>
<path d="M0 0 C3.91402949 1.26941497 5.79072873 2.51167694 8 6 C7.236875 5.690625 6.47375 5.38125 5.6875 5.0625 C3.81210323 4.32106407 1.91315348 3.63771783 0 3 C0 2.01 0 1.02 0 0 Z " fill="#FEFAC6" transform="translate(83,686)"/>
<path d="M0 0 C3.53372712 1.96318174 6.24479785 4.04070881 9 7 C6.0625 6.1875 6.0625 6.1875 3 5 C2.67 4.01 2.34 3.02 2 2 C1.34 2 0.68 2 0 2 C0 1.34 0 0.68 0 0 Z " fill="#FEFBBF" transform="translate(74,679)"/>
<path d="M0 0 C0.99 0.66 1.98 1.32 3 2 C1.35 3.98 -0.3 5.96 -2 8 C-2.33 6.68 -2.66 5.36 -3 4 C-2.01 3.67 -1.02 3.34 0 3 C0 2.01 0 1.02 0 0 Z " fill="#F7DD25" transform="translate(1228,654)"/>
<path d="M0 0 C1.32 0 2.64 0 4 0 C4.66 2.31 5.32 4.62 6 7 C1.125 3.375 1.125 3.375 0 0 Z " fill="#F6DA28" transform="translate(47,652)"/>
<path d="M0 0 C0.66 0 1.32 0 2 0 C1.71872579 1.48117801 1.42466268 2.95993249 1.125 4.4375 C0.96257812 5.26121094 0.80015625 6.08492188 0.6328125 6.93359375 C0.31957031 7.95646484 0.31957031 7.95646484 0 9 C-0.99 9.495 -0.99 9.495 -2 10 C-2.22036864 6.14354879 -1.60355101 3.50776784 0 0 Z " fill="#FEFBC0" transform="translate(419,393)"/>
<path d="M0 0 C1.485 0.99 1.485 0.99 3 2 C3.1875 4.625 3.1875 4.625 3 7 C3.66 7.33 4.32 7.66 5 8 C4.34 8.66 3.68 9.32 3 10 C0 3.375 0 3.375 0 0 Z " fill="#FEFBC5" transform="translate(780,150)"/>
<path d="M0 0 C1 2 1 2 0.875 3.9375 C-0.3582873 6.84453436 -2.25745971 7.59356908 -5 9 C-3.7508258 5.54074837 -2.32472205 2.85306797 0 0 Z " fill="#FDF9B6" transform="translate(1059,1201)"/>
<path d="M0 0 C2.875 0.1875 2.875 0.1875 6 1 C7.375 3.5625 7.375 3.5625 8 6 C4.63408134 4.55746343 2.48952921 2.66735273 0 0 Z " fill="#F5DC35" transform="translate(674,1114)"/>
<path d="M0 0 C6.875 3.75 6.875 3.75 8 6 C5.03 5.505 5.03 5.505 2 5 C2 4.01 2 3.02 2 2 C1.34 2 0.68 2 0 2 C0 1.34 0 0.68 0 0 Z " fill="#FEFBC5" transform="translate(649,1097)"/>
<path d="M0 0 C1 2 1 2 0.44140625 3.9453125 C0.15136719 4.66460938 -0.13867188 5.38390625 -0.4375 6.125 C-0.72496094 6.84945313 -1.01242188 7.57390625 -1.30859375 8.3203125 C-1.53675781 8.87460938 -1.76492187 9.42890625 -2 10 C-2.33 10 -2.66 10 -3 10 C-3.36923077 3.47692308 -3.36923077 3.47692308 -1.5 1.0625 C-1.005 0.711875 -0.51 0.36125 0 0 Z " fill="#FEFDC4" transform="translate(214,1028)"/>
<path d="M0 0 C0.66 0.33 1.32 0.66 2 1 C1.01 2.32 0.02 3.64 -1 5 C-2.32 4.67 -3.64 4.34 -5 4 C-3.35 2.68 -1.7 1.36 0 0 Z " fill="#FEF9C2" transform="translate(1022,812)"/>
<path d="M0 0 C-5.75 4 -5.75 4 -8 4 C-8 3.01 -8 2.02 -8 1 C-3.375 -1.125 -3.375 -1.125 0 0 Z " fill="#F3DD2C" transform="translate(1203,682)"/>
<path d="M0 0 C1.10191901 4.40767604 0.58706842 5.8922935 -1 10 C-1.66 10 -2.32 10 -3 10 C-2.01 6.7 -1.02 3.4 0 0 Z " fill="#F4DF47" transform="translate(425,380)"/>
<path d="M0 0 C0.99 0 1.98 0 3 0 C2.01 3.3 1.02 6.6 0 10 C-1.231394 6.30581799 -0.64432764 3.7943739 0 0 Z " fill="#FDF7B4" transform="translate(437,336)"/>
</svg>
