<?xml version="1.0" encoding="UTF-8"?>
<svg version="1.1" xmlns="http://www.w3.org/2000/svg" width="2000" height="1341">
<path d="M0 0 C1.38841788 -0.00702278 2.77683543 -0.0141096 4.16525269 -0.02125549 C8.57241284 -0.0406353 12.97952028 -0.04568884 17.38671875 -0.046875 C18.13725651 -0.04731686 18.88779427 -0.04775871 19.66107559 -0.04821396 C41.93430765 -0.05509191 63.96258219 0.16010305 86.07421875 3.203125 C87.38003906 3.37473145 88.68585937 3.54633789 90.03125 3.72314453 C152.29046456 11.9971256 213.89726658 31.99648289 265.07421875 69.203125 C265.73760254 69.68249512 266.40098633 70.16186523 267.08447266 70.65576172 C276.81789249 77.72000253 286.08966381 85.21054709 295.07421875 93.203125 C295.58404297 93.65510254 296.09386719 94.10708008 296.61914062 94.57275391 C302.71761756 100.00309471 308.59779193 105.63406438 314.38671875 111.390625 C314.94939453 111.94862793 315.51207031 112.50663086 316.09179688 113.08154297 C356.08031944 153.22314291 385.10238032 205.21367996 404.07421875 258.203125 C404.42291016 259.16686035 404.77160156 260.1305957 405.13085938 261.12353516 C422.69295598 310.10768127 431.76507358 362.36555863 435.07421875 414.203125 C435.20340698 415.98843628 435.20340698 415.98843628 435.33520508 417.80981445 C436.360175 433.20962626 436.26158487 448.64146435 436.25952148 464.06762695 C436.25944081 467.25974261 436.26630361 470.45171296 436.2800293 473.64379883 C436.39645435 501.18944191 435.48504146 528.5638212 432.32421875 555.953125 C432.24151733 556.67951172 432.15881592 557.40589844 432.0736084 558.15429688 C420.78636068 656.48530822 387.68555159 752.51588301 322.07421875 844.203125 C321.63658203 844.78852051 321.19894531 845.37391602 320.74804688 845.97705078 C311.68365023 858.04995037 302.25137831 869.93877083 292.03515625 881.05859375 C290.25129141 883.00947383 288.53469081 885.00060548 286.82421875 887.015625 C283.00732774 891.41627582 278.85419339 895.47683749 274.69238281 899.5480957 C271.57312683 902.61829208 268.80360284 905.7740471 266.07421875 909.203125 C264.83513896 910.36300587 263.5644908 911.49027054 262.26171875 912.578125 C259.63690723 914.81693482 257.15434955 917.09346994 254.76171875 919.578125 C251.13267504 923.26438336 247.17307077 926.45711316 243.14453125 929.6953125 C240.42384827 931.91754974 237.76855319 934.19159644 235.1237793 936.50219727 C219.7819594 949.86887914 203.06720188 961.05892915 186.07421875 972.203125 C187.76897285 975.8567073 189.69522938 977.87177582 192.76171875 980.515625 C195.78467497 983.16287095 198.72853567 985.80510184 201.51171875 988.703125 C205.09792701 992.3477134 209.02643517 995.49786637 213.0078125 998.69921875 C215.70914281 1000.90501841 218.34771717 1003.16047756 220.9753418 1005.45214844 C256.2144867 1036.13480852 296.3857715 1061.35214036 338.07421875 1082.203125 C338.91049805 1082.62787109 339.74677734 1083.05261719 340.60839844 1083.49023438 C380.73615247 1103.81799777 425.56849768 1117.37788813 470.07421875 1123.203125 C470.93337891 1123.32026855 471.79253906 1123.43741211 472.67773438 1123.55810547 C498.15731941 1126.89944622 525.63837945 1126.84283611 551.07421875 1123.203125 C551.87424316 1123.10080566 552.67426758 1122.99848633 553.49853516 1122.89306641 C572.33518803 1120.43323413 590.58746741 1114.9879347 608.84408569 1109.89129639 C625.16192576 1105.36204595 625.16192576 1105.36204595 632.26171875 1108.703125 C646.58532027 1121.43521524 650.69507235 1144.82077518 652.07421875 1163.203125 C653.50131552 1195.13869649 649.14557713 1227.86954392 627.3046875 1252.79296875 C626.20060547 1253.98599609 626.20060547 1253.98599609 625.07421875 1255.203125 C624.38972656 1255.96753906 623.70523437 1256.73195313 623 1257.51953125 C594.47856837 1287.83343732 547.14332017 1300.72084662 507.07421875 1305.203125 C506.25308594 1305.2973877 505.43195312 1305.39165039 504.5859375 1305.48876953 C494.31813351 1306.50789283 484.00723696 1306.44683956 473.69921875 1306.453125 C472.70278351 1306.45379974 471.70634827 1306.45447449 470.67971802 1306.45516968 C383.84423297 1306.36215991 301.21872167 1274.15097604 231.89111328 1222.54882812 C229.79509934 1220.9963921 227.6831802 1219.46691457 225.5703125 1217.9375 C215.73124848 1210.78941949 206.16731338 1203.38452804 196.80224609 1195.62695312 C195.24335435 1194.34248623 193.66941436 1193.07633563 192.09375 1191.8125 C186.46399474 1187.2956978 181.10133332 1182.56185802 175.83911133 1177.62670898 C173.14314128 1175.09888675 170.41593741 1172.63534019 167.60253906 1170.23852539 C161.94719269 1165.29730454 156.68444824 1159.95760353 151.3828125 1154.64453125 C150.26772864 1153.53012282 149.15249653 1152.41586271 148.03712463 1151.30174255 C145.71168113 1148.97776479 143.38803364 1146.65201036 141.06567383 1144.32495117 C138.10833972 1141.36192049 135.14653747 1138.4034033 132.18336391 1135.44621372 C129.88311277 1133.14959868 127.58527644 1130.85057934 125.28813362 1128.55085564 C124.19776578 1127.45982694 123.10667195 1126.36952323 122.01479912 1125.28000069 C116.15270091 1119.42775802 110.45820254 1113.50417043 105.07421875 1107.203125 C103.84467242 1105.86053033 102.6076541 1104.52463038 101.35546875 1103.203125 C100.73285156 1102.543125 100.11023437 1101.883125 99.46875 1101.203125 C98.84355469 1100.543125 98.21835938 1099.883125 97.57421875 1099.203125 C92.61741708 1093.97037767 87.78811101 1088.65583317 83.07421875 1083.203125 C82.03915212 1082.01294289 81.00399833 1080.82283657 79.96875 1079.6328125 C76.66646202 1075.82647158 73.36958079 1072.01546237 70.07421875 1068.203125 C69.53506836 1067.58002441 68.99591797 1066.95692383 68.44042969 1066.31494141 C59.97567836 1056.5241668 51.81893161 1046.57727477 44.07421875 1036.203125 C43.38312012 1036.33364258 42.69202148 1036.46416016 41.97998047 1036.59863281 C-60.4760232 1055.7954755 -165.74493447 1053.19453454 -290.41796875 987.18359375 C-302.95081018 978.55680509 -314.92025233 969.32647494 -326.01171875 958.90625 C-328.24748591 956.83232122 -330.50845675 954.83343453 -332.8203125 952.84765625 C-336.86539667 949.32158926 -340.58314515 945.56607976 -344.23828125 941.640625 C-344.88780762 940.94372559 -345.53733398 940.24682617 -346.20654297 939.52880859 C-351.65294507 933.61791177 -356.72691217 927.50584199 -361.53369141 921.06640625 C-362.49277241 919.78269769 -363.45903945 918.50433709 -364.43115234 917.23046875 C-399.570972 871.12107577 -418.88633206 815.54132127 -424.92578125 758.203125 C-425.02149414 757.34017822 -425.11720703 756.47723145 -425.21582031 755.58813477 C-433.11042255 675.27682728 -409.16129611 595.30080466 -358.48828125 532.640625 C-356.96945552 530.82644235 -355.44830163 529.01420809 -353.92578125 527.203125 C-353.08144531 526.18911621 -352.23710938 525.17510742 -351.3671875 524.13037109 C-344.35990294 515.78336319 -336.96572041 507.92969503 -329.23461914 500.2512207 C-327.35389597 498.38129359 -325.48421306 496.50079862 -323.61523438 494.61914062 C-316.69175899 487.68735573 -309.64653513 481.24741602 -301.92578125 475.203125 C-300.4882422 474.03159164 -299.05196515 472.85850737 -297.6171875 471.68359375 C-286.96053715 463.12208011 -275.86862791 455.84413579 -263.92578125 449.203125 C-263.23274902 448.81398926 -262.5397168 448.42485352 -261.82568359 448.02392578 C-237.05257841 434.29770909 -206.73278735 426.4754226 -178.61328125 433.05078125 C-158.82268995 439.23534103 -147.35245335 451.85258218 -136.92578125 469.203125 C-136.45672363 469.98333008 -135.98766602 470.76353516 -135.50439453 471.56738281 C-125.18381884 488.90105 -116.34186036 506.88354077 -107.92578125 525.203125 C-96.65376152 549.71417493 -84.63294729 573.9612001 -71.4375 597.49609375 C-69.75154384 600.51513152 -68.08791223 603.54590775 -66.42578125 606.578125 C-57.59117474 622.65531796 -48.38406034 638.48558508 -38.92578125 654.203125 C-38.31847168 655.21391113 -37.71116211 656.22469727 -37.08544922 657.26611328 C1.82189236 721.92049171 44.47787869 786.07790014 92.67578125 844.27734375 C94.07421875 846.203125 94.07421875 846.203125 94.07421875 848.203125 C128.21973492 834.51164531 159.58996306 817.60636189 188.07421875 794.203125 C188.63866699 793.74309082 189.20311523 793.28305664 189.78466797 792.80908203 C198.45105266 785.69473903 206.50209197 777.97929241 214.44921875 770.078125 C215.36445312 769.17215576 216.2796875 768.26618652 217.22265625 767.33276367 C223.26530935 761.26211499 228.7325198 754.89277994 234.07421875 748.203125 C234.93782933 747.17576181 235.80624106 746.15237155 236.68359375 745.13671875 C277.70415787 697.30434562 301.89847147 637.35288782 311.32421875 575.453125 C311.47544189 574.46231934 311.62666504 573.47151367 311.7824707 572.45068359 C314.69210118 551.96333632 315.44841828 531.5614874 315.38671875 510.890625 C315.38489594 509.61964966 315.38307312 508.34867432 315.38119507 507.03918457 C315.33278736 486.94131382 314.7696683 467.13104372 312.07421875 447.203125 C311.9026123 445.93307617 311.73100586 444.66302734 311.55419922 443.35449219 C306.65663931 408.59450932 297.48869452 374.8093348 282.07421875 343.203125 C281.74019043 342.50525879 281.40616211 341.80739258 281.06201172 341.08837891 C268.36643599 314.8033489 249.79525325 288.65775075 228.40234375 268.65625 C227.07421875 267.203125 227.07421875 267.203125 227.07421875 265.203125 C226.50445313 264.96464844 225.9346875 264.72617187 225.34765625 264.48046875 C222.59410515 262.93337045 220.85983206 261.07003339 218.69921875 258.765625 C212.63572012 252.58671571 205.97753557 247.40601914 199.07421875 242.203125 C198.15866211 241.50437256 198.15866211 241.50437256 197.22460938 240.79150391 C128.14501664 188.14470154 36.11311954 170.79704917 -48.80859375 182.203125 C-133.2527937 193.95305485 -206.1264125 238.49571639 -265.80078125 297.953125 C-266.6928125 298.8404834 -267.58484375 299.7278418 -268.50390625 300.64208984 C-272.94994886 305.09898053 -277.25605486 309.61261626 -281.35693359 314.38916016 C-283.76179012 317.16975212 -286.28615577 319.83471181 -288.80078125 322.515625 C-293.2864258 327.33760549 -297.54678617 332.28147522 -301.66796875 337.421875 C-303.65322134 339.86737646 -305.69181856 342.25478645 -307.75634766 344.63330078 C-316.24514149 354.4539097 -323.90431877 364.96367174 -331.3125 375.6171875 C-339.36013045 387.09573309 -347.18749369 392.37399884 -360.92578125 395.203125 C-373.51478592 397.28567583 -385.10639111 396.30049897 -395.92578125 389.203125 C-408.06823911 379.27275848 -411.41668716 361.1411047 -413.11328125 346.328125 C-419.93730039 277.84202302 -390.41973531 214.50379118 -348.23828125 162.328125 C-344.64977272 158.00251742 -340.9398955 153.80042722 -337.15234375 149.6484375 C-335.71698884 148.07206526 -334.29404735 146.48425539 -332.88671875 144.8828125 C-323.60898008 134.35414277 -313.68254363 124.22619674 -302.92578125 115.203125 C-301.88021087 114.29576617 -300.8360805 113.38674674 -299.79296875 112.4765625 C-275.57887707 91.40623314 -248.98876468 73.71584832 -220.92578125 58.203125 C-220.11222168 57.74969727 -219.29866211 57.29626953 -218.46044922 56.82910156 C-193.50046045 43.0033987 -166.98133461 32.1650441 -139.92578125 23.203125 C-138.46084229 22.71489258 -138.46084229 22.71489258 -136.96630859 22.21679688 C-93.14572714 7.78816067 -46.14052725 0.15842693 0 0 Z M-275.20361328 599.76220703 C-296.88069347 627.22203237 -302.97778283 660.43739766 -299.421875 694.7421875 C-295.34040975 727.30376291 -281.16445494 755.91145773 -259.01171875 779.9296875 C-257.07355575 782.0420674 -255.21554854 784.20310572 -253.36328125 786.390625 C-249.84714283 790.39997741 -246.02990616 793.80617238 -241.92578125 797.203125 C-241.09578613 797.90163574 -241.09578613 797.90163574 -240.24902344 798.61425781 C-230.87692857 806.49232183 -221.31077875 813.71615264 -210.92578125 820.203125 C-209.9824292 820.79939697 -209.9824292 820.79939697 -209.02001953 821.40771484 C-188.64917723 834.18770554 -166.75517427 843.76843293 -143.92578125 851.203125 C-142.95350586 851.52120117 -141.98123047 851.83927734 -140.97949219 852.16699219 C-115.97947711 860.20901384 -87.39702839 867.84442035 -60.92578125 867.203125 C-63.99081867 862.33512439 -67.23137238 857.74069933 -70.92578125 853.328125 C-94.25736386 825.22861429 -114.67611416 793.79368093 -132.92578125 762.203125 C-133.45171875 761.29401367 -133.97765625 760.38490234 -134.51953125 759.44824219 C-157.90988546 718.80474345 -178.27899295 676.37897681 -197.06787109 633.44189453 C-199.77994913 627.24761586 -202.52117931 621.06641092 -205.27740479 614.8916626 C-206.0815879 613.08675742 -206.88050293 611.27950784 -207.67919922 609.47216797 C-215.96149552 590.84507756 -215.96149552 590.84507756 -231.86328125 578.890625 C-249.54102143 574.92215271 -264.58508722 586.80655028 -275.20361328 599.76220703 Z " fill="#FF851A" transform="translate(1313.92578125,11.796875)"/>
<path d="M0 0 C1.54562064 -0.00307895 1.54562064 -0.00307895 3.12246594 -0.0062201 C6.58566106 -0.01188811 10.04881639 -0.01043309 13.51201534 -0.00901413 C16.01595812 -0.01159788 18.51990048 -0.01461106 21.02384228 -0.01801753 C27.19050776 -0.02524291 33.35716077 -0.0277901 39.52382999 -0.02834659 C46.91090318 -0.02926117 54.29796838 -0.03593153 61.68503813 -0.04269341 C79.53844469 -0.05874594 97.3918504 -0.06465581 115.24526289 -0.06944216 C123.69263138 -0.07177882 132.1399992 -0.07538155 140.58736716 -0.07913754 C169.50891994 -0.09197229 198.43047233 -0.10269161 227.35202789 -0.10614014 C229.16721974 -0.10636177 230.98241158 -0.10658355 232.79760342 -0.10680549 C234.61715418 -0.10702613 236.43670493 -0.10724661 238.25625569 -0.10746694 C241.90652661 -0.10790949 245.55679752 -0.1083566 249.20706844 -0.10880661 C250.11212197 -0.108916 251.0171755 -0.10902539 251.94965489 -0.1091381 C281.29412815 -0.1127685 310.63857671 -0.12868828 339.98304052 -0.15199697 C371.01463734 -0.17660067 402.04622005 -0.19031322 433.07782692 -0.19150805 C436.48523073 -0.19167951 439.89263453 -0.19189493 443.30003834 -0.19214249 C444.13902441 -0.19219826 444.97801047 -0.19225402 445.84242036 -0.19231148 C459.33580995 -0.19346144 472.82917415 -0.20447876 486.32255517 -0.21902954 C499.88878457 -0.23340576 513.45498147 -0.23662516 527.0212164 -0.22858956 C535.07676215 -0.22413865 543.13220291 -0.22797233 551.18773484 -0.24382807 C557.20889961 -0.25474931 563.22994493 -0.24992021 569.25111424 -0.2390562 C571.68249879 -0.23709731 574.11389388 -0.24018646 576.5452636 -0.24890056 C597.8454306 -0.32039347 616.33592066 1.47750775 633.68241024 15.13142776 C634.44295712 15.71537308 635.20350399 16.29931839 635.98709774 16.90095901 C648.94519789 27.54991675 657.45806723 43.58573782 659.68241024 60.13142776 C661.31533552 80.3788372 657.09294704 98.68677279 644.36991024 115.00642776 C631.59789291 129.64281675 613.98876521 138.3471684 594.68241024 140.13142776 C591.23469508 140.26840107 587.79117372 140.26934851 584.3410635 140.26285553 C582.80980625 140.26593448 582.80980625 140.26593448 581.2476145 140.26907563 C577.82299486 140.27473523 574.39841557 140.27328966 570.97379208 140.27186966 C568.49516043 140.27445389 566.0165292 140.27746721 563.53789854 140.28087306 C557.43765418 140.28809372 551.33742334 140.29064536 545.23717603 140.29120212 C537.92869987 140.29211724 530.62023177 140.29878919 523.31175909 140.30554894 C505.64884731 140.32159608 487.9859364 140.32751077 470.32301864 140.33229769 C461.96444694 140.33463493 453.60587594 140.33823773 445.24730478 140.34199307 C416.6252687 140.35482746 388.00323301 140.36554672 359.38119411 140.36899567 C357.58503653 140.3692173 355.78887894 140.36943908 353.99272135 140.36966102 C352.1922703 140.36988166 350.39181925 140.37010214 348.5913682 140.37032247 C344.97946294 140.37076501 341.36755768 140.37121213 337.75565243 140.37166214 C336.86011236 140.37177153 335.9645723 140.37188092 335.04189465 140.37199363 C306.00909473 140.37562363 276.97631978 140.3915421 247.94352942 140.4148525 C217.23578573 140.43946257 186.52805632 140.45316905 155.82030249 140.45436358 C152.44770368 140.45453503 149.07510487 140.45475046 145.70250607 140.45499802 C144.45689734 140.45508167 144.45689734 140.45508167 143.1861248 140.45516701 C129.83730916 140.45631643 116.48851921 140.46732911 103.13971224 140.48188507 C89.71583654 140.49626949 76.29199368 140.49947608 62.86811239 140.49144509 C54.8996312 140.48699802 46.93125622 140.49081242 38.96278905 140.5066836 C33.00292408 140.5176212 27.04317954 140.51276372 21.08330995 140.50191173 C18.67951036 140.49995589 16.27570006 140.50302786 13.87191552 140.51175609 C-10.93693714 140.59610417 -33.22555364 137.74683361 -52.34493351 120.19783401 C-66.27285052 105.6079962 -73.0198325 87.65974378 -72.7878046 67.62166214 C-72.07535887 47.70366066 -63.61001282 30.75637754 -49.19258976 17.00642776 C-34.93859556 4.90767667 -18.52041988 -0.03438572 0 0 Z " fill="#FF851B" transform="translate(95.31758975982666,400.8685722351074)"/>
<path d="M0 0 C1.32275531 -0.00307895 1.32275531 -0.00307895 2.67223296 -0.0062201 C5.63001061 -0.01187889 8.58774154 -0.01043423 11.54552364 -0.00901413 C13.68648407 -0.01159841 15.82744401 -0.01461174 17.96840328 -0.01801753 C23.85438003 -0.02608342 29.74034458 -0.02787688 35.6263262 -0.028615 C41.97350016 -0.03046626 48.3206678 -0.03801397 54.6678381 -0.04475021 C69.27182504 -0.05903927 83.8758095 -0.06485971 98.47980222 -0.06944216 C105.69937505 -0.07177946 112.91894709 -0.07538226 120.1385193 -0.07913754 C144.86068887 -0.09197189 169.582858 -0.10269115 194.30503082 -0.10614014 C195.856435 -0.10636177 197.40783918 -0.10658355 198.95924335 -0.10680549 C200.51435429 -0.10702613 202.06946522 -0.10724661 203.62457615 -0.10746694 C206.7442977 -0.10790948 209.86401926 -0.1083566 212.98374081 -0.10880661 C213.75724818 -0.108916 214.53075555 -0.10902539 215.32770253 -0.1091381 C240.40401851 -0.11276806 265.48030557 -0.1286864 290.55661047 -0.15199697 C317.08009377 -0.17660766 343.60356054 -0.19031355 370.12705559 -0.19150805 C373.04016491 -0.1916795 375.95327423 -0.19189493 378.86638355 -0.19214249 C379.58365238 -0.19219826 380.3009212 -0.19225402 381.03992545 -0.19231148 C392.5695094 -0.19346085 404.09906361 -0.20447307 415.62863754 -0.21902954 C427.22330594 -0.23341477 438.81792754 -0.23636814 450.41260339 -0.22858956 C456.69072488 -0.22468453 462.96874654 -0.2256057 469.24685574 -0.23964691 C474.99909857 -0.25239419 480.75116664 -0.25118086 486.50340926 -0.2390562 C488.57948011 -0.23710066 490.65556338 -0.24017097 492.7316168 -0.24890056 C516.28274979 -0.34162585 535.80641442 3.82179279 553.30673885 20.75642776 C564.40810252 32.00802738 572.27453874 48.22669211 573.05673885 64.13142776 C573.13214901 65.42693558 573.13214901 65.42693558 573.2090826 66.74861526 C573.88756268 87.21157442 566.12538045 105.50354072 552.36923885 120.38142776 C533.14070159 138.39152307 510.20515291 140.44556946 485.10581112 140.38539505 C483.00005676 140.38770266 480.89430321 140.39088119 478.78855133 140.39484954 C473.03238607 140.4031649 467.27628749 140.39908711 461.52012205 140.3928771 C455.30054215 140.38834025 449.08097348 140.39534249 442.86139584 140.40083694 C431.39182783 140.40920668 419.9222894 140.40849504 408.45272157 140.40301401 C397.85540321 140.39797492 387.25809259 140.39667321 376.66077328 140.3990593 C375.95673052 140.39921207 375.25268776 140.39936484 374.52731038 140.39952224 C371.66908302 140.40014495 368.81085567 140.40078176 365.95262832 140.40144176 C339.16223331 140.40755425 312.37185175 140.4020216 285.58145882 140.39124797 C261.80075069 140.38175737 238.02006398 140.38260666 214.23935604 140.39216995 C187.49670076 140.40288854 160.75405735 140.40712068 134.01140022 140.40094543 C131.15850163 140.40030403 128.30560303 140.39967835 125.45270443 140.3990593 C124.3990867 140.39882206 124.3990867 140.39882206 123.32418377 140.39858004 C112.73577479 140.39630894 102.14737442 140.39895846 91.55896664 140.4040184 C79.51462713 140.40974554 67.47031842 140.40809705 55.42597985 140.39745691 C49.28352534 140.39220902 43.14111425 140.39012847 36.99866009 140.39675522 C31.37070289 140.40273498 25.74282917 140.39940615 20.11487949 140.38880011 C18.08410756 140.38657468 16.05332851 140.38768303 14.02256119 140.39255169 C-10.10722499 140.44594284 -31.41447796 137.77725482 -49.7049799 120.36189651 C-50.44361271 119.62584183 -51.18224552 118.88978714 -51.94326115 118.13142776 C-52.88105412 117.22843948 -52.88105412 117.22843948 -53.8377924 116.30720901 C-65.67410372 103.98996405 -71.21128138 86.77551466 -71.38076115 69.94392776 C-70.8722802 52.74032239 -65.61547379 38.52484204 -54.94326115 25.13142776 C-54.46115177 24.48431839 -53.9790424 23.83720901 -53.48232365 23.17049026 C-43.95980716 11.00588827 -27.86681005 3.15735404 -12.8491388 0.60570645 C-8.52975678 0.0812172 -4.3446277 -0.00946913 0 0 Z " fill="#FF851B" transform="translate(301.9432611465454,49.86857223510742)"/>
<path d="M0 0 C1.33717907 -0.00525911 1.33717907 -0.00525911 2.70137185 -0.01062447 C5.67386393 -0.01989197 8.64615808 -0.01502719 11.61865807 -0.01015663 C13.77728254 -0.01389523 15.93590566 -0.01849759 18.09452665 -0.02388728 C24.01548357 -0.03610674 29.93638394 -0.03585804 35.85735059 -0.03349853 C42.24746077 -0.03309009 48.6375529 -0.04413206 55.02765465 -0.05361366 C67.54332269 -0.07021902 80.05897131 -0.07574895 92.57464941 -0.07683842 C102.74971569 -0.07775835 112.92477587 -0.08187941 123.09984016 -0.08823967 C126.03127364 -0.09003483 128.96270712 -0.09181446 131.8941406 -0.09358943 C132.62295651 -0.09403152 133.35177242 -0.09447362 134.10267366 -0.09492911 C154.59724186 -0.10723394 175.09180795 -0.11513061 195.58638 -0.11424255 C196.35873513 -0.1142114 197.13109025 -0.11418024 197.92685007 -0.11414814 C201.84124623 -0.11398193 205.75564238 -0.11378385 209.67003854 -0.11357872 C210.44741637 -0.11353883 211.22479419 -0.11349894 212.02572893 -0.11345784 C213.59777621 -0.11337697 215.16982349 -0.11329337 216.74187077 -0.11320706 C241.19328582 -0.1119819 265.64464537 -0.12698965 290.09604454 -0.15435219 C317.5836129 -0.18509988 345.0711448 -0.20228305 372.55873144 -0.20042574 C375.49205104 -0.20027649 378.42537065 -0.20017907 381.35869026 -0.20011711 C382.08091734 -0.2000938 382.80314442 -0.20007049 383.54725717 -0.20004648 C395.14974571 -0.19998504 406.75218592 -0.21273512 418.35466011 -0.22998164 C430.02406403 -0.24696838 441.69338178 -0.24854627 453.36279304 -0.235763 C459.67968958 -0.22923865 465.99641167 -0.22909719 472.31329155 -0.2464695 C478.10319291 -0.26222841 483.89278189 -0.25930747 489.68267576 -0.24190123 C491.7701323 -0.23883758 493.8576123 -0.24243959 495.94504113 -0.25362138 C519.55494265 -0.37165283 538.1798497 4.52040161 555.74399376 21.27289391 C569.44943223 35.64364492 575.01951103 53.68180198 574.84555626 73.28070641 C573.8749858 91.24508329 566.04108379 109.21480535 552.75571251 121.57758141 C539.07345947 132.3925976 524.00050167 139.6034557 506.35044479 139.51453781 C505.45646958 139.51804389 504.56249437 139.52154996 503.64142901 139.52516228 C500.65434476 139.53444509 497.6674568 139.529561 494.68036461 139.52469444 C492.5136409 139.52843227 490.34691854 139.53303433 488.18019831 139.53842509 C482.23224837 139.55065412 476.28435467 139.55039472 470.33639503 139.54803634 C463.91901963 139.54762815 457.50166226 139.55866758 451.08429527 139.56815147 C438.51334608 139.58476217 425.94241623 139.59028699 413.37145703 139.59137623 C403.15202186 139.59229592 392.93259276 139.59641575 382.71315956 139.60277748 C379.76965194 139.60457262 376.8261443 139.60635225 373.88263667 139.60812724 C373.15083192 139.60856933 372.41902718 139.60901143 371.66504654 139.60946692 C351.08438539 139.621773 330.50372636 139.62966829 309.92306137 139.62878036 C309.14734929 139.62874921 308.37163722 139.62871805 307.57241872 139.62868595 C303.64095067 139.62851974 299.70948263 139.62832166 295.77801459 139.62811653 C294.99723734 139.62807664 294.21646009 139.62803675 293.41202293 139.62799565 C291.83310087 139.62791478 290.25417881 139.62783118 288.67525675 139.62774487 C264.11660243 139.6265197 239.55800336 139.64152724 214.99936485 139.66889 C187.39535098 139.69963332 159.79137341 139.71682112 132.18734133 139.71496356 C129.24194757 139.7148143 126.29655381 139.71471688 123.35116005 139.71465492 C122.26334909 139.71461996 122.26334909 139.71461996 121.15356216 139.71458429 C109.49968044 139.71452283 97.84584682 139.72727674 86.19197939 139.74451945 C74.47206422 139.7615008 62.75222505 139.76308809 51.03230421 139.75030081 C44.68718508 139.74377365 38.34223965 139.74364517 31.99713707 139.76100731 C26.18257622 139.77675379 20.36832657 139.77385789 14.55377324 139.75643905 C12.45621047 139.75337266 10.35862439 139.75698778 8.26108913 139.7681592 C-14.86034132 139.88309546 -33.40195784 134.78918533 -50.51772499 118.17133141 C-63.87765404 103.99240287 -69.98870614 85.98126837 -69.61928749 66.67914391 C-68.50835655 51.47327659 -63.82103557 38.20136435 -54.36928749 26.25726891 C-53.72346718 25.42324547 -53.07764687 24.58922203 -52.41225624 23.72992516 C-39.52769007 8.21585568 -19.98657333 -0.10144996 0 0 Z " fill="#FF851A" transform="translate(244.36928749084473,753.7427310943604)"/>
<path d="M0 0 C0.75514419 -0.00235223 1.51028837 -0.00470446 2.28831571 -0.00712797 C4.82115988 -0.01379005 7.35395241 -0.01336059 9.88680458 -0.01294994 C11.72024158 -0.01625031 13.55367786 -0.01997625 15.38711321 -0.02409142 C20.42777031 -0.03409996 25.4684155 -0.03782638 30.50908113 -0.04048073 C35.94492043 -0.04438722 41.38075034 -0.05396536 46.81658363 -0.0626936 C59.94590154 -0.0824489 73.0752202 -0.09252331 86.20454925 -0.10142139 C92.38986031 -0.10580606 98.5751705 -0.11117243 104.76048088 -0.11641026 C125.32644854 -0.13342206 145.89241567 -0.14791556 166.45838928 -0.155159 C171.79444187 -0.15706884 177.13049445 -0.15898752 182.46654701 -0.16094494 C183.12945739 -0.16118509 183.79236777 -0.16142524 184.47536634 -0.16167267 C205.95526506 -0.16956078 227.43510847 -0.19298274 248.91498305 -0.22550088 C271.64031295 -0.25984148 294.36561055 -0.27951298 317.09096682 -0.28280324 C329.47247565 -0.28496655 341.8539032 -0.29368906 354.2353878 -0.31926441 C364.78156651 -0.3409986 375.3276442 -0.34900844 385.87384276 -0.33929763 C391.25100315 -0.33476077 396.62795523 -0.33660351 402.0050869 -0.35605907 C406.93656345 -0.37374739 411.8676806 -0.37264716 416.79916127 -0.35716178 C418.57449478 -0.35479429 420.34985355 -0.35906419 422.12514858 -0.37099043 C444.24318314 -0.5102632 463.65898176 5.02109472 479.9382267 20.69916248 C493.82247136 34.90236299 499.7276367 53.64020948 499.55590248 73.12250233 C498.8407578 91.55191394 490.47722572 109.07849258 477.19652748 121.71625233 C464.75351492 132.25281153 450.25868108 139.30699748 433.70028782 139.26564884 C432.93496885 139.26770148 432.16964988 139.26975411 431.38113943 139.27186894 C428.80769939 139.27753908 426.23431288 139.27608167 423.66086769 139.27466297 C421.80069434 139.2772466 419.94052154 139.28025976 418.0803495 139.28366637 C412.96129948 139.29173996 407.84226347 139.29352615 402.72320783 139.29426384 C397.20494674 139.29611379 391.68669293 139.30366088 386.16843605 139.31039906 C374.09806441 139.32398586 362.02769609 139.33000775 349.95731807 139.33440971 C342.42076723 139.33717177 334.88421767 139.34140909 327.34766769 139.34591389 C306.48234682 139.35810743 285.61702663 139.36844168 264.75170231 139.37178898 C263.4025448 139.37201061 262.05338729 139.37223239 260.70422978 139.37245433 C259.35183535 139.37267497 257.99944093 139.37289545 256.64704651 139.37311578 C253.9339666 139.37355833 251.22088669 139.37400544 248.50780678 139.37445545 C247.83512142 139.37456484 247.16243606 139.37467423 246.4693663 139.37478694 C224.66382571 139.37841653 202.85831838 139.39433285 181.05279052 139.41764582 C157.99174855 139.44225595 134.93072194 139.45595567 111.86966473 139.4571569 C99.30160805 139.45807356 86.73359492 139.46382365 74.16555023 139.48197651 C63.46260536 139.49738092 52.75971749 139.50249595 42.05676364 139.49423841 C36.59710591 139.49033303 31.13756298 139.49125613 25.67791939 139.50529575 C20.67573075 139.51804122 15.67374308 139.51683136 10.67155469 139.50470504 C8.8659825 139.50274917 7.06039604 139.50582138 5.25484388 139.5145494 C-7.52316474 139.5723865 -19.06708764 138.54548972 -30.65894127 132.63422108 C-31.32973717 132.29527821 -32.00053307 131.95633533 -32.69165611 131.60712147 C-39.72268841 127.86086038 -45.18114162 122.85318171 -50.65894127 117.13422108 C-51.57933189 116.19062733 -51.57933189 116.19062733 -52.51831627 115.22797108 C-65.99183239 100.5043349 -69.39869141 81.75351822 -68.78198814 62.44769764 C-67.85156059 44.95418278 -57.91459804 28.8635283 -45.53394127 17.00922108 C-32.63553386 6.06108832 -16.95159972 -0.03617622 0 0 Z " fill="#FF851A" transform="translate(540.6589412689209,1081.8657789230347)"/>
</svg>
